<?xml version="1.0" encoding="iso-8859-1"?>
<!-- Generator: Adobe Illustrator 19.0.0, SVG Export Plug-In . SVG Version: 6.00 Build 0)  -->
<svg version="1.1" id="Layer_1" xmlns="http://www.w3.org/2000/svg" xmlns:xlink="http://www.w3.org/1999/xlink" x="0px" y="0px"
	 viewBox="0 0 512 512" style="enable-background:new 0 0 512 512;" xml:space="preserve">
<path style="fill:#E6E6E6;" d="M324.63,501.801H87.104v-253.4c0-43.383,35.169-78.552,78.552-78.552h80.422
	c43.383,0,78.552,35.169,78.552,78.552V501.801z"/>
<g>
	<rect x="165.656" y="134.803" style="fill:#F2484B;" width="80.421" height="35.044"/>
	<rect x="165.656" y="69.579" style="fill:#F2484B;" width="80.421" height="35.044"/>
</g>
<path style="fill:#E6E6E6;" d="M317.696,104.625h-71.618h-80.422v30.177h80.422h72.025c-0.829-5.395-1.261-10.921-1.261-16.549
	C316.842,113.637,317.134,109.09,317.696,104.625z"/>
<path style="fill:#F2484B;" d="M317.696,104.625c-0.562,4.464-0.853,9.012-0.853,13.628c0,5.627,0.431,11.154,1.261,16.549
	c7.965,51.821,52.745,91.506,106.795,91.506V10.199C369.837,10.199,324.397,51.383,317.696,104.625z"/>
<path d="M155.457,160.238c-44.151,5.075-78.553,42.673-78.553,88.162v253.401c0,5.632,4.566,10.199,10.199,10.199h237.526
	c5.633,0,10.199-4.567,10.199-10.199v-253.4c0-45.488-34.401-83.087-78.552-88.162v-15.237h53.436
	c5.62,24.235,18.831,46.254,37.831,62.7c21.463,18.576,48.935,28.807,77.354,28.807c5.633,0,10.199-4.567,10.199-10.199V10.199
	C435.096,4.567,430.53,0,424.897,0c-56.426,0-104.714,40.002-115.844,94.426h-52.777V69.581c0-5.632-4.566-10.199-10.199-10.199
	h-80.421c-5.633,0-10.199,4.567-10.199,10.199V160.238z M175.856,79.78h60.023v14.646h-60.023V79.78z M314.431,248.401v243.201
	H97.303V248.401c0-37.69,30.663-68.354,68.354-68.354h80.422C283.768,180.047,314.431,210.71,314.431,248.401z M235.879,159.648
	h-60.023v-14.646h60.023V159.648z M306.693,114.825l0.004-0.008c-0.033,1.147-0.054,2.294-0.054,3.437
	c0,2.13,0.079,4.261,0.193,6.391l-0.023-0.042H175.856v-9.779h130.837V114.825z M414.699,215.567
	c-3.975-0.423-7.888-1.096-11.726-1.994V105.599c0-5.632-4.566-10.199-10.199-10.199s-10.199,4.567-10.199,10.199v100.718
	c-28.253-13.717-49.408-40.648-54.39-73.064c-0.758-4.93-1.142-9.976-1.142-14.999c0-4.12,0.26-8.278,0.773-12.355v0.001
	c5.705-45.337,42.21-80.304,86.884-84.972L414.699,215.567L414.699,215.567z"/>
<path d="M184.451,461.424h-8.761c-5.633,0-10.199,4.567-10.199,10.199c0,5.632,4.566,10.199,10.199,10.199h8.761
	c5.633,0,10.199-4.567,10.199-10.199C194.65,465.991,190.084,461.424,184.451,461.424z"/>
<path d="M212.217,471.623c0,5.632,4.566,10.199,10.199,10.199h70.09c5.633,0,10.199-4.567,10.199-10.199
	c0-5.632-4.566-10.199-10.199-10.199h-70.09C216.783,461.424,212.217,465.991,212.217,471.623z"/>
<g>
</g>
<g>
</g>
<g>
</g>
<g>
</g>
<g>
</g>
<g>
</g>
<g>
</g>
<g>
</g>
<g>
</g>
<g>
</g>
<g>
</g>
<g>
</g>
<g>
</g>
<g>
</g>
<g>
</g>
</svg>
