<?xml version="1.0" encoding="iso-8859-1"?>
<!-- Generator: Adobe Illustrator 19.0.0, SVG Export Plug-In . SVG Version: 6.00 Build 0)  -->
<svg version="1.1" id="Layer_1" xmlns="http://www.w3.org/2000/svg" xmlns:xlink="http://www.w3.org/1999/xlink" x="0px" y="0px"
	 viewBox="0 0 512 512" style="enable-background:new 0 0 512 512;" xml:space="preserve">
<path style="fill:#F2484B;" d="M414.342,343.459C414.342,256.01,256,10.199,256,10.199S97.658,256.01,97.658,343.459
	S168.55,501.801,256,501.801S414.342,430.909,414.342,343.459z"/>
<path d="M256,512c-92.934,0-168.541-75.607-168.541-168.541c0-89.422,153.435-328.644,159.966-338.784
	C249.303,1.761,252.533,0,256,0c3.467,0,6.697,1.761,8.574,4.675c6.532,10.14,159.966,249.361,159.966,338.784
	C424.541,436.393,348.934,512,256,512z M256,29.29c-13.781,22.034-42.17,68.336-70.278,119.741
	c-50.939,93.158-77.865,160.391-77.865,194.427c0,81.687,66.456,148.143,148.142,148.143s148.142-66.456,148.142-148.142
	c0-34.051-26.944-101.318-77.92-194.529C298.123,97.549,269.77,51.306,256,29.29z"/>
<path d="M304.962,462.829c-3.898,0-7.619-2.246-9.314-6.034c-2.302-5.141-0.001-11.175,5.14-13.476
	c39.437-17.66,64.919-56.984,64.919-100.181c0-5.633,4.566-10.199,10.199-10.199s10.199,4.566,10.199,10.199
	c0,51.225-30.216,97.856-76.981,118.797C307.771,462.542,306.355,462.829,304.962,462.829z"/>
<path d="M256,473.243c-5.633,0-10.199-4.566-10.199-10.199c0-5.633,4.566-10.199,10.199-10.199c4.809,0,9.647-0.314,14.383-0.933
	c5.585-0.728,10.706,3.205,11.435,8.791c0.73,5.585-3.206,10.705-8.791,11.435C267.419,472.871,261.69,473.243,256,473.243z"/>
<g>
</g>
<g>
</g>
<g>
</g>
<g>
</g>
<g>
</g>
<g>
</g>
<g>
</g>
<g>
</g>
<g>
</g>
<g>
</g>
<g>
</g>
<g>
</g>
<g>
</g>
<g>
</g>
<g>
</g>
</svg>
