<?xml version="1.0" encoding="iso-8859-1"?>
<!-- Generator: Adobe Illustrator 19.0.0, SVG Export Plug-In . SVG Version: 6.00 Build 0)  -->
<svg version="1.1" id="Layer_1" xmlns="http://www.w3.org/2000/svg" xmlns:xlink="http://www.w3.org/1999/xlink" x="0px" y="0px"
	 viewBox="0 0 512 512" style="enable-background:new 0 0 512 512;" xml:space="preserve">
<g>
	<path style="fill:#E6E6E6;" d="M274.08,266.113v44.74h-28.192l79.085,79.085c-0.313,0.301-0.635,0.586-0.943,0.895
		c-25.386,25.386-25.386,66.545,0,91.931c25.386,25.386,66.545,25.386,91.931,0c13.162-13.162,19.482-30.563,18.995-47.807
		c17.245,0.487,34.646-5.834,47.807-18.995c25.386-25.386,25.386-66.545,0-91.931c-25.386-25.386-66.545-25.386-91.931,0
		c-0.308,0.308-0.595,0.63-0.895,0.943l-90.729-90.729v31.869H274.08V266.113z"/>
	<path style="fill:#E6E6E6;" d="M121.169,187.971c0.308-0.308,0.595-0.63,0.895-0.943l92.567,92.567h28.192v-44.74h25.128v-31.869
		l-80.923-80.923c0.313-0.301,0.635-0.586,0.943-0.895c25.386-25.386,25.386-66.545,0-91.931s-66.545-25.386-91.931,0
		C82.88,42.4,76.56,59.801,77.046,77.046C59.801,76.56,42.4,82.88,29.239,96.041c-25.386,25.386-25.386,66.545,0,91.931
		S95.783,213.357,121.169,187.971z"/>
</g>
<path d="M369.994,512c-20.087,0-38.973-7.823-53.178-22.027c-14.204-14.203-22.027-33.089-22.027-53.177
	c0-17.091,5.663-33.311,16.1-46.519l-72.215-72.214c-2.916-2.917-3.789-7.304-2.211-11.115c1.579-3.811,5.297-6.296,9.423-6.296
	h17.993v-34.54c0-5.633,4.567-10.199,10.199-10.199h14.929v-21.67c0-4.125,2.486-7.844,6.296-9.423
	c3.811-1.578,8.199-0.707,11.115,2.21l83.859,83.859c13.211-10.439,29.429-16.1,46.518-16.1c20.087,0,38.973,7.822,53.178,22.027
	C504.177,331.02,512,349.906,512,369.993s-7.823,38.973-22.027,53.178c-12.354,12.354-28.129,19.837-45.199,21.604
	c-1.764,17.07-9.247,32.843-21.603,45.199C408.967,504.178,390.082,512,369.994,512z M270.511,321.051l61.674,61.673
	c1.938,1.938,3.014,4.574,2.986,7.315c-0.027,2.741-1.157,5.355-3.133,7.254l-0.484,0.456c-0.103,0.096-0.206,0.19-0.306,0.29
	c-10.357,10.357-16.059,24.12-16.059,38.759s5.701,28.402,16.053,38.753c10.35,10.352,24.113,16.053,38.753,16.053
	c14.639,0,28.402-5.7,38.753-16.053c10.755-10.755,16.441-25.071,16.012-40.308c-0.079-2.804,1-5.516,2.983-7.499
	c1.983-1.983,4.693-3.048,7.499-2.983c15.246,0.442,29.553-5.258,40.308-16.012c10.35-10.351,16.052-24.114,16.052-38.753
	s-5.701-28.402-16.053-38.753c-10.35-10.351-24.114-16.053-38.753-16.053s-28.402,5.7-38.753,16.053
	c-0.094,0.093-0.187,0.196-0.28,0.298c-0.157,0.169-0.315,0.337-0.475,0.504c-1.898,1.975-4.512,3.103-7.251,3.128
	c-0.034,0-0.066,0-0.1,0c-2.704,0-5.297-1.074-7.212-2.987l-73.318-73.318v7.247c0,5.633-4.567,10.199-10.199,10.199h-14.929v34.54
	c0,5.633-4.567,10.199-10.199,10.199h-3.569V321.051z"/>
<path d="M242.824,289.795h-28.193c-2.705,0-5.298-1.075-7.212-2.987l-85.697-85.697c-13.207,10.437-29.429,16.099-46.518,16.099
	c-20.087,0-38.973-7.823-53.178-22.027C7.823,180.98,0,162.094,0,142.007s7.823-38.973,22.027-53.178
	c12.354-12.354,28.129-19.837,45.199-21.604c1.764-17.07,9.247-32.843,21.603-45.199C103.033,7.822,121.918,0,142.006,0
	s38.973,7.823,53.178,22.027c14.204,14.203,22.027,33.089,22.027,53.177c0,17.091-5.663,33.311-16.1,46.519l74.053,74.052
	c1.912,1.912,2.987,4.507,2.987,7.212v31.869c0,5.633-4.567,10.199-10.199,10.199h-14.929v34.541
	C253.023,285.229,248.457,289.795,242.824,289.795z M218.857,269.397h13.768v-34.541c0-5.633,4.567-10.199,10.199-10.199h14.929
	v-17.445l-77.936-77.935c-1.938-1.938-3.014-4.574-2.986-7.315c0.027-2.741,1.157-5.355,3.133-7.254l0.484-0.455
	c0.103-0.096,0.206-0.19,0.306-0.29c10.357-10.357,16.059-24.12,16.059-38.759s-5.701-28.402-16.053-38.753
	c-10.351-10.353-24.114-16.054-38.754-16.054c-14.639,0-28.402,5.7-38.753,16.053C92.498,47.206,86.812,61.522,87.241,76.759
	c0.079,2.804-1,5.516-2.983,7.499c-1.983,1.984-4.689,3.057-7.499,2.983C61.49,86.821,47.204,92.5,36.45,103.254
	c-10.35,10.351-16.052,24.114-16.052,38.753s5.701,28.402,16.053,38.753c10.35,10.351,24.114,16.053,38.753,16.053
	c14.637,0,28.397-5.698,38.747-16.046l0,0c0.1-0.099,0.192-0.202,0.287-0.304c0.157-0.169,0.315-0.337,0.475-0.504
	c1.898-1.975,4.512-3.102,7.251-3.128c2.735-0.071,5.375,1.05,7.312,2.986L218.857,269.397z"/>
<path d="M397.498,468.143c-2.206,0-4.43-0.713-6.298-2.183c-4.427-3.482-5.194-9.894-1.712-14.322
	c3.416-4.343,5.222-9.569,5.222-15.113c0-5.633,4.567-10.199,10.199-10.199c5.632,0,10.199,4.566,10.199,10.199
	c0,10.162-3.315,19.749-9.585,27.723C403.51,466.807,400.519,468.143,397.498,468.143z"/>
<path d="M370.231,481.402c-5.632,0-10.199-4.566-10.199-10.199c0-5.633,4.567-10.199,10.199-10.199c0.967,0,1.94-0.057,2.891-0.168
	c5.6-0.653,10.662,3.348,11.318,8.943c0.657,5.594-3.346,10.661-8.942,11.318C373.762,481.299,371.99,481.402,370.231,481.402z"/>
<g>
</g>
<g>
</g>
<g>
</g>
<g>
</g>
<g>
</g>
<g>
</g>
<g>
</g>
<g>
</g>
<g>
</g>
<g>
</g>
<g>
</g>
<g>
</g>
<g>
</g>
<g>
</g>
<g>
</g>
</svg>
