<?xml version="1.0" encoding="iso-8859-1"?>
<!-- Generator: Adobe Illustrator 19.0.0, SVG Export Plug-In . SVG Version: 6.00 Build 0)  -->
<svg version="1.1" id="Layer_1" xmlns="http://www.w3.org/2000/svg" xmlns:xlink="http://www.w3.org/1999/xlink" x="0px" y="0px"
	 viewBox="0 0 512 512" style="enable-background:new 0 0 512 512;" xml:space="preserve">
<g>
	<path style="fill:#FFCC75;" d="M218.544,43.036H97.521c-9.067,0-16.418-7.351-16.418-16.418l0,0
		c0-9.067,7.351-16.418,16.418-16.418h121.024c9.067,0,16.418,7.351,16.418,16.418l0,0
		C234.962,35.685,227.612,43.036,218.544,43.036z"/>
	<rect x="144.166" y="462.401" style="fill:#FFCC75;" width="28.145" height="39.404"/>
	<path style="fill:#FFCC75;" d="M414.479,43.036H293.456c-9.067,0-16.418-7.351-16.418-16.418l0,0
		c0-9.067,7.351-16.418,16.418-16.418h121.024c9.067,0,16.418,7.351,16.418,16.418l0,0
		C430.898,35.685,423.547,43.036,414.479,43.036z"/>
	<rect x="340.103" y="462.401" style="fill:#FFCC75;" width="28.145" height="39.404"/>
</g>
<path d="M218.544,0H97.521C82.844,0,70.903,11.94,70.903,26.618c0,14.245,11.25,25.91,25.331,26.584v190.603
	c0,1.535,0.346,3.05,1.014,4.433l50.586,104.851V452.2h-3.661c-5.633,0-10.199,4.567-10.199,10.199v39.402
	c0,5.632,4.566,10.199,10.199,10.199h28.145c5.633,0,10.199-4.567,10.199-10.199v-39.404c0-5.632-4.566-10.199-10.199-10.199h-4.085
	v-99.112l50.586-104.851c0.667-1.382,1.014-2.898,1.014-4.433V53.201c14.082-0.673,25.331-12.339,25.331-26.584
	C245.161,11.94,233.221,0,218.544,0z M162.117,491.602h-7.746v-19.005h7.746V491.602z M158.033,327.283l-36.713-76.094h73.425
	L158.033,327.283z M116.632,230.79V126.411h82.8V230.79H116.632z M199.432,106.013h-82.8V53.234h82.8V106.013z M218.544,32.835
	H97.521c-3.429,0-6.219-2.789-6.219-6.218s2.789-6.219,6.219-6.219h121.024c3.429,0,6.218,2.789,6.218,6.219
	C224.763,30.046,221.973,32.835,218.544,32.835z"/>
<path d="M338.019,230.79h-4.691c-5.633,0-10.199,4.567-10.199,10.199s4.566,10.199,10.199,10.199h4.691
	c5.633,0,10.199-4.567,10.199-10.199S343.652,230.79,338.019,230.79z"/>
<path d="M441.097,26.618C441.097,11.94,429.156,0,414.479,0H293.456c-14.677,0-26.617,11.94-26.617,26.618
	c0,14.245,11.249,25.91,25.331,26.584v190.603c0,1.535,0.346,3.05,1.014,4.433l50.586,104.851V452.2h-3.662
	c-5.633,0-10.199,4.567-10.199,10.199v39.402c0,5.632,4.566,10.199,10.199,10.199h28.145c5.633,0,10.199-4.567,10.199-10.199
	v-39.404c0-5.632-4.566-10.199-10.199-10.199h-4.085v-99.112l50.586-104.851c0.667-1.382,1.014-2.898,1.014-4.433V53.201
	C429.847,52.528,441.097,40.862,441.097,26.618z M358.052,491.602h-7.746v-19.005h7.746V491.602z M395.368,106.013h-82.8V53.234
	h82.8V106.013z M312.568,126.411h82.8V230.79h-30.143c-5.633,0-10.199,4.567-10.199,10.199s4.566,10.199,10.199,10.199h25.455
	l-36.713,76.094l-41.4-85.811L312.568,126.411L312.568,126.411z M414.479,32.835H293.456c-3.429,0-6.218-2.789-6.218-6.218
	s2.789-6.219,6.218-6.219h121.024c3.429,0,6.219,2.789,6.219,6.219C420.699,30.046,417.909,32.835,414.479,32.835z"/>
<g>
</g>
<g>
</g>
<g>
</g>
<g>
</g>
<g>
</g>
<g>
</g>
<g>
</g>
<g>
</g>
<g>
</g>
<g>
</g>
<g>
</g>
<g>
</g>
<g>
</g>
<g>
</g>
<g>
</g>
</svg>
