<?xml version="1.0" encoding="iso-8859-1"?>
<!-- Generator: Adobe Illustrator 19.0.0, SVG Export Plug-In . SVG Version: 6.00 Build 0)  -->
<svg version="1.1" id="Layer_1" xmlns="http://www.w3.org/2000/svg" xmlns:xlink="http://www.w3.org/1999/xlink" x="0px" y="0px"
	 viewBox="0 0 512 512" style="enable-background:new 0 0 512 512;" xml:space="preserve">
<rect x="10.199" y="127.275" style="fill:#F2484B;" width="491.602" height="211.899"/>
<g>
	<circle style="fill:#FFCC75;" cx="81.186" cy="421.808" r="22.25"/>
	<circle style="fill:#FFCC75;" cx="424.46" cy="421.808" r="22.25"/>
	<circle style="fill:#FFCC75;" cx="252.818" cy="421.808" r="22.25"/>
</g>
<path d="M512,120.915c0-34.833-28.34-63.173-63.173-63.173H63.173C28.34,57.741,0,86.081,0,120.915v224.612
	c0,31.012,22.468,56.857,51.976,62.159c-2.075,4.272-3.239,9.064-3.239,14.124c0,17.892,14.556,32.448,32.448,32.448
	s32.448-14.555,32.448-32.448c0-4.664-0.996-9.098-2.776-13.11h112.293c-1.78,4.012-2.776,8.445-2.776,13.11
	c0,17.892,14.556,32.448,32.449,32.448c17.891,0,32.448-14.555,32.448-32.448c0-4.664-0.996-9.098-2.776-13.11h112.293
	c-1.78,4.012-2.776,8.445-2.776,13.11c0,17.892,14.556,32.448,32.448,32.448c17.892,0,32.449-14.555,32.449-32.448
	c0-4.754-1.036-9.268-2.881-13.341C486.435,405.814,512,378.608,512,345.526V120.915z M252.822,433.859
	c-6.645,0-12.05-5.406-12.05-12.049s5.406-12.049,12.05-12.049c6.645,0,12.049,5.406,12.049,12.049S259.466,433.859,252.822,433.859
	z M20.398,137.471h471.203V328.97H20.398V137.471z M63.173,78.14h385.653c22.29,0,40.644,17.141,42.594,38.933H20.58
	C22.529,95.28,40.882,78.14,63.173,78.14z M81.185,433.859c-6.645,0-12.049-5.406-12.049-12.049s5.406-12.049,12.049-12.049
	s12.049,5.406,12.049,12.049S87.829,433.859,81.185,433.859z M424.458,433.859c-6.645,0-12.049-5.406-12.049-12.049
	s5.406-12.049,12.049-12.049s12.05,5.406,12.05,12.049S431.103,433.859,424.458,433.859z M448.827,388.302H63.173
	c-22.29,0-40.644-17.141-42.594-38.933H491.42C489.471,371.161,471.118,388.302,448.827,388.302z"/>
<path d="M313.212,296.126h-18.011c-5.633,0-10.199,4.567-10.199,10.199c0,5.632,4.566,10.199,10.199,10.199h18.011
	c5.633,0,10.199-4.567,10.199-10.199C323.412,300.693,318.845,296.126,313.212,296.126z"/>
<path d="M466.838,296.126h-102.77c-5.633,0-10.199,4.567-10.199,10.199c0,5.632,4.566,10.199,10.199,10.199h102.77
	c5.633,0,10.199-4.567,10.199-10.199C477.037,300.693,472.471,296.126,466.838,296.126z"/>
<g>
</g>
<g>
</g>
<g>
</g>
<g>
</g>
<g>
</g>
<g>
</g>
<g>
</g>
<g>
</g>
<g>
</g>
<g>
</g>
<g>
</g>
<g>
</g>
<g>
</g>
<g>
</g>
<g>
</g>
</svg>
