<?xml version="1.0" encoding="iso-8859-1"?>
<!-- Generator: Adobe Illustrator 19.0.0, SVG Export Plug-In . SVG Version: 6.00 Build 0)  -->
<svg version="1.1" id="Layer_1" xmlns="http://www.w3.org/2000/svg" xmlns:xlink="http://www.w3.org/1999/xlink" x="0px" y="0px"
	 viewBox="0 0 511.627 511.627" style="enable-background:new 0 0 511.627 511.627;" xml:space="preserve">
<path style="fill:#FFCC75;" d="M249.688,484.674c16.29-12.105,27.577-29.644,32.333-49.374
	c15.535-64.451,84.193-165.181,106.787-210.658c10.04-20.21,15.615-43.028,15.433-67.169
	c-0.613-81.489-66.275-147.019-147.766-147.47c-82.322-0.456-148.749,65.76-149.094,147.975v247.603
	c0.302,21.117,8.677,41.093,20.45,58.521C155.085,504.447,210.61,513.714,249.688,484.674L249.688,484.674z"/>
<path d="M198.831,511.627c-5.427,0-10.895-0.461-16.368-1.394c-25.897-4.413-48.242-18.809-62.918-40.534
	c-14.404-21.324-21.861-42.849-22.163-63.977c0-0.047-0.001-0.095-0.001-0.143V157.977c0.179-42.609,16.854-82.47,46.956-112.279
	c29.992-29.702,69.859-45.924,112.194-45.696c42.059,0.233,81.558,16.664,111.221,46.268s46.173,69.069,46.489,111.127
	c0.189,25.182-5.354,49.304-16.478,71.693c-6.933,13.955-17.819,32.506-30.424,53.987c-28.99,49.404-65.069,110.89-75.597,154.565
	c-5.347,22.184-18.164,41.736-36.089,55.058l0,0C238.927,505.129,219.197,511.627,198.831,511.627z M117.38,405.505
	c0.261,17.148,6.564,34.979,18.737,52.999c11.59,17.157,29.243,28.526,49.706,32.014c20.581,3.51,41.144-1.418,57.901-13.87l0,0
	c14.175-10.534,24.324-26.051,28.576-43.691c11.222-46.556,48.133-109.458,77.791-160.001
	c12.415-21.159,23.138-39.432,29.761-52.763c9.714-19.553,14.556-40.629,14.39-62.645c-0.568-75.426-62.394-137.129-137.823-137.546
	c-37.046-0.163-71.818,13.968-98.01,39.906c-26.302,26.047-40.873,60.89-41.029,98.111
	C117.38,158.019,117.38,405.505,117.38,405.505z"/>
<path d="M328.376,243.496c-1.657,0-3.337-0.413-4.885-1.281c-4.816-2.703-6.53-8.798-3.827-13.614
	c3.396-6.053,6.037-10.987,8.073-15.086c8.029-16.162,12.031-33.583,11.894-51.781c-0.228-30.38-10.019-55.413-28.314-72.393
	c-16.496-15.309-39.132-22.83-63.744-21.177c-19.603,1.316-46.729,16.654-55.818,31.56c-2.875,4.716-9.029,6.206-13.744,3.332
	c-4.715-2.875-6.207-9.029-3.332-13.744c13.805-22.64,48.144-39.531,71.554-41.103c30.164-2.026,58.111,7.375,78.688,26.473
	c22.437,20.823,34.439,50.873,34.71,86.902c0.16,21.364-4.544,41.831-13.981,60.829c-2.188,4.402-4.981,9.628-8.544,15.976
	C335.272,241.656,331.874,243.496,328.376,243.496z"/>
<path d="M159.809,425.329c-5.306,0-9.728-4.172-9.981-9.527c-1.62-34.25,25.07-63.438,59.496-65.068
	c10.935-0.517,21.147-5.175,28.756-13.116c3.821-3.988,10.151-4.124,14.139-0.303c3.988,3.821,4.123,10.151,0.302,14.139
	c-11.171,11.659-26.177,18.499-42.253,19.259c-23.409,1.107-41.561,20.911-40.462,44.145c0.261,5.517-4,10.2-9.517,10.462
	C160.128,425.325,159.968,425.329,159.809,425.329z"/>
<path d="M200.548,294.36c-4.479,0-8.556-3.031-9.693-7.573c-0.303-1.21-0.635-2.392-0.987-3.513
	c-1.654-5.27,1.276-10.882,6.546-12.536c5.27-1.652,10.882,1.277,12.536,6.546c0.469,1.493,0.908,3.057,1.306,4.646
	c1.341,5.357-1.915,10.788-7.272,12.129C202.168,294.262,201.352,294.36,200.548,294.36z"/>
<path d="M183.378,265.8c-2.16,0.001-4.335-0.696-6.167-2.133c-12.188-9.563-27.854-7.215-28.009-7.189
	c-5.448,0.928-10.611-2.731-11.541-8.174c-0.93-5.444,2.73-10.611,8.174-11.541c0.988-0.169,24.44-3.961,43.722,11.169
	c4.345,3.41,5.103,9.695,1.694,14.04C189.279,264.488,186.343,265.8,183.378,265.8z"/>
<path style="fill:#F2484B;" d="M107.381,280.278c17.462,0,31.978,18.722,31.978,41.817s-14.516,41.817-31.978,41.817
	C107.381,363.912,107.381,280.278,107.381,280.278z"/>
<path d="M107.381,373.912c-5.523,0-10-4.478-10-10v-83.633c0-5.522,4.477-10,10-10c23.146,0,41.978,23.245,41.978,51.816
	S130.528,373.912,107.381,373.912z M117.381,293.891v56.408c7.045-5.37,11.978-16.132,11.978-28.204
	S124.427,299.261,117.381,293.891z"/>
<g>
</g>
<g>
</g>
<g>
</g>
<g>
</g>
<g>
</g>
<g>
</g>
<g>
</g>
<g>
</g>
<g>
</g>
<g>
</g>
<g>
</g>
<g>
</g>
<g>
</g>
<g>
</g>
<g>
</g>
</svg>
