<?xml version="1.0" encoding="iso-8859-1"?>
<!-- Generator: Adobe Illustrator 19.0.0, SVG Export Plug-In . SVG Version: 6.00 Build 0)  -->
<svg version="1.1" id="Layer_1" xmlns="http://www.w3.org/2000/svg" xmlns:xlink="http://www.w3.org/1999/xlink" x="0px" y="0px"
	 viewBox="0 0 512 512" style="enable-background:new 0 0 512 512;" xml:space="preserve">
<circle style="fill:#E6E6E6;" cx="256" cy="194.703" r="184.504"/>
<circle style="fill:#F2484B;" cx="256" cy="194.703" r="134.507"/>
<circle style="fill:#E6E6E6;" cx="256" cy="194.703" r="70.229"/>
<path style="fill:#FFCC75;" d="M221.481,261.357c0,19.064,15.455,34.519,34.519,34.519c19.064,0,34.519-15.455,34.519-34.519
	v-66.658c0-19.064-15.455-34.519-34.519-34.519c-19.064,0-34.519,15.455-34.519,34.519V261.357z"/>
<path d="M450.699,194.699C450.699,87.342,363.357,0,256,0S61.301,87.342,61.301,194.699c0,103.936,81.865,189.111,184.5,194.433
	v56.723c0,5.632,4.567,10.199,10.199,10.199c5.632,0,10.199-4.567,10.199-10.199v-56.723
	C368.834,383.808,450.699,298.635,450.699,194.699z M211.282,194.699v40.104c-9.777-10.851-15.312-24.988-15.312-40.104
	c0-33.099,26.929-60.028,60.029-60.028s60.029,26.929,60.029,60.028c0,15.116-5.535,29.253-15.312,40.103v-40.103
	c0-24.658-20.061-44.718-44.718-44.718S211.282,170.041,211.282,194.699z M231.68,194.699c0-13.41,10.909-24.32,24.32-24.32
	s24.32,10.909,24.32,24.32v66.658c0,13.41-10.909,24.32-24.32,24.32c-13.411,0-24.32-10.909-24.32-24.32V194.699z M266.199,304.887
	c19.695-4.614,34.421-22.272,34.514-43.332c22.421-14.984,35.716-39.742,35.716-66.857c0-44.347-36.08-80.427-80.428-80.427
	s-80.428,36.08-80.428,80.427c0,27.114,13.294,51.872,35.716,66.857c0.093,21.06,14.818,38.718,34.514,43.332v13.697
	c-63.79-5.206-114.108-58.777-114.108-123.886c0-68.543,55.764-124.307,124.307-124.307s124.307,55.764,124.307,124.307
	c0,65.109-50.318,118.68-114.108,123.886v-13.697H266.199z M266.199,368.693V339.04c75.049-5.252,134.506-67.98,134.506-144.341
	c0-79.79-64.914-144.705-144.705-144.705s-144.705,64.914-144.705,144.705c0,76.361,59.456,139.09,134.506,144.341v29.653
	c-91.38-5.3-164.101-81.309-164.101-173.994c0-96.11,78.191-174.3,174.3-174.3s174.3,78.19,174.3,174.3
	C430.3,287.384,357.579,363.394,266.199,368.693z"/>
<path d="M256,477.318c-5.632,0-10.199,4.567-10.199,10.199v14.284c0,5.632,4.567,10.199,10.199,10.199
	c5.632,0,10.199-4.567,10.199-10.199v-14.284C266.199,481.885,261.632,477.318,256,477.318z"/>
<g>
</g>
<g>
</g>
<g>
</g>
<g>
</g>
<g>
</g>
<g>
</g>
<g>
</g>
<g>
</g>
<g>
</g>
<g>
</g>
<g>
</g>
<g>
</g>
<g>
</g>
<g>
</g>
<g>
</g>
</svg>
