<?xml version="1.0" encoding="iso-8859-1"?>
<!-- Generator: Adobe Illustrator 19.0.0, SVG Export Plug-In . SVG Version: 6.00 Build 0)  -->
<svg version="1.1" id="Layer_1" xmlns="http://www.w3.org/2000/svg" xmlns:xlink="http://www.w3.org/1999/xlink" x="0px" y="0px"
	 viewBox="0 0 512 512" style="enable-background:new 0 0 512 512;" xml:space="preserve">
<g>
	<rect x="10.199" y="134.64" style="fill:#F2484B;" width="491.602" height="323.641"/>
	<rect x="168.287" y="53.72" style="fill:#F2484B;" width="175.426" height="32.637"/>
</g>
<g>
	<rect x="413.068" y="104.715" style="fill:#E6E6E6;" width="41.817" height="29.926"/>
	<rect x="57.116" y="104.715" style="fill:#E6E6E6;" width="41.817" height="29.926"/>
	<polygon style="fill:#E6E6E6;" points="364.622,253.625 300.367,253.625 300.367,189.37 211.633,189.37 211.633,253.625 
		147.378,253.625 147.378,342.358 211.633,342.358 211.633,406.613 300.367,406.613 300.367,342.358 364.622,342.358 	"/>
</g>
<path d="M501.801,124.444h-36.717v-19.727c0-5.633-4.567-10.199-10.199-10.199h-41.817c-5.632,0-10.199,4.566-10.199,10.199v19.727
	h-66.295V96.557h7.139c5.632,0,10.199-4.566,10.199-10.199V53.72c0-5.633-4.567-10.199-10.199-10.199H168.287
	c-5.633,0-10.199,4.566-10.199,10.199v32.637c0,5.633,4.566,10.199,10.199,10.199h7.139v27.887h-66.295v-19.727
	c0-5.633-4.566-10.199-10.199-10.199H57.116c-5.633,0-10.199,4.566-10.199,10.199v19.727H10.199C4.566,124.444,0,129.01,0,134.643
	V458.28c0,5.633,4.566,10.199,10.199,10.199h491.602c5.632,0,10.199-4.566,10.199-10.199V134.643
	C512,129.01,507.433,124.444,501.801,124.444z M423.267,114.915h21.418v9.528h-21.418V114.915z M178.486,63.919h155.028v12.239
	H178.486V63.919z M195.825,96.557h120.351v27.887H195.825V96.557z M67.315,114.915h21.418v9.528H67.315V114.915z M491.602,144.842
	v303.239H20.398V144.842H491.602z"/>
<path d="M374.821,342.358v-88.733c0-5.633-4.567-10.199-10.199-10.199h-54.056V189.37c0-5.633-4.567-10.199-10.199-10.199h-88.733
	c-5.633,0-10.199,4.566-10.199,10.199v54.056h-54.056c-5.633,0-10.199,4.566-10.199,10.199v88.733
	c0,5.633,4.566,10.199,10.199,10.199h54.056v54.056c0,5.633,4.566,10.199,10.199,10.199h88.733c5.632,0,10.199-4.566,10.199-10.199
	v-54.056h54.056C370.254,352.557,374.821,347.991,374.821,342.358z M354.422,332.158h-54.056c-5.632,0-10.199,4.566-10.199,10.199
	v54.056h-68.335v-54.056c0-5.633-4.566-10.199-10.199-10.199h-54.056v-68.335h54.056c5.633,0,10.199-4.566,10.199-10.199v-54.056
	h68.335v54.056c0,5.633,4.567,10.199,10.199,10.199h54.056V332.158z"/>
<path d="M375.331,416.812h-7.139c-5.632,0-10.199,4.566-10.199,10.199c0,5.633,4.567,10.199,10.199,10.199h7.139
	c5.632,0,10.199-4.566,10.199-10.199C385.53,421.378,380.963,416.812,375.331,416.812z"/>
<path d="M398.789,427.011c0,5.633,4.567,10.199,10.199,10.199h59.155c5.632,0,10.199-4.566,10.199-10.199
	c0-5.633-4.567-10.199-10.199-10.199h-59.155C403.356,416.812,398.789,421.378,398.789,427.011z"/>
<g>
</g>
<g>
</g>
<g>
</g>
<g>
</g>
<g>
</g>
<g>
</g>
<g>
</g>
<g>
</g>
<g>
</g>
<g>
</g>
<g>
</g>
<g>
</g>
<g>
</g>
<g>
</g>
<g>
</g>
</svg>
