<?xml version="1.0" encoding="iso-8859-1"?>
<!-- Generator: Adobe Illustrator 19.0.0, SVG Export Plug-In . SVG Version: 6.00 Build 0)  -->
<svg version="1.1" id="Layer_1" xmlns="http://www.w3.org/2000/svg" xmlns:xlink="http://www.w3.org/1999/xlink" x="0px" y="0px"
	 viewBox="0 0 512 512" style="enable-background:new 0 0 512 512;" xml:space="preserve">
<g>
	<rect x="16.602" y="261.875" style="fill:#FFCC75;" width="478.791" height="39.104"/>
	<rect x="16.602" y="300.979" style="fill:#FFCC75;" width="478.791" height="200.822"/>
</g>
<g>
	<path style="fill:#2F5F7D;" d="M224.821,377.609c0,34.149-27.683,61.832-61.832,61.832s-61.832-27.683-61.832-61.832
		c0-22.029,11.52-41.367,28.864-52.319c9.542-6.026,23.631-283.261,81.058-314.97c11.936-6.591-46.858,256.486-11.629,317.347
		C208.997,344.159,224.821,357.097,224.821,377.609z"/>
	<path style="fill:#2F5F7D;" d="M410.843,377.609c0,34.149-27.683,61.832-61.832,61.832s-61.832-27.683-61.832-61.832
		c0-22.029,11.52-41.367,28.864-52.319c9.542-6.026,23.631-283.261,81.058-314.97c11.936-6.591-46.858,256.486-11.628,317.347
		C395.02,344.159,410.843,357.097,410.843,377.609z"/>
</g>
<path d="M6.403,501.801c0,5.633,4.566,10.199,10.199,10.199h478.797c5.632,0,10.199-4.566,10.199-10.199V261.874
	c0-5.633-4.567-10.199-10.199-10.199H384.344c0.722-55.592,10.792-127.492,17.283-173.843c2.628-18.774,4.9-34.986,6.174-46.752
	c1.884-17.394,2.033-24.903-4.183-29.18c-3.393-2.336-7.779-2.531-11.446-0.508c-40.508,22.367-59.225,134.444-74.388,250.283
	H198.321c0.722-55.591,10.791-127.491,17.283-173.841c2.629-18.774,4.9-34.988,6.175-46.754c1.884-17.394,2.033-24.903-4.183-29.18
	c-3.395-2.336-7.78-2.53-11.446-0.508c-40.508,22.367-59.226,134.443-74.388,250.283H16.602c-5.633,0-10.199,4.566-10.199,10.199
	C6.403,261.874,6.403,501.801,6.403,501.801z M485.2,290.782h-99.314c-0.651-5.805-1.087-12.069-1.333-18.708h100.646v18.708H485.2z
	 M360.474,116.35c9.026-40.405,18.047-64.634,26.051-78.99c-1.367,10.991-3.248,24.425-5.1,37.642
	c-15.178,108.386-28.051,217.569-4.777,257.776c3.084,5.331,6.646,10.16,10.089,14.832c7.463,10.122,13.908,18.863,13.908,30.001
	c0,28.47-23.162,51.632-51.632,51.632s-51.631-23.161-51.631-51.632c0-17.827,9.013-34.162,24.11-43.694
	c6.301-3.979,7.422-9.05,14.994-67.833C341.922,223.871,349.369,166.06,360.474,116.35z M198.531,272.073h116.613
	c-0.838,6.471-1.672,12.831-2.476,18.708H199.864C199.212,284.977,198.776,278.714,198.531,272.073z M174.451,116.351
	c9.026-40.405,18.049-64.636,26.051-78.992c-1.367,10.992-3.248,24.426-5.1,37.645c-15.178,108.385-28.051,217.566-4.778,257.774
	c3.085,5.33,6.646,10.159,10.09,14.831c7.463,10.122,13.908,18.864,13.908,30.002c0,28.47-23.162,51.632-51.632,51.632
	s-51.632-23.161-51.632-51.632c0-17.827,9.013-34.162,24.111-43.694c6.3-3.979,7.421-9.05,14.993-67.831
	C155.898,223.873,163.346,166.062,174.451,116.351z M26.801,272.073H129.12c-0.838,6.471-1.672,12.831-2.476,18.708H26.801V272.073z
	 M26.801,491.602V311.18h96.777c-0.537,3.061-1.035,5.498-1.48,7.122c-19.556,13.477-31.14,35.43-31.14,59.307
	c0,39.718,32.313,72.031,72.031,72.031s72.031-32.313,72.031-72.031c0-17.845-9.503-30.734-17.887-42.106
	c-3.258-4.418-6.334-8.592-8.854-12.945c-1.816-3.137-3.342-6.971-4.618-11.378h105.94c-0.538,3.061-1.035,5.498-1.48,7.122
	c-19.556,13.477-31.139,35.43-31.139,59.307c0,39.718,32.313,72.031,72.03,72.031c39.718,0,72.031-32.313,72.031-72.031
	c0-17.843-9.503-30.733-17.886-42.105c-3.258-4.418-6.335-8.592-8.855-12.945c-1.816-3.137-3.342-6.971-4.618-11.378h95.517v180.421
	H26.801z"/>
<path d="M355.353,460.95h-5.285c-5.632,0-10.199,4.566-10.199,10.199s4.567,10.199,10.199,10.199h5.285
	c5.632,0,10.199-4.566,10.199-10.199S360.985,460.95,355.353,460.95z"/>
<path d="M467.39,460.95h-78.215c-5.632,0-10.199,4.566-10.199,10.199s4.567,10.199,10.199,10.199h78.215
	c5.632,0,10.199-4.566,10.199-10.199S473.022,460.95,467.39,460.95z"/>
<g>
</g>
<g>
</g>
<g>
</g>
<g>
</g>
<g>
</g>
<g>
</g>
<g>
</g>
<g>
</g>
<g>
</g>
<g>
</g>
<g>
</g>
<g>
</g>
<g>
</g>
<g>
</g>
<g>
</g>
</svg>
