<?xml version="1.0" encoding="iso-8859-1"?>
<!-- Generator: Adobe Illustrator 19.0.0, SVG Export Plug-In . SVG Version: 6.00 Build 0)  -->
<svg version="1.1" id="Layer_1" xmlns="http://www.w3.org/2000/svg" xmlns:xlink="http://www.w3.org/1999/xlink" x="0px" y="0px"
	 viewBox="0 0 512 512" style="enable-background:new 0 0 512 512;" xml:space="preserve">
<g>
	<path style="fill:#F2484B;" d="M352.773,10.199h-16.451v90.966h16.451c25.12,0,45.482-20.364,45.482-45.482l0,0
		C398.255,30.563,377.892,10.199,352.773,10.199z"/>
	<path style="fill:#F2484B;" d="M159.228,10.199c-25.12,0-45.482,20.364-45.482,45.482l0,0c0,25.12,20.364,45.482,45.482,45.482
		h16.451V10.199H159.228z"/>
</g>
<rect x="175.682" y="10.199" style="fill:#6DA8D6;" width="160.637" height="90.967"/>
<rect x="239.549" y="101.166" style="fill:#FFCC75;" width="32.903" height="129.673"/>
<path style="fill:#E6E6E6;" d="M220.195,249.71v252.091h71.612V249.71c-7.369-7.369-11.501-11.501-18.871-18.871h-33.871
	C231.696,238.209,227.564,242.34,220.195,249.71z"/>
<path d="M159.228,0c-30.704,0-55.683,24.979-55.683,55.683s24.979,55.683,55.683,55.683h70.122v114.766l-16.368,16.368
	c-1.912,1.913-2.987,4.507-2.987,7.212v252.091c0,5.632,4.566,10.199,10.199,10.199h71.612c5.632,0,10.199-4.567,10.199-10.199
	V249.71c0-2.705-1.075-5.298-2.987-7.212l-16.368-16.368V111.364h70.122c30.704,0,55.683-24.979,55.683-55.683S383.475,0,352.773,0
	H159.228z M123.944,55.683c0-19.455,15.828-35.284,35.284-35.284h6.252v70.567h-6.252C139.772,90.966,123.944,75.138,123.944,55.683
	z M185.879,90.966V20.398h140.243v70.567H185.879z M281.607,491.602h-51.213V253.936l12.896-12.897h25.421l12.897,12.897V491.602z
	 M262.253,220.64h-12.504V111.364h12.504V220.64z M352.773,90.966h-6.252V20.398h6.252c19.455,0,35.284,15.829,35.284,35.284
	S372.228,90.966,352.773,90.966z"/>
<path d="M254.51,365.353v71.609c0,5.632,4.567,10.199,10.199,10.199c5.632,0,10.199-4.567,10.199-10.199v-71.609
	c0-5.632-4.567-10.199-10.199-10.199C259.078,355.154,254.51,359.72,254.51,365.353z"/>
<path d="M264.71,457.73c-5.632,0-10.199,4.567-10.199,10.199v5.807c0,5.632,4.567,10.199,10.199,10.199
	c5.632,0,10.199-4.567,10.199-10.199v-5.807C274.909,462.297,270.343,457.73,264.71,457.73z"/>
<g>
</g>
<g>
</g>
<g>
</g>
<g>
</g>
<g>
</g>
<g>
</g>
<g>
</g>
<g>
</g>
<g>
</g>
<g>
</g>
<g>
</g>
<g>
</g>
<g>
</g>
<g>
</g>
<g>
</g>
</svg>
