<?xml version="1.0" encoding="iso-8859-1"?>
<!-- Generator: Adobe Illustrator 19.0.0, SVG Export Plug-In . SVG Version: 6.00 Build 0)  -->
<svg version="1.1" id="Layer_1" xmlns="http://www.w3.org/2000/svg" xmlns:xlink="http://www.w3.org/1999/xlink" x="0px" y="0px"
	 viewBox="0 0 512 512" style="enable-background:new 0 0 512 512;" xml:space="preserve">
<path style="fill:#E6E6E6;" d="M353.682,443.839H158.319c-25.784,0-46.686-20.902-46.686-46.686V56.885
	c0-25.784,20.902-46.686,46.686-46.686h195.364c25.784,0,46.686,20.902,46.686,46.686v340.268
	C400.368,422.938,379.466,443.839,353.682,443.839z"/>
<path style="fill:#F2484B;" d="M209.846,220.579c-25.902,0-41.852,10.204-51.401,20.664v144.635h195.111V163.355
	C267.903,170.053,259.455,220.579,209.846,220.579z"/>
<path style="fill:#E6E6E6;" d="M209.846,220.579c49.61,0,58.057-50.525,143.71-57.225V92.848H158.445v148.393
	C167.994,230.783,183.944,220.579,209.846,220.579z"/>
<path d="M353.682,0H158.319c-31.367,0-56.885,25.518-56.885,56.885v340.269c0,31.367,25.518,56.885,56.885,56.885h53.403v47.762
	c0,5.633,4.566,10.199,10.199,10.199s10.199-4.566,10.199-10.199v-47.763h47.761v47.763c0,5.633,4.567,10.199,10.199,10.199
	c5.632,0,10.199-4.566,10.199-10.199v-47.763h53.403c31.367,0,56.884-25.518,56.884-56.885V56.885
	C410.567,25.518,385.049,0,353.682,0z M390.169,397.153c0,20.119-16.368,36.487-36.486,36.487H158.319
	c-20.119,0-36.487-16.368-36.487-36.487V56.885c0-20.119,16.368-36.487,36.487-36.487h195.364c20.119,0,36.486,16.368,36.486,36.487
	v340.268H390.169z"/>
<path d="M234.533,62.259h42.935c5.632,0,10.199-4.566,10.199-10.199s-4.567-10.199-10.199-10.199h-42.935
	c-5.633,0-10.199,4.566-10.199,10.199S228.9,62.259,234.533,62.259z"/>
<path d="M363.755,92.848c0-5.633-4.567-10.199-10.199-10.199H158.445c-5.633,0-10.199,4.566-10.199,10.199v293.029
	c0,5.633,4.566,10.199,10.199,10.199h195.111c5.632,0,10.199-4.566,10.199-10.199V92.848z M168.644,103.048h174.712v51.074
	l0.001,0.002c-44.155,5.365-67.853,22.465-87.135,36.383c-15.984,11.537-27.534,19.873-46.378,19.873
	c-17.508,0-30.993,4.27-41.205,9.971l0.004-0.008L168.644,103.048L168.644,103.048z M343.357,375.678H168.644V245.405
	c10.282-9.711,24.12-14.628,41.201-14.628c25.436,0,41.408-11.527,58.315-23.732c17.832-12.871,37.838-27.312,75.197-32.36V375.678z
	"/>
<path d="M260.294,404.659h-7.514c-5.633,0-10.199,4.566-10.199,10.199s4.566,10.199,10.199,10.199h7.514
	c5.632,0,10.199-4.566,10.199-10.199S265.926,404.659,260.294,404.659z"/>
<path d="M353.556,404.659H288.2c-5.632,0-10.199,4.566-10.199,10.199s4.567,10.199,10.199,10.199h65.355
	c5.632,0,10.199-4.566,10.199-10.199S359.189,404.659,353.556,404.659z"/>
<g>
</g>
<g>
</g>
<g>
</g>
<g>
</g>
<g>
</g>
<g>
</g>
<g>
</g>
<g>
</g>
<g>
</g>
<g>
</g>
<g>
</g>
<g>
</g>
<g>
</g>
<g>
</g>
<g>
</g>
</svg>
