<?xml version="1.0" encoding="iso-8859-1"?>
<!-- Generator: Adobe Illustrator 19.0.0, SVG Export Plug-In . SVG Version: 6.00 Build 0)  -->
<svg version="1.1" id="Layer_1" xmlns="http://www.w3.org/2000/svg" xmlns:xlink="http://www.w3.org/1999/xlink" x="0px" y="0px"
	 viewBox="0 0 512 512" style="enable-background:new 0 0 512 512;" xml:space="preserve">
<circle style="fill:#E6E6E6;" cx="256" cy="256" r="245.801"/>
<g>
	<circle style="fill:#FFCC75;" cx="256" cy="256" r="41.929"/>
	<circle style="fill:#FFCC75;" cx="256" cy="114.853" r="55.239"/>
	<circle style="fill:#FFCC75;" cx="133.763" cy="185.432" r="55.239"/>
	<circle style="fill:#FFCC75;" cx="133.763" cy="326.568" r="55.239"/>
	<circle style="fill:#FFCC75;" cx="256" cy="397.147" r="55.239"/>
	<circle style="fill:#FFCC75;" cx="378.237" cy="326.568" r="55.239"/>
	<circle style="fill:#FFCC75;" cx="378.237" cy="185.432" r="55.239"/>
</g>
<path d="M256,512c-68.38,0-132.667-26.628-181.02-74.981C26.628,388.667,0,324.381,0,256S26.628,123.333,74.98,74.981
	C123.333,26.628,187.62,0,256,0s132.667,26.628,181.02,74.981C485.372,123.333,512,187.619,512,256s-26.628,132.667-74.98,181.019
	C388.667,485.372,324.38,512,256,512z M256,20.398C126.089,20.398,20.398,126.089,20.398,256S126.089,491.602,256,491.602
	S491.602,385.911,491.602,256S385.911,20.398,256,20.398z"/>
<path d="M256,308.128c-28.743,0-52.128-23.385-52.128-52.128s23.385-52.128,52.128-52.128s52.128,23.385,52.128,52.128
	C308.128,284.743,284.743,308.128,256,308.128z M256,224.27c-17.496,0-31.73,14.234-31.73,31.73s14.234,31.73,31.73,31.73
	s31.73-14.234,31.73-31.73C287.73,238.504,273.496,224.27,256,224.27z"/>
<path d="M256,180.293c-36.083,0-65.438-29.355-65.438-65.438S219.917,49.417,256,49.417s65.438,29.355,65.438,65.438
	S292.083,180.293,256,180.293z M256,69.816c-24.835,0-45.04,20.206-45.04,45.04s20.205,45.04,45.04,45.04
	c24.835,0,45.04-20.206,45.04-45.04S280.835,69.816,256,69.816z"/>
<path d="M133.656,250.853c-11.096,0-22.33-2.82-32.61-8.755c-15.138-8.739-25.965-22.85-30.49-39.734
	c-4.524-16.884-2.202-34.519,6.538-49.657c18.04-31.248,58.142-41.993,89.391-23.951c15.138,8.739,25.965,22.85,30.49,39.734
	s2.202,34.519-6.538,49.657C178.331,239.115,156.287,250.851,133.656,250.853z M133.841,140.396
	c-15.578,0-30.748,8.078-39.081,22.511c-6.015,10.42-7.613,22.557-4.5,34.179c3.114,11.621,10.566,21.333,20.985,27.347
	c21.507,12.418,49.108,5.023,61.527-16.485c6.015-10.42,7.613-22.557,4.5-34.179c-3.114-11.621-10.566-21.333-20.986-27.347l0,0
	C149.211,142.338,141.476,140.396,133.841,140.396z"/>
<path d="M133.875,391.998c-22.634,0-44.674-11.736-56.781-32.706c-8.74-15.138-11.061-32.773-6.538-49.657
	s15.352-30.995,30.491-39.734l0,0c31.248-18.04,71.35-7.297,89.391,23.951c8.74,15.138,11.061,32.773,6.538,49.657
	c-4.524,16.884-15.352,30.995-30.49,39.734C156.206,389.177,144.968,391.997,133.875,391.998z M133.69,281.541
	c-7.636,0-15.369,1.941-22.444,6.026l0,0c-10.418,6.014-17.871,15.727-20.985,27.347c-3.114,11.622-1.516,23.759,4.5,34.179
	c12.418,21.508,40.018,28.901,61.526,16.485c10.418-6.014,17.871-15.727,20.986-27.347c3.114-11.622,1.516-23.759-4.5-34.179
	C164.439,289.62,149.267,281.541,133.69,281.541z"/>
<path d="M256,462.583c-36.083,0-65.438-29.355-65.438-65.438s29.355-65.438,65.438-65.438s65.438,29.355,65.438,65.438
	S292.083,462.583,256,462.583z M256,352.105c-24.835,0-45.04,20.206-45.04,45.04s20.205,45.04,45.04,45.04
	c24.835,0,45.04-20.206,45.04-45.04S280.835,352.105,256,352.105z"/>
<path d="M378.125,391.998c-11.096,0-22.33-2.82-32.61-8.755c-15.138-8.739-25.965-22.85-30.49-39.734
	c-4.524-16.884-2.202-34.519,6.538-49.657c18.042-31.248,58.144-41.991,89.391-23.951c15.138,8.739,25.965,22.85,30.49,39.734
	c4.524,16.884,2.202,34.519-6.538,49.657C422.8,380.26,400.757,391.996,378.125,391.998z M378.309,281.541
	c-15.578,0-30.748,8.078-39.08,22.511c-6.016,10.42-7.613,22.557-4.5,34.179c3.114,11.621,10.566,21.333,20.986,27.347l0,0
	c21.507,12.42,49.108,5.022,61.526-16.485c6.016-10.419,7.613-22.557,4.5-34.179c-3.114-11.621-10.566-21.333-20.985-27.347
	C393.68,283.482,385.945,281.541,378.309,281.541z"/>
<path d="M378.344,250.853c-22.633,0-44.674-11.736-56.78-32.706c-8.74-15.138-11.061-32.773-6.538-49.657
	s15.352-30.995,30.49-39.734c31.249-18.042,71.35-7.297,89.391,23.951c8.74,15.138,11.061,32.773,6.538,49.657
	s-15.352,30.995-30.491,39.734l0,0C400.676,248.032,389.437,250.853,378.344,250.853z M378.159,140.396
	c-7.637,0-15.369,1.941-22.444,6.026c-10.418,6.014-17.871,15.727-20.986,27.347c-3.114,11.622-1.516,23.759,4.5,34.179
	c12.418,21.508,40.018,28.904,61.526,16.485l0,0c10.418-6.014,17.871-15.727,20.985-27.347c3.114-11.622,1.516-23.759-4.5-34.179
	C408.907,148.475,393.736,140.396,378.159,140.396z"/>
<path d="M306.988,477.426c-4.606,0-8.784-3.141-9.908-7.816c-1.318-5.477,2.054-10.986,7.531-12.302
	c5.875-1.414,11.759-3.108,17.49-5.036c5.341-1.799,11.123,1.074,12.92,6.412s-1.074,11.123-6.412,12.92
	c-6.3,2.12-12.769,3.983-19.228,5.537C308.58,477.334,307.778,477.426,306.988,477.426z"/>
<path d="M355.961,459.135c-3.686,0-7.246-2.004-9.061-5.502c-2.595-4.999-0.647-11.156,4.353-13.751
	c20.747-10.771,39.421-24.89,55.502-41.966c3.861-4.101,10.315-4.294,14.418-0.433c4.101,3.862,4.294,10.316,0.432,14.418
	c-17.658,18.751-38.165,34.256-60.953,46.086C359.151,458.766,357.544,459.135,355.961,459.135z"/>
<g>
</g>
<g>
</g>
<g>
</g>
<g>
</g>
<g>
</g>
<g>
</g>
<g>
</g>
<g>
</g>
<g>
</g>
<g>
</g>
<g>
</g>
<g>
</g>
<g>
</g>
<g>
</g>
<g>
</g>
</svg>
