<?xml version="1.0" encoding="iso-8859-1"?>
<!-- Generator: Adobe Illustrator 19.0.0, SVG Export Plug-In . SVG Version: 6.00 Build 0)  -->
<svg version="1.1" id="Layer_1" xmlns="http://www.w3.org/2000/svg" xmlns:xlink="http://www.w3.org/1999/xlink" x="0px" y="0px"
	 viewBox="0 0 512 512" style="enable-background:new 0 0 512 512;" xml:space="preserve">
<path style="fill:#E6E6E6;" d="M474.425,501.801H37.575V228.624c0-120.633,97.792-218.425,218.425-218.425l0,0
	c120.632,0,218.425,97.792,218.425,218.425V501.801z"/>
<g>
	<path style="fill:#F2484B;" d="M391.947,195.746c23.752,0,39.496-24.76,29.289-46.207C391.858,87.812,328.912,45.147,256,45.147
		S120.142,87.812,90.764,149.539c-10.207,21.447,5.536,46.207,29.289,46.207H391.947z"/>
	<path style="fill:#F2484B;" d="M118.565,257.098c-23.553,0-39.129,24.303-29.482,45.788
		c28.6,63.691,92.574,108.049,166.917,108.049s138.318-44.357,166.917-108.049c9.647-21.486-5.929-45.788-29.482-45.788
		L118.565,257.098L118.565,257.098z"/>
</g>
<path style="fill:#FFCC75;" d="M348.029,228.042c0-50.827-41.203-92.029-92.029-92.029s-92.029,41.203-92.029,92.029
	c0,16.529,4.38,32.025,12.008,45.432h160.044C343.65,260.066,348.029,244.57,348.029,228.042z"/>
<path style="fill:#E6E6E6;" d="M146.496,273.474v41.937h21.812c11.836,37.154,46.615,64.071,87.692,64.071
	s75.856-26.918,87.692-64.071h21.812v-41.937H146.496z"/>
<path d="M417.661,66.962C374.48,23.78,317.068,0,256,0S137.52,23.78,94.338,66.962c-43.181,43.181-66.962,100.594-66.962,161.661
	v273.178c0,5.632,4.566,10.199,10.199,10.199h436.85c5.632,0,10.199-4.567,10.199-10.199V228.623
	C484.624,167.556,460.844,110.143,417.661,66.962z M464.226,491.602H47.774V228.623c0-114.815,93.409-208.225,208.226-208.225
	s208.226,93.409,208.226,208.225V491.602z"/>
<path d="M360.468,65.623C329.33,45.556,293.206,34.949,256,34.949s-73.33,10.607-104.468,30.674
	c-30.314,19.537-54.512,47.039-69.977,79.532c-6.292,13.221-5.374,28.516,2.457,40.916c7.86,12.444,21.333,19.873,36.04,19.873
	h36.131c-1.575,7.119-2.412,14.511-2.412,22.097c0,6.345,0.604,12.658,1.77,18.857h-36.975c-14.488,0-27.835,7.257-35.7,19.411
	c-7.905,12.218-9.059,27.451-3.086,40.754C110.894,376.36,180.066,421.135,256,421.135s145.105-44.776,176.221-114.071
	c5.974-13.303,4.82-28.537-3.086-40.754c-7.866-12.155-21.211-19.411-35.699-19.411H356.46c1.165-6.199,1.77-12.513,1.77-18.857
	c0-7.585-0.837-14.978-2.412-22.097h36.131c14.708,0,28.181-7.429,36.041-19.873c7.831-12.399,8.749-27.695,2.457-40.916
	C414.98,112.661,390.782,85.159,360.468,65.623z M355.305,283.673v21.539h-11.613c-4.441,0-8.37,2.872-9.718,7.104
	c-10.856,34.075-42.191,56.968-77.974,56.968c-30.897,0-58.466-17.077-72.41-43.673h117.843c5.632,0,10.199-4.567,10.199-10.199
	c0-5.632-4.567-10.199-10.199-10.199H156.695v-21.539H355.305z M337.83,228.042c0,12.204-2.745,24.271-7.98,35.233H182.15
	c-5.235-10.962-7.981-23.029-7.981-35.233c0-45.121,36.709-81.83,81.83-81.83S337.83,182.921,337.83,228.042z M412.01,277.394
	c4.192,6.479,4.777,14.247,1.603,21.314C385.782,360.689,323.915,400.737,256,400.737S126.218,360.689,98.387,298.708
	c-3.174-7.068-2.59-14.837,1.603-21.314c4.152-6.416,10.922-10.095,18.575-10.095h19.829c-1.31,1.716-2.096,3.851-2.096,6.177
	v41.937c0,5.632,4.566,10.199,10.199,10.199h14.643c15.469,38.619,52.693,64.071,94.861,64.071
	c42.167,0,79.391-25.452,94.861-64.071h14.643c5.632,0,10.199-4.567,10.199-10.199v-41.937c0-2.324-0.786-4.461-2.096-6.177h19.828
	C401.088,267.298,407.857,270.978,412.01,277.394z M410.741,175.179c-4.1,6.492-11.125,10.367-18.794,10.367h-42.979
	c-16.161-35.216-51.753-59.734-92.968-59.734s-76.807,24.519-92.968,59.734h-42.979c-7.668,0-14.694-3.876-18.793-10.367
	c-4.133-6.544-4.601-14.292-1.286-21.257C128.473,94.04,189.717,55.347,256,55.347s127.527,38.694,156.026,98.574
	C415.341,160.888,414.873,168.637,410.741,175.179z"/>
<path d="M271.144,83.875h-30.289c-5.633,0-10.199,4.567-10.199,10.199s4.566,10.199,10.199,10.199h30.289
	c5.632,0,10.199-4.567,10.199-10.199S276.777,83.875,271.144,83.875z"/>
<path d="M313.082,454.324h-12.813c-5.632,0-10.199,4.567-10.199,10.199s4.567,10.199,10.199,10.199h12.813
	c5.632,0,10.199-4.567,10.199-10.199S318.714,454.324,313.082,454.324z"/>
<path d="M353.854,454.324c-5.632,0-10.199,4.567-10.199,10.199s4.567,10.199,10.199,10.199h79.215
	c5.632,0,10.199-4.567,10.199-10.199s-4.567-10.199-10.199-10.199H353.854z"/>
<g>
</g>
<g>
</g>
<g>
</g>
<g>
</g>
<g>
</g>
<g>
</g>
<g>
</g>
<g>
</g>
<g>
</g>
<g>
</g>
<g>
</g>
<g>
</g>
<g>
</g>
<g>
</g>
<g>
</g>
</svg>
