<?xml version="1.0" encoding="iso-8859-1"?>
<!-- Generator: Adobe Illustrator 19.0.0, SVG Export Plug-In . SVG Version: 6.00 Build 0)  -->
<svg version="1.1" id="Layer_1" xmlns="http://www.w3.org/2000/svg" xmlns:xlink="http://www.w3.org/1999/xlink" x="0px" y="0px"
	 viewBox="0 0 512 512" style="enable-background:new 0 0 512 512;" xml:space="preserve">
<rect x="11.215" y="10.199" style="fill:#E6E6E6;" width="489.572" height="428.693"/>
<rect x="45.763" y="44.734" style="fill:#F2484B;" width="420.472" height="300.713"/>
<rect x="45.763" y="44.734" style="fill:#50A5DC;" width="420.472" height="300.713"/>
<polygon style="fill:#F2484B;" points="422.575,110.86 393.047,110.86 393.047,81.332 355.009,81.332 355.009,110.86 
	325.479,110.86 325.479,148.898 355.009,148.898 355.009,178.427 393.047,178.427 393.047,148.898 422.575,148.898 "/>
<rect x="193.03" y="438.892" style="fill:#E6E6E6;" width="125.95" height="62.909"/>
<path d="M318.974,512c5.633,0,10.199-4.566,10.199-10.199v-52.709h171.612c5.633,0,10.199-4.566,10.199-10.199V10.199
	C510.984,4.566,506.418,0,500.785,0H11.215C5.582,0,1.016,4.566,1.016,10.199v428.693c0,5.633,4.566,10.199,10.199,10.199h171.612
	v42.51h-58.869c-5.633,0-10.199,4.566-10.199,10.199S118.325,512,123.958,512H318.974z M308.775,491.602h-105.55v-42.51h105.548
	v42.51H308.775z M21.414,428.693V20.398h469.172v408.295H21.414z"/>
<path d="M45.764,355.646h420.472c5.633,0,10.199-4.566,10.199-10.199V44.733c0-5.633-4.566-10.199-10.199-10.199H45.764
	c-5.633,0-10.199,4.566-10.199,10.199v300.714C35.565,351.08,40.131,355.646,45.764,355.646z M55.963,54.932h400.074v280.316H55.963
	V54.932z"/>
<path d="M422.575,100.661h-19.33v-19.33c0-5.633-4.566-10.199-10.199-10.199h-38.038c-5.633,0-10.199,4.566-10.199,10.199v19.331
	h-19.33c-5.633,0-10.199,4.566-10.199,10.199v38.037c0,5.633,4.566,10.199,10.199,10.199h19.33v19.331
	c0,5.633,4.566,10.199,10.199,10.199h38.038c5.633,0,10.199-4.566,10.199-10.199v-19.331h19.331c5.633,0,10.199-4.566,10.199-10.199
	v-38.037C432.775,105.227,428.208,100.661,422.575,100.661z M412.376,138.699h-19.33c-5.633,0-10.199,4.566-10.199,10.199v19.331
	h-17.64v-19.331c0-5.633-4.566-10.199-10.199-10.199h-19.329V121.06h19.329c5.633,0,10.199-4.566,10.199-10.199V91.531h17.64v19.331
	c0,5.633,4.566,10.199,10.199,10.199h19.331v17.639H412.376z"/>
<path d="M281.547,79.257H93.487c-5.633,0-10.199,4.566-10.199,10.199c0,5.633,4.566,10.199,10.199,10.199h188.06
	c5.633,0,10.199-4.566,10.199-10.199C291.746,83.823,287.18,79.257,281.547,79.257z"/>
<path d="M281.547,143.648H93.487c-5.633,0-10.199,4.566-10.199,10.199s4.566,10.199,10.199,10.199h188.06
	c5.633,0,10.199-4.566,10.199-10.199S287.18,143.648,281.547,143.648z"/>
<path d="M281.547,208.038H93.487c-5.633,0-10.199,4.566-10.199,10.199c0,5.633,4.566,10.199,10.199,10.199h188.06
	c5.633,0,10.199-4.566,10.199-10.199C291.746,212.604,287.18,208.038,281.547,208.038z"/>
<path d="M281.392,275.289H250.73c-5.633,0-10.199,4.566-10.199,10.199c0,5.633,4.566,10.199,10.199,10.199h30.662
	c5.633,0,10.199-4.566,10.199-10.199C291.591,279.855,287.025,275.289,281.392,275.289z"/>
<path d="M400.23,491.602h-17.267c-5.633,0-10.199,4.566-10.199,10.199S377.33,512,382.963,512h17.267
	c5.633,0,10.199-4.566,10.199-10.199S405.863,491.602,400.23,491.602z"/>
<path d="M351.477,491.602h-3.048c-5.633,0-10.199,4.566-10.199,10.199S342.796,512,348.429,512h3.048
	c5.633,0,10.199-4.566,10.199-10.199S357.11,491.602,351.477,491.602z"/>
<g>
</g>
<g>
</g>
<g>
</g>
<g>
</g>
<g>
</g>
<g>
</g>
<g>
</g>
<g>
</g>
<g>
</g>
<g>
</g>
<g>
</g>
<g>
</g>
<g>
</g>
<g>
</g>
<g>
</g>
</svg>
