<?xml version="1.0" encoding="iso-8859-1"?>
<!-- Generator: Adobe Illustrator 19.0.0, SVG Export Plug-In . SVG Version: 6.00 Build 0)  -->
<svg version="1.1" id="Layer_1" xmlns="http://www.w3.org/2000/svg" xmlns:xlink="http://www.w3.org/1999/xlink" x="0px" y="0px"
	 viewBox="0 0 512.001 512.001" style="enable-background:new 0 0 512.001 512.001;" xml:space="preserve">
<path style="fill:#FFCC75;" d="M306.855,222.097H205.145c-27.566,0-49.914,22.347-49.914,49.914v179.877
	c0,27.566,22.347,49.914,49.914,49.914h101.711c27.566,0,49.914-22.348,49.914-49.914V272.01
	C356.769,244.443,334.422,222.097,306.855,222.097z"/>
<g>
	<polygon style="fill:#E6E6E6;" points="300.528,138.28 212.346,138.28 207.106,222.097 304.893,222.097 	"/>
	<polygon style="fill:#E6E6E6;" points="273.384,10.199 239.479,10.199 224.49,106.259 287.51,106.259 	"/>
	<polygon style="fill:#E6E6E6;" points="351.989,138.28 161.893,138.28 150.601,106.259 361.4,106.259 	"/>
</g>
<path d="M351.989,148.478c4.525,0,8.509-2.982,9.785-7.324l9.411-32.02c0.907-3.082,0.306-6.413-1.62-8.988
	c-1.926-2.572-4.952-4.088-8.165-4.088h-65.08L283.474,8.715C282.738,3.709,278.444,0,273.384,0h-33.903
	c-5.026,0-9.303,3.662-10.077,8.626L215.76,96.06h-65.159c-3.31,0-6.413,1.605-8.326,4.308c-1.912,2.701-2.394,6.162-1.293,9.284
	l11.293,32.02c1.439,4.079,5.293,6.807,9.619,6.807h39.595l-3.995,63.924c-29.544,3.773-52.462,29.055-52.462,59.608v179.877
	c0,33.146,26.966,60.112,60.112,60.112h101.712c33.146,0,60.112-26.966,60.112-60.112V272.01c0-30.52-22.868-55.782-52.366-59.597
	l-3.33-63.936h40.716V148.478z M248.211,20.398h16.364l11.126,75.662h-39.297L248.211,20.398z M347.772,116.459l-3.416,11.622
	H169.111l-4.099-11.622C165.012,116.459,347.772,116.459,347.772,116.459z M306.855,232.296c21.899,0,39.714,17.816,39.714,39.714
	v179.877c0,21.899-17.816,39.714-39.714,39.714H205.144c-21.899,0-39.714-17.816-39.714-39.714V272.01
	c0-21.899,17.816-39.714,39.714-39.714L306.855,232.296L306.855,232.296z M294.149,211.898h-76.186l3.963-63.42h68.919
	L294.149,211.898z"/>
<path d="M299.329,464.291h-48.98c-5.633,0-10.199,4.567-10.199,10.199c0,5.632,4.566,10.199,10.199,10.199h48.98
	c5.633,0,10.199-4.567,10.199-10.199C309.529,468.858,304.962,464.291,299.329,464.291z"/>
<path d="M219.271,464.291h-6.6c-5.633,0-10.199,4.567-10.199,10.199c0,5.632,4.566,10.199,10.199,10.199h6.6
	c5.633,0,10.199-4.567,10.199-10.199C229.47,468.858,224.904,464.291,219.271,464.291z"/>
<g>
</g>
<g>
</g>
<g>
</g>
<g>
</g>
<g>
</g>
<g>
</g>
<g>
</g>
<g>
</g>
<g>
</g>
<g>
</g>
<g>
</g>
<g>
</g>
<g>
</g>
<g>
</g>
<g>
</g>
</svg>
