<?xml version="1.0" encoding="iso-8859-1"?>
<!-- Generator: Adobe Illustrator 19.0.0, SVG Export Plug-In . SVG Version: 6.00 Build 0)  -->
<svg version="1.1" id="Layer_1" xmlns="http://www.w3.org/2000/svg" xmlns:xlink="http://www.w3.org/1999/xlink" x="0px" y="0px"
	 viewBox="0 0 512 512" style="enable-background:new 0 0 512 512;" xml:space="preserve">
<rect x="162.095" y="99.952" style="fill:#E6E6E6;" width="75.474" height="76.494"/>
<g>
	<polygon style="fill:#F2484B;" points="274.283,99.952 128.434,99.952 128.434,10.199 274.283,10.199 303.331,31.815 
		303.331,78.534 	"/>
	<polygon style="fill:#F2484B;" points="303.331,32.637 384.585,43.857 384.585,67.91 303.331,77.715 	"/>
	<rect x="127.418" y="176.446" style="fill:#F2484B;" width="144.829" height="44.876"/>
</g>
<rect x="127.418" y="221.323" style="fill:#E6E6E6;" width="144.829" height="280.478"/>
<path d="M117.215,501.801c0,5.632,4.566,10.199,10.199,10.199h144.829c5.632,0,10.199-4.567,10.199-10.199V176.446
	c0-5.632-4.567-10.199-10.199-10.199h-24.478v-56.096h26.518c2.179,0,4.3-0.698,6.053-1.99l28.216-20.804l77.256-9.321
	c5.122-0.617,8.977-4.965,8.977-10.126V43.857c0-5.093-3.758-9.407-8.804-10.103l-77.306-10.674L280.372,2.017
	C278.611,0.707,276.475,0,274.283,0H128.434c-5.633,0-10.199,4.567-10.199,10.199v89.753c0,5.632,4.566,10.199,10.199,10.199h23.458
	v56.096h-24.478c-5.633,0-10.199,4.567-10.199,10.199C117.215,176.446,117.215,501.801,117.215,501.801z M262.044,491.602h-124.43
	v-260.08h124.43V491.602z M262.044,186.645v24.478h-124.43v-24.478H262.044z M227.366,166.247h-55.076v-56.096h55.076V166.247z
	 M138.633,89.753V20.398h132.271l22.228,16.541v36.443l-22.204,16.371H138.633z M374.386,58.868L313.53,66.21V44.342l60.856,8.402
	V58.868z"/>
<path d="M175.35,483.442h6.12c5.633,0,10.199-4.567,10.199-10.199s-4.566-10.199-10.199-10.199h-6.12
	c-5.633,0-10.199,4.567-10.199,10.199S169.717,483.442,175.35,483.442z"/>
<path d="M212.067,483.442h27.538c5.633,0,10.199-4.567,10.199-10.199s-4.566-10.199-10.199-10.199h-27.538
	c-5.633,0-10.199,4.567-10.199,10.199S206.434,483.442,212.067,483.442z"/>
<g>
</g>
<g>
</g>
<g>
</g>
<g>
</g>
<g>
</g>
<g>
</g>
<g>
</g>
<g>
</g>
<g>
</g>
<g>
</g>
<g>
</g>
<g>
</g>
<g>
</g>
<g>
</g>
<g>
</g>
</svg>
