<?xml version="1.0" encoding="iso-8859-1"?>
<!-- Generator: Adobe Illustrator 19.0.0, SVG Export Plug-In . SVG Version: 6.00 Build 0)  -->
<svg version="1.1" id="Layer_1" xmlns="http://www.w3.org/2000/svg" xmlns:xlink="http://www.w3.org/1999/xlink" x="0px" y="0px"
	 viewBox="0 0 512 512" style="enable-background:new 0 0 512 512;" xml:space="preserve">
<rect x="110.499" y="10.199" style="fill:#E6E6E6;" width="290.993" height="90.385"/>
<g>
	<rect x="139.159" y="392.68" style="fill:#FFCC75;" width="233.674" height="109.121"/>
	<path style="fill:#FFCC75;" d="M372.839,152.389c0-7.914,6.415-14.329,14.329-14.329c7.914,0,14.329-6.415,14.329-14.329v-23.148
		H110.504v23.147c0,7.914,6.415,14.329,14.329,14.329c7.914,0,14.329,6.415,14.329,14.329v44.09h233.676v-44.089H372.839z"/>
</g>
<rect x="139.159" y="196.477" style="fill:#6DA8D6;" width="233.674" height="196.202"/>
<path d="M128.964,501.801c0,5.632,4.566,10.199,10.199,10.199h233.676c5.633,0,10.199-4.567,10.199-10.199V152.388
	c0-2.276,1.852-4.13,4.13-4.13c13.525,0,24.528-11.004,24.528-24.529V10.199C411.696,4.567,407.13,0,401.497,0H110.503
	c-5.633,0-10.199,4.567-10.199,10.199v113.53c0,13.525,11.004,24.529,24.528,24.529c2.277,0,4.13,1.852,4.13,4.13v349.412H128.964z
	 M120.703,20.398h270.595v69.986H354.38V48.778c0-5.632-4.566-10.199-10.199-10.199s-10.199,4.567-10.199,10.199v41.607h-66.679
	V48.778c0-5.632-4.566-10.199-10.199-10.199c-5.633,0-10.199,4.567-10.199,10.199v41.607h-68.883V48.778
	c0-5.632-4.566-10.199-10.199-10.199s-10.199,4.567-10.199,10.199v41.607h-36.918V20.398H120.703z M362.64,382.479H149.362V206.679
	H362.64V382.479z M362.64,491.602H149.362v-88.724H362.64V491.602z M391.299,123.73c0,2.277-1.852,4.131-4.13,4.131
	c-13.525,0-24.528,11.003-24.528,24.528v33.891H149.362v-33.891c0-13.525-11.004-24.528-24.528-24.528
	c-2.277,0-4.13-1.852-4.13-4.131v-12.947H391.3v12.947H391.299z"/>
<path d="M187.662,277.223h136.678c5.633,0,10.199-4.567,10.199-10.199c0-5.632-4.566-10.199-10.199-10.199H187.662
	c-5.633,0-10.199,4.567-10.199,10.199C177.463,272.655,182.029,277.223,187.662,277.223z"/>
<path d="M324.34,316.345h-80.465c-5.633,0-10.199,4.567-10.199,10.199c0,5.632,4.566,10.199,10.199,10.199h80.465
	c5.633,0,10.199-4.567,10.199-10.199C334.539,320.912,329.973,316.345,324.34,316.345z"/>
<path d="M187.662,336.743h9.921c5.633,0,10.199-4.567,10.199-10.199c0-5.632-4.566-10.199-10.199-10.199h-9.921
	c-5.633,0-10.199,4.567-10.199,10.199C177.463,332.176,182.029,336.743,187.662,336.743z"/>
<g>
</g>
<g>
</g>
<g>
</g>
<g>
</g>
<g>
</g>
<g>
</g>
<g>
</g>
<g>
</g>
<g>
</g>
<g>
</g>
<g>
</g>
<g>
</g>
<g>
</g>
<g>
</g>
<g>
</g>
</svg>
