<?xml version="1.0" encoding="iso-8859-1"?>
<!-- Generator: Adobe Illustrator 19.0.0, SVG Export Plug-In . SVG Version: 6.00 Build 0)  -->
<svg version="1.1" id="Layer_1" xmlns="http://www.w3.org/2000/svg" xmlns:xlink="http://www.w3.org/1999/xlink" x="0px" y="0px"
	 viewBox="0 0 512 512" style="enable-background:new 0 0 512 512;" xml:space="preserve">
<path style="fill:#FFCC75;" d="M256,501.801L256,501.801c-62.854,0-113.807-50.953-113.807-113.806v-263.99
	c0-62.853,50.953-113.806,113.807-113.806l0,0c62.854,0,113.806,50.953,113.806,113.806v263.989
	C369.806,450.848,318.854,501.801,256,501.801z"/>
<rect x="188.961" y="152.59" style="fill:#E6E6E6;" width="134.079" height="206.83"/>
<path d="M256,512c-68.378,0-124.006-55.628-124.006-124.005v-263.99C131.994,55.628,187.623,0,256,0s124.006,55.628,124.006,124.005
	v263.99C380.006,456.372,324.378,512,256,512z M256,20.398c-57.13,0-103.608,46.478-103.608,103.607v263.99
	c0,57.129,46.478,103.607,103.608,103.607s103.608-46.478,103.608-103.607v-263.99C359.608,66.876,313.13,20.398,256,20.398z"/>
<path d="M323.037,369.613H188.963c-5.632,0-10.199-4.567-10.199-10.199V152.586c0-5.632,4.567-10.199,10.199-10.199h134.074
	c5.632,0,10.199,4.567,10.199,10.199v206.827C333.237,365.046,328.669,369.613,323.037,369.613z M199.162,349.215h113.675V162.785
	H199.162V349.215z"/>
<path d="M256,476.664c-5.632,0-10.199-4.567-10.199-10.199c0-5.632,4.567-10.199,10.199-10.199c4.115,0,8.239-0.36,12.257-1.07
	c5.547-0.975,10.838,2.723,11.818,8.27c0.98,5.546-2.723,10.838-8.27,11.818C266.619,476.199,261.302,476.664,256,476.664z"/>
<path d="M303.505,461.073c-3.129,0-6.217-1.435-8.218-4.147c-3.342-4.534-2.377-10.919,2.156-14.262
	c11.909-8.779,20.889-21.343,25.289-35.375c1.685-5.375,7.415-8.365,12.783-6.681c5.376,1.685,8.366,7.409,6.681,12.783
	c-5.685,18.134-17.279,34.36-32.648,45.691C307.728,460.427,305.608,461.073,303.505,461.073z"/>
<g>
</g>
<g>
</g>
<g>
</g>
<g>
</g>
<g>
</g>
<g>
</g>
<g>
</g>
<g>
</g>
<g>
</g>
<g>
</g>
<g>
</g>
<g>
</g>
<g>
</g>
<g>
</g>
<g>
</g>
</svg>
