<?xml version="1.0" encoding="iso-8859-1"?>
<!-- Generator: Adobe Illustrator 19.0.0, SVG Export Plug-In . SVG Version: 6.00 Build 0)  -->
<svg version="1.1" id="Layer_1" xmlns="http://www.w3.org/2000/svg" xmlns:xlink="http://www.w3.org/1999/xlink" x="0px" y="0px"
	 viewBox="0 0 512 512" style="enable-background:new 0 0 512 512;" xml:space="preserve">
<path style="fill:#FFCC75;" d="M440.363,138.595c-11.191-45.566-57.206-73.434-102.761-62.246
	c-27.711,6.804-48.863,26.491-58.678,51.121c-0.677,1.698-2.337,2.799-4.165,2.799h-23.422c-13.763,0-24.92-11.157-24.92-24.92
	V33.398c0-12.284-9.553-22.746-21.829-23.183c-12.889-0.458-23.48,9.853-23.48,22.64v72.494c0,38.786,31.442,70.229,70.229,70.229
	h19.619c2.076,0,3.883,1.418,4.376,3.433l0.024,0.1c9.978,40.641-14.966,81.822-55.606,91.801
	c-28.973,7.115-50.782,28.309-59.952,54.514c-2.311,6.605-8.579,10.999-15.575,10.999h-9.558c-38.786,0-70.229,31.442-70.229,70.229
	v71.951c0,12.284,9.553,22.746,21.829,23.183c12.889,0.458,23.48-9.853,23.48-22.64v-72.495c0-13.763,11.157-24.92,24.92-24.92
	h14.304c6.3,0,12.053,3.58,14.832,9.234c14.247,28.989,43.947,47.421,76.14,47.421c6.705,0,13.523-0.801,20.325-2.47
	c63.795-15.665,117.655-55.207,151.658-111.343C445.928,268.439,456.027,202.391,440.363,138.595z"/>
<path d="M87.111,512c-0.402,0-0.803-0.007-1.207-0.021c-17.757-0.631-31.666-15.292-31.666-33.376v-71.951
	c0-44.348,36.08-80.428,80.427-80.428h9.558c2.686,0,5.077-1.675,5.948-4.167c10.683-30.526,35.783-53.349,67.146-61.05
	c33.767-8.291,55.017-41.468,49.027-75.23h-15.01c-44.347,0-80.427-36.08-80.427-80.428V32.855c0-8.997,3.566-17.393,10.04-23.642
	c6.474-6.247,15.001-9.513,24.001-9.192c17.757,0.631,31.666,15.292,31.666,33.376v71.951c0,8.117,6.604,14.72,14.72,14.72h19.647
	c11.951-26.718,35.682-46.626,64.189-53.625c24.678-6.061,50.243-2.147,71.983,11.021c21.742,13.168,37.054,34.014,43.115,58.697
	l0,0c16.313,66.441,5.793,135.23-29.619,193.696c-35.415,58.466-91.509,99.65-157.95,115.965
	c-7.471,1.835-15.127,2.765-22.757,2.765c-35.953,0-69.433-20.851-85.294-53.121c-1.072-2.181-3.247-3.534-5.678-3.534h-14.304
	c-8.117,0-14.72,6.604-14.72,14.72v72.495c0,8.997-3.566,17.393-10.04,23.642C103.723,508.755,95.668,512,87.111,512z
	 M134.666,346.623c-33.099,0-60.028,26.929-60.028,60.029v71.951c0,6.927,5.379,12.755,11.992,12.99
	c3.433,0.122,6.658-1.116,9.111-3.483c2.455-2.37,3.807-5.553,3.807-8.964v-72.494c0-19.364,15.754-35.119,35.119-35.119h14.304
	c10.266,0,19.458,5.723,23.985,14.936c12.456,25.345,38.751,41.721,66.987,41.721c5.992,0,12.012-0.732,17.892-2.177
	c61.15-15.015,112.775-52.917,145.367-106.723c32.589-53.805,42.269-117.114,27.256-178.263l0,0
	c-4.762-19.392-16.791-35.769-33.872-46.115c-17.08-10.345-37.162-13.42-56.55-8.658c-23.395,5.744-42.698,22.564-51.635,44.992
	c-2.234,5.603-7.588,9.222-13.641,9.222h-23.422c-19.364,0-35.119-15.755-35.119-35.119V33.397c0-6.927-5.379-12.755-11.992-12.99
	c-3.421-0.119-6.657,1.116-9.111,3.483c-2.455,2.37-3.807,5.553-3.807,8.964v72.495c0,33.1,26.929,60.029,60.028,60.029h19.619
	c6.79,0,12.663,4.606,14.283,11.2l0.039,0.163c11.304,46.039-16.994,92.754-63.094,104.075
	c-24.639,6.051-44.361,23.986-52.757,47.978c-3.731,10.664-13.859,17.829-25.202,17.829L134.666,346.623L134.666,346.623z"/>
<path d="M294.387,397.469c-3.814,0-7.473-2.15-9.219-5.824c-2.417-5.087-0.253-11.172,4.834-13.589
	c34.911-16.589,64.058-43.012,84.288-76.411c2.919-4.817,9.189-6.358,14.008-3.44c4.818,2.918,6.358,9.189,3.44,14.008
	c-22.304,36.822-54.457,65.961-92.981,84.269C297.345,397.15,295.855,397.469,294.387,397.469z"/>
<path d="M254.051,411.804c-4.587,0-8.754-3.116-9.897-7.77c-1.342-5.47,2.003-10.994,7.473-12.337
	c2.738-0.672,5.495-1.411,8.196-2.194c5.403-1.568,11.068,1.544,12.637,6.955c1.569,5.411-1.545,11.068-6.955,12.637
	c-2.971,0.862-6.003,1.673-9.013,2.412C255.674,411.709,254.855,411.804,254.051,411.804z"/>
<g>
</g>
<g>
</g>
<g>
</g>
<g>
</g>
<g>
</g>
<g>
</g>
<g>
</g>
<g>
</g>
<g>
</g>
<g>
</g>
<g>
</g>
<g>
</g>
<g>
</g>
<g>
</g>
<g>
</g>
</svg>
