<?xml version="1.0" encoding="iso-8859-1"?>
<!-- Generator: Adobe Illustrator 19.0.0, SVG Export Plug-In . SVG Version: 6.00 Build 0)  -->
<svg version="1.1" id="Layer_1" xmlns="http://www.w3.org/2000/svg" xmlns:xlink="http://www.w3.org/1999/xlink" x="0px" y="0px"
	 viewBox="0 0 512.002 512.002" style="enable-background:new 0 0 512.002 512.002;" xml:space="preserve">
<rect x="70.52" y="379.572" transform="matrix(-0.7071 -0.7071 0.7071 -0.7071 -90.9545 761.7631)" style="fill:#F2484B;" width="83.539" height="40.295"/>
<rect x="137.98" y="151.418" transform="matrix(-0.7071 -0.7071 0.7071 -0.7071 177.497 650.5604)" style="fill:#6DA8D6;" width="171.008" height="274.203"/>
<rect x="236.736" y="156.339" transform="matrix(-0.7071 -0.7071 0.7071 -0.7071 446.7641 539.0117)" style="fill:#F2484B;" width="196.557" height="41.278"/>
<g>
	
		<rect x="331.845" y="115.036" transform="matrix(-0.7071 -0.7071 0.7071 -0.7071 529.3591 504.8131)" style="fill:#E6E6E6;" width="74.77" height="55.473"/>
	<polygon style="fill:#E6E6E6;" points="111.682,427.608 84.393,400.319 10.2,483.039 28.961,501.801 	"/>
</g>
<path d="M453.285,115.553c-13.195,0-25.599,5.138-34.928,14.469c-1.393,1.393-2.674,2.857-3.866,4.367l-11.227-11.227l32.374-32.374
	c7.952,5.204,17.243,8.003,26.967,8.003c13.195,0,25.599-5.137,34.928-14.468s14.468-21.734,14.468-34.927
	c0-13.195-5.137-25.599-14.468-34.928S475.8,0,462.605,0c-13.194,0-25.598,5.137-34.927,14.468
	c-9.329,9.33-14.468,21.735-14.468,34.928c0,9.724,2.8,19.015,8.003,26.967l-32.374,32.374l-11.227-11.227
	c1.51-1.192,2.974-2.472,4.367-3.866c9.329-9.329,14.469-21.734,14.469-34.928s-5.138-25.598-14.469-34.927
	c-19.259-19.259-50.594-19.257-69.855,0c-9.329,9.329-14.468,21.735-14.468,34.927c0,13.195,5.137,25.599,14.468,34.928
	c7.203,7.202,16.094,11.709,25.411,13.524l-14.361,14.36l-35.846-35.846c-1.913-1.912-4.507-2.987-7.212-2.987
	s-5.298,1.075-7.212,2.987l-29.188,29.188c-3.983,3.983-3.983,10.441,0,14.425l1.822,1.822l-186.68,186.68
	c-3.983,3.983-3.983,10.441,0,14.425l23.713,23.713L61.29,377.215c-3.983,3.983-3.983,10.441,0,14.425l9.061,9.061l-67.743,75.53
	c-3.618,4.033-3.45,10.191,0.381,14.022l18.761,18.761c1.986,1.986,4.597,2.987,7.213,2.987c2.43,0,4.866-0.865,6.808-2.607
	l75.529-67.743l9.061,9.061c1.912,1.912,4.507,2.987,7.212,2.987s5.3-1.075,7.212-2.987l21.282-21.282l23.714,23.713
	c1.991,1.991,4.602,2.987,7.212,2.987s5.221-0.996,7.212-2.987l186.68-186.68l1.823,1.823c1.913,1.912,4.507,2.987,7.212,2.987
	s5.298-1.075,7.212-2.987l29.188-29.188c3.983-3.983,3.983-10.441,0-14.425l-35.846-35.846l14.36-14.361
	c1.815,9.317,6.323,18.209,13.524,25.411c9.329,9.329,21.734,14.468,34.928,14.468s25.598-5.137,34.927-14.468
	c19.258-19.26,19.258-50.596,0-69.855C478.882,120.691,466.478,115.553,453.285,115.553z M442.103,28.891
	c5.476-5.477,12.758-8.493,20.503-8.493c7.746,0,15.027,3.016,20.504,8.493c5.477,5.476,8.493,12.758,8.493,20.504
	c0,7.745-3.016,15.026-8.493,20.503c-5.476,5.477-12.758,8.493-20.504,8.493c-7.745,0-15.026-3.016-20.503-8.493
	c-5.477-5.476-8.493-12.758-8.493-20.503C433.61,41.649,436.626,34.367,442.103,28.891z M29.343,487.758l-5.1-5.1l60.553-67.513
	l12.06,12.06L29.343,487.758z M127.574,429.074l-44.647-44.647l14.069-14.069l44.647,44.647L127.574,429.074z M318.056,58.716
	c0-7.745,3.016-15.026,8.493-20.503c5.653-5.653,13.077-8.479,20.504-8.479c7.424,0,14.852,2.826,20.503,8.479
	c5.477,5.477,8.494,12.758,8.494,20.503c0,7.746-3.017,15.026-8.494,20.504c-11.305,11.307-29.702,11.305-41.007,0
	C321.072,73.744,318.056,66.462,318.056,58.716z M80.493,325.009l179.468-179.468l106.498,106.498L186.992,431.507L80.493,325.009z
	 M265.351,122.082l14.764-14.764l124.567,124.567l-14.764,14.764L265.351,122.082z M376.048,174.402l-38.449-38.449l24.804-24.804
	l38.449,38.449L376.048,174.402z M473.788,185.452c-5.476,5.477-12.758,8.493-20.503,8.493c-7.746,0-15.027-3.016-20.504-8.493
	c-11.306-11.306-11.306-29.702,0-41.007c5.477-5.477,12.758-8.494,20.504-8.494c7.745,0,15.025,3.017,20.503,8.494
	C485.093,155.75,485.093,174.146,473.788,185.452z"/>
<path d="M218.264,383.49c-2.61,0-5.221-0.996-7.212-2.987c-3.983-3.983-3.983-10.441,0-14.425l45.896-45.896
	c3.984-3.982,10.44-3.982,14.425,0c3.983,3.983,3.983,10.441,0,14.425l-45.896,45.896
	C223.485,382.494,220.874,383.49,218.264,383.49z"/>
<g>
</g>
<g>
</g>
<g>
</g>
<g>
</g>
<g>
</g>
<g>
</g>
<g>
</g>
<g>
</g>
<g>
</g>
<g>
</g>
<g>
</g>
<g>
</g>
<g>
</g>
<g>
</g>
<g>
</g>
</svg>
