<?xml version="1.0" encoding="iso-8859-1"?>
<!-- Generator: Adobe Illustrator 19.0.0, SVG Export Plug-In . SVG Version: 6.00 Build 0)  -->
<svg version="1.1" id="Layer_1" xmlns="http://www.w3.org/2000/svg" xmlns:xlink="http://www.w3.org/1999/xlink" x="0px" y="0px"
	 viewBox="0 0 512 512" style="enable-background:new 0 0 512 512;" xml:space="preserve">
<rect x="195.611" y="10.199" style="fill:#F2484B;" width="120.789" height="72.476"/>
<g>
	<path style="fill:#FFCC75;" d="M387.658,222.783c0-37.752-24.394-69.807-58.28-81.262c-16.455-5.563-27.479-21.068-27.479-38.439
		V82.672h-91.798v20.413c0,17.37-11.022,32.876-27.479,38.439c-33.886,11.455-58.28,43.51-58.28,81.262v7.248h263.315v-7.25H387.658
		z"/>
	<rect x="124.339" y="412.415" style="fill:#FFCC75;" width="263.313" height="89.386"/>
</g>
<rect x="124.339" y="230.033" style="fill:#E6E6E6;" width="263.313" height="182.392"/>
<path d="M114.144,501.801c0,5.632,4.566,10.199,10.199,10.199h263.315c5.632,0,10.199-4.567,10.199-10.199V222.784
	c0-41.2-26.207-77.739-65.213-90.924c-12.289-4.153-20.545-15.718-20.545-28.776V92.871h4.295c5.632,0,10.199-4.567,10.199-10.199
	V10.199C326.593,4.567,322.026,0,316.394,0H195.607c-5.633,0-10.199,4.567-10.199,10.199v72.472c0,5.632,4.566,10.199,10.199,10.199
	h4.295v10.213c0,13.058-8.256,24.622-20.545,28.776c-39.007,13.186-65.214,49.725-65.214,90.924v279.017H114.144z M134.542,240.23
	h242.916v161.989H134.542V240.23z M205.806,72.472V20.398h100.389v52.074H205.806z M185.89,151.184
	c20.582-6.958,34.411-26.287,34.411-48.1V92.871h71.4v10.213c0,21.813,13.829,41.143,34.411,48.1
	c29.777,10.065,50.081,37.421,51.29,68.648H134.599C135.809,188.606,156.113,161.249,185.89,151.184z M377.459,491.602H134.542
	v-68.984h242.916V491.602z"/>
<path d="M243.922,475.764h7.247c5.633,0,10.199-4.567,10.199-10.199c0-5.632-4.566-10.199-10.199-10.199h-7.247
	c-5.633,0-10.199,4.567-10.199,10.199C233.722,471.197,238.289,475.764,243.922,475.764z"/>
<path d="M284.99,475.764h65.224c5.632,0,10.199-4.567,10.199-10.199c0-5.632-4.567-10.199-10.199-10.199H284.99
	c-5.632,0-10.199,4.567-10.199,10.199C274.791,471.197,279.357,475.764,284.99,475.764z"/>
<g>
</g>
<g>
</g>
<g>
</g>
<g>
</g>
<g>
</g>
<g>
</g>
<g>
</g>
<g>
</g>
<g>
</g>
<g>
</g>
<g>
</g>
<g>
</g>
<g>
</g>
<g>
</g>
<g>
</g>
</svg>
