<?xml version="1.0" encoding="iso-8859-1"?>
<!-- Generator: Adobe Illustrator 19.0.0, SVG Export Plug-In . SVG Version: 6.00 Build 0)  -->
<svg version="1.1" id="Layer_1" xmlns="http://www.w3.org/2000/svg" xmlns:xlink="http://www.w3.org/1999/xlink" x="0px" y="0px"
	 viewBox="0 0 512 512" style="enable-background:new 0 0 512 512;" xml:space="preserve">
<rect x="10.199" y="233.654" style="fill:#F2484B;" width="42.748" height="44.691"/>
<polygon style="fill:#E6E6E6;" points="194.793,204.508 142.329,233.655 52.947,233.655 52.947,278.345 142.329,278.345 
	194.793,307.492 437.679,307.492 437.679,204.508 "/>
<g>
	<path style="fill:#F2484B;" d="M450.309,204.508h-12.63v102.983h12.63c28.438,0,51.492-23.053,51.492-51.492
		S478.748,204.508,450.309,204.508z"/>
	<rect x="327.894" y="238.508" style="fill:#F2484B;" width="71.894" height="34.973"/>
</g>
<path d="M194.793,194.309c-1.733,0-3.438,0.443-4.953,1.284l-50.154,27.862H10.199C4.566,223.455,0,228.023,0,233.655v44.691
	c0,5.632,4.566,10.199,10.199,10.199h129.487l50.154,27.862c1.515,0.841,3.22,1.284,4.953,1.284h255.517
	C484.326,317.691,512,290.017,512,256s-27.674-61.691-61.691-61.691H194.793z M20.398,243.854h22.35v24.292h-22.35V243.854z
	 M147.283,269.43c-1.516-0.841-3.22-1.284-4.953-1.284H63.146v-24.292h79.183c1.733,0,3.438-0.443,4.953-1.284l50.154-27.862
	h230.044v82.586H197.436L147.283,269.43z M450.309,297.292h-2.431v-82.586h2.431c22.769,0.001,41.293,18.525,41.293,41.294
	S473.078,297.292,450.309,297.292z"/>
<path d="M399.788,228.313h-71.894c-5.633,0-10.199,4.567-10.199,10.199v34.976c0,5.632,4.566,10.199,10.199,10.199h71.894
	c5.633,0,10.199-4.567,10.199-10.199v-34.976C409.988,232.879,405.421,228.313,399.788,228.313z M389.589,263.288h-51.496v-14.578
	h51.496V263.288z"/>
<path d="M289.032,263.288H256c-5.633,0-10.199,4.567-10.199,10.199c0,5.632,4.566,10.199,10.199,10.199h33.032
	c5.633,0,10.199-4.567,10.199-10.199C299.231,267.856,294.665,263.288,289.032,263.288z"/>
<path d="M225.882,263.288h-6.801c-5.633,0-10.199,4.567-10.199,10.199c0,5.632,4.566,10.199,10.199,10.199h6.801
	c5.633,0,10.199-4.567,10.199-10.199C236.081,267.856,231.515,263.288,225.882,263.288z"/>
<g>
</g>
<g>
</g>
<g>
</g>
<g>
</g>
<g>
</g>
<g>
</g>
<g>
</g>
<g>
</g>
<g>
</g>
<g>
</g>
<g>
</g>
<g>
</g>
<g>
</g>
<g>
</g>
<g>
</g>
</svg>
