<?xml version="1.0" encoding="iso-8859-1"?>
<!-- Generator: Adobe Illustrator 19.0.0, SVG Export Plug-In . SVG Version: 6.00 Build 0)  -->
<svg version="1.1" id="Layer_1" xmlns="http://www.w3.org/2000/svg" xmlns:xlink="http://www.w3.org/1999/xlink" x="0px" y="0px"
	 viewBox="0 0 512 512" style="enable-background:new 0 0 512 512;" xml:space="preserve">
<path style="fill:#FFCC75;" d="M247.633,297.838c-22.938-31.027-63.162-39.009-88.906-40.76v203.068
	c0,23.005,18.649,41.655,41.655,41.655h111.24c23.005,0,41.655-18.649,41.655-41.655V342.845
	C310.531,342.6,277.833,338.689,247.633,297.838z"/>
<path style="fill:#E6E6E6;" d="M311.62,128.393h-9.597V86.555h15.439c10.537,0,19.079-8.542,19.079-19.079V48.9H175.461v18.576
	c0,10.537,8.542,19.079,19.079,19.079h15.439v41.838h-9.597c-23.005,0-41.655,18.649-41.655,41.655v87.031
	c25.745,1.751,65.968,9.734,88.906,40.76c30.201,40.85,62.9,44.762,105.642,45.006V170.047
	C353.274,147.042,334.625,128.393,311.62,128.393z"/>
<rect x="175.457" y="10.199" style="fill:#F2484B;" width="161.076" height="38.701"/>
<path d="M363.473,170.047c0-28.392-22.936-51.527-51.252-51.851V96.754h5.239c16.143,0,29.278-13.135,29.278-29.278V10.199
	C346.738,4.567,342.171,0,336.539,0H175.461c-5.632,0-10.199,4.567-10.199,10.199v57.277c0,16.143,13.135,29.278,29.278,29.278
	h5.239v21.442c-28.316,0.323-51.252,23.459-51.252,51.851v290.1c0,28.592,23.261,51.854,51.853,51.854H311.62
	c28.591,0,51.853-23.261,51.853-51.854L363.473,170.047L363.473,170.047z M185.66,20.398h140.68V38.7H185.66V20.398z
	 M168.925,170.047c0-17.345,14.111-31.455,31.454-31.455h9.598c5.632,0,10.199-4.567,10.199-10.199V86.555
	c0-5.632-4.567-10.199-10.199-10.199H194.54c-4.897,0-8.879-3.983-8.879-8.879v-8.378h140.68v8.378c0,4.897-3.983,8.879-8.879,8.879
	h-15.439c-5.632,0-10.199,4.567-10.199,10.199v41.838c0,5.632,4.567,10.199,10.199,10.199h9.598
	c17.344,0,31.454,14.111,31.454,31.455v162.458c-35.503-0.859-61.785-6.298-87.241-40.729
	c-22.162-29.978-57.853-40.652-86.908-44.005L168.925,170.047L168.925,170.047z M343.075,460.146
	c0,17.345-14.111,31.455-31.454,31.455H200.38c-17.344,0-31.454-14.111-31.454-31.455V268.324
	c24.354,3.137,53.163,12.121,70.506,35.579c30.627,41.424,65.179,48.014,103.643,48.993v0.001L343.075,460.146L343.075,460.146z"/>
<path d="M243.448,458.131h-3.137c-5.632,0-10.199,4.567-10.199,10.199c0,5.632,4.567,10.199,10.199,10.199h3.137
	c5.632,0,10.199-4.567,10.199-10.199C253.647,462.698,249.081,458.131,243.448,458.131z"/>
<path d="M315.619,458.131h-42.885c-5.632,0-10.199,4.567-10.199,10.199c0,5.632,4.567,10.199,10.199,10.199h42.885
	c5.632,0,10.199-4.567,10.199-10.199C325.819,462.698,321.252,458.131,315.619,458.131z"/>
<g>
</g>
<g>
</g>
<g>
</g>
<g>
</g>
<g>
</g>
<g>
</g>
<g>
</g>
<g>
</g>
<g>
</g>
<g>
</g>
<g>
</g>
<g>
</g>
<g>
</g>
<g>
</g>
<g>
</g>
</svg>
