<?xml version="1.0" encoding="iso-8859-1"?>
<!-- Generator: Adobe Illustrator 19.0.0, SVG Export Plug-In . SVG Version: 6.00 Build 0)  -->
<svg version="1.1" id="Layer_1" xmlns="http://www.w3.org/2000/svg" xmlns:xlink="http://www.w3.org/1999/xlink" x="0px" y="0px"
	 viewBox="0 0 512 512" style="enable-background:new 0 0 512 512;" xml:space="preserve">
<g>
	<circle style="fill:#F2484B;" cx="261.508" cy="262.609" r="130.611"/>
	<circle style="fill:#F2484B;" cx="34.449" cy="34.449" r="24.25"/>
	<circle style="fill:#F2484B;" cx="468.184" cy="468.184" r="33.619"/>
	<circle style="fill:#F2484B;" cx="440.626" cy="82.399" r="23.147"/>
	<circle style="fill:#F2484B;" cx="93.414" cy="429.601" r="40.232"/>
</g>
<path d="M401.955,272.812h46.938c5.633,0,10.199-4.566,10.199-10.199s-4.566-10.199-10.199-10.199h-46.938
	c-2.242-31.167-14.666-59.558-33.962-81.85l58.207-58.108c4.368,2.105,9.263,3.286,14.427,3.286
	c18.387,0,33.346-14.959,33.346-33.346S459.013,49.05,440.626,49.05c-18.387,0-33.346,14.959-33.346,33.346
	c0,5.803,1.493,11.263,4.11,16.021l-57.821,57.723c-22.292-19.301-50.688-31.728-81.859-33.97V75.231
	c0-5.633-4.566-10.199-10.199-10.199s-10.199,4.566-10.199,10.199v46.939c-31.169,2.242-59.561,14.667-81.854,33.965L64.53,51.208
	c2.777-4.964,4.367-10.679,4.367-16.759C68.898,15.454,53.444,0,34.449,0S0,15.454,0,34.449s15.454,34.449,34.449,34.449
	c5.5,0,10.7-1.302,15.317-3.605L155.034,170.56c-19.299,22.292-31.725,50.685-33.966,81.854H74.13
	c-5.633,0-10.199,4.566-10.199,10.199c0,5.633,4.566,10.199,10.199,10.199h46.938c2.242,31.169,14.667,59.561,33.966,81.854
	L121.8,387.9c-0.008,0.008-0.014,0.017-0.022,0.025c-8.086-5.52-17.851-8.754-28.359-8.754c-27.808,0-50.431,22.624-50.431,50.431
	c0,27.807,22.624,50.431,50.431,50.431s50.431-22.624,50.431-50.431c0-9.944-2.905-19.216-7.893-27.037
	c0.089-0.083,0.182-0.156,0.268-0.242l33.233-33.234c22.292,19.299,50.686,31.725,81.855,33.966v46.938
	c0,5.633,4.566,10.199,10.199,10.199c5.633,0,10.199-4.566,10.199-10.199v-46.938C341.244,398.056,396.953,342.346,401.955,272.812z
	 M93.419,459.636c-16.56,0-30.033-13.472-30.033-30.033c0-16.56,13.472-30.033,30.033-30.033s30.033,13.472,30.033,30.033
	C123.451,446.164,109.979,459.636,93.419,459.636z M440.626,69.448c7.139,0,12.948,5.808,12.948,12.948s-5.808,12.948-12.948,12.948
	s-12.948-5.808-12.948-12.948S433.487,69.448,440.626,69.448z M20.398,34.449c0-7.747,6.303-14.05,14.05-14.05
	s14.05,6.303,14.05,14.05s-6.303,14.05-14.05,14.05S20.398,42.196,20.398,34.449z M261.512,383.03
	c-66.399,0-120.417-54.019-120.417-120.417s54.019-120.417,120.417-120.417s120.417,54.019,120.417,120.417
	S327.909,383.03,261.512,383.03z"/>
<path d="M385.602,372.199c-3.983-3.983-10.441-3.983-14.425,0c-3.983,3.983-3.983,10.441,0,14.425l5.1,5.1
	c1.992,1.992,4.602,2.987,7.212,2.987c2.61,0,5.221-0.995,7.212-2.987c3.983-3.983,3.983-10.441,0-14.425L385.602,372.199z"/>
<path d="M468.182,424.364c-8.675,0-16.762,2.545-23.574,6.911l-30.751-30.823c-3.978-3.989-10.436-3.995-14.424-0.016
	c-3.988,3.978-3.995,10.436-0.016,14.424l31.024,31.097c-3.854,6.521-6.077,14.117-6.077,22.225
	c0,24.161,19.656,43.818,43.818,43.818S512,492.344,512,468.182C512,444.02,492.344,424.364,468.182,424.364z M468.182,491.602
	c-12.913,0-23.419-10.506-23.419-23.419c0-12.913,10.506-23.419,23.419-23.419c12.913,0,23.419,10.506,23.419,23.419
	C491.602,481.095,481.095,491.602,468.182,491.602z"/>
<g>
</g>
<g>
</g>
<g>
</g>
<g>
</g>
<g>
</g>
<g>
</g>
<g>
</g>
<g>
</g>
<g>
</g>
<g>
</g>
<g>
</g>
<g>
</g>
<g>
</g>
<g>
</g>
<g>
</g>
</svg>
