<?xml version="1.0" encoding="iso-8859-1"?>
<!-- Generator: Adobe Illustrator 19.0.0, SVG Export Plug-In . SVG Version: 6.00 Build 0)  -->
<svg version="1.1" id="Layer_1" xmlns="http://www.w3.org/2000/svg" xmlns:xlink="http://www.w3.org/1999/xlink" x="0px" y="0px"
	 viewBox="0 0 512 512" style="enable-background:new 0 0 512 512;" xml:space="preserve">
<rect x="205.045" y="272.635" style="fill:#F2484B;" width="179.537" height="62.307"/>
<circle style="fill:#6DA8D6;" cx="139.566" cy="355.003" r="129.367"/>
<circle style="fill:#E6E6E6;" cx="139.566" cy="355.003" r="93.466"/>
<circle style="fill:#FFCC75;" cx="139.566" cy="355.003" r="22.705"/>
<path style="fill:#F2484B;" d="M280.025,188.149H125.839c-11.665,0-21.122-9.456-21.122-21.122c0-11.665,9.456-21.122,21.122-21.122
	h154.186c11.665,0,21.122,9.456,21.122,21.122C301.147,178.693,291.691,188.149,280.025,188.149z"/>
<circle style="fill:#6DA8D6;" cx="382.99" cy="452.691" r="31.154"/>
<path d="M139.568,251.347c-57.159,0-103.662,46.502-103.662,103.662c0,57.158,46.502,103.662,103.662,103.662
	s103.663-46.502,103.663-103.662C243.23,297.849,196.727,251.347,139.568,251.347z M139.568,438.272
	c-45.912,0-83.263-37.352-83.263-83.263c0-45.912,37.352-83.263,83.263-83.263c45.913,0,83.264,37.352,83.264,83.263
	C222.831,400.92,185.48,438.272,139.568,438.272z"/>
<path d="M139.568,322.104c-18.143,0-32.905,14.761-32.905,32.905c0,18.143,14.761,32.905,32.905,32.905
	c18.144,0,32.906-14.761,32.906-32.905C172.473,336.864,157.712,322.104,139.568,322.104z M139.568,367.515
	c-6.896,0-12.506-5.61-12.506-12.506s5.611-12.506,12.506-12.506c6.897,0,12.507,5.611,12.507,12.506
	C152.075,361.904,146.465,367.515,139.568,367.515z"/>
<path d="M501.801,441.968h-26.402c-5.632,0-10.199,4.566-10.199,10.199s4.567,10.199,10.199,10.199h26.402
	c5.632,0,10.199-4.566,10.199-10.199S507.433,441.968,501.801,441.968z"/>
<path d="M446.885,441.968h-3.168c-5.632,0-10.199,4.566-10.199,10.199s4.567,10.199,10.199,10.199h3.168
	c5.632,0,10.199-4.566,10.199-10.199S452.518,441.968,446.885,441.968z"/>
<path d="M394.775,271.579c0-26.237-9.085-51.889-25.582-72.232c-15.031-18.532-35.615-31.985-58.433-38.334
	c-2.813-14.402-15.522-25.306-30.735-25.306H126.907L101.994,25.38c-1.043-4.627-5.387-8.085-10.152-7.952H52.971
	c-5.632,0-10.199,4.566-10.199,10.199s4.567,10.199,10.199,10.199h30.922l23.469,103.934c-7.779,5.704-12.843,14.904-12.843,25.269
	c0,15.279,11,28.03,25.495,30.769l4.177,18.495C54.441,223.972,0,283.248,0,355.009c0,76.958,62.61,139.568,139.568,139.568
	s139.569-62.61,139.569-139.568c0-3.318-0.124-6.606-0.353-9.867h95.594v67.109c-18.681,3.975-32.738,20.596-32.738,40.444
	c0,22.802,18.55,41.354,41.354,41.354c22.801,0,41.353-18.551,41.353-41.354c0-18.708-12.492-34.547-29.57-39.633L394.775,271.579
	L394.775,271.579z M373.91,262.436H243.919c-24.476-27.559-59.671-45.386-98.983-46.882l-3.885-17.205h138.974
	c12.088,0,22.591-6.888,27.81-16.941C343.899,192.557,370.193,224.906,373.91,262.436z M114.917,167.027
	c0-6.023,4.9-10.922,10.921-10.922h154.187c6.023,0,10.922,4.9,10.922,10.922s-4.9,10.922-10.922,10.922H125.839
	C119.817,177.949,114.917,173.05,114.917,167.027z M139.568,474.178c-65.71,0-119.17-53.459-119.17-119.169
	s53.459-119.17,119.17-119.17c65.711,0,119.171,53.459,119.171,119.17S205.279,474.178,139.568,474.178z M275.822,324.743
	c-3.333-15.016-9.084-29.132-16.836-41.91h115.392v41.91H275.822z M382.993,473.65c-11.555,0-20.955-9.401-20.955-20.955
	c0-11.555,9.401-20.954,20.955-20.954c11.554,0,20.954,9.401,20.954,20.954C403.948,464.249,394.547,473.65,382.993,473.65z"/>
<g>
</g>
<g>
</g>
<g>
</g>
<g>
</g>
<g>
</g>
<g>
</g>
<g>
</g>
<g>
</g>
<g>
</g>
<g>
</g>
<g>
</g>
<g>
</g>
<g>
</g>
<g>
</g>
<g>
</g>
</svg>
