<?xml version="1.0" encoding="iso-8859-1"?>
<!-- Generator: Adobe Illustrator 19.0.0, SVG Export Plug-In . SVG Version: 6.00 Build 0)  -->
<svg version="1.1" id="Layer_1" xmlns="http://www.w3.org/2000/svg" xmlns:xlink="http://www.w3.org/1999/xlink" x="0px" y="0px"
	 viewBox="0 0 512 512" style="enable-background:new 0 0 512 512;" xml:space="preserve">
<path style="fill:#F2484B;" d="M204.55,92.174c-53.091,0-96.13,43.777-96.13,96.868v312.759h295.158V189.042
	c0-53.091-43.039-96.868-96.13-96.868C307.448,92.174,204.55,92.174,204.55,92.174z"/>
<g>
	<rect x="205.452" y="10.199" style="fill:#E6E6E6;" width="101.094" height="81.971"/>
	<rect x="151.968" y="216.295" style="fill:#E6E6E6;" width="208.074" height="164.013"/>
</g>
<polygon style="fill:#F2484B;" points="304.548,279.206 275.018,279.206 275.018,249.676 236.981,249.676 236.981,279.206 
	207.451,279.206 207.451,317.243 236.981,317.243 236.981,346.773 275.018,346.773 275.018,317.243 304.548,317.243 "/>
<path d="M316.747,82.389v-72.19C316.747,4.567,312.18,0,306.548,0H205.452c-5.632,0-10.199,4.567-10.199,10.199v72.19
	c-54.291,4.759-97.031,50.771-97.031,106.653v312.759c0,5.632,4.567,10.199,10.199,10.199h295.158
	c5.632,0,10.199-4.567,10.199-10.199V189.042C413.777,133.16,371.037,87.148,316.747,82.389z M215.65,20.398h80.697v61.577H215.65
	V20.398z M393.379,491.602H118.62V189.042c0-47.788,38.548-86.669,85.93-86.669h0.902h101.096h0.902
	c47.382,0,85.93,38.879,85.93,86.669v302.559H393.379z"/>
<path d="M250.583,450.984h-8.123c-5.632,0-10.199,4.567-10.199,10.199c0,5.632,4.567,10.199,10.199,10.199h8.123
	c5.632,0,10.199-4.567,10.199-10.199C260.782,455.551,256.216,450.984,250.583,450.984z"/>
<path d="M361.606,450.984h-73.112c-5.632,0-10.199,4.567-10.199,10.199c0,5.632,4.567,10.199,10.199,10.199h73.112
	c5.632,0,10.199-4.567,10.199-10.199C371.805,455.551,367.238,450.984,361.606,450.984z"/>
<path d="M360.036,206.095H151.963c-5.632,0-10.199,4.567-10.199,10.199v164.011c0,5.632,4.567,10.199,10.199,10.199h208.074
	c5.632,0,10.199-4.567,10.199-10.199V216.295C370.236,210.663,365.668,206.095,360.036,206.095z M349.837,370.107H162.162V226.494
	h187.676V370.107z"/>
<path d="M207.451,327.443h19.33v19.33c0,5.632,4.567,10.199,10.199,10.199h38.038c5.632,0,10.199-4.567,10.199-10.199v-19.33h19.331
	c5.632,0,10.199-4.567,10.199-10.199v-38.038c0-5.632-4.567-10.199-10.199-10.199h-19.33v-19.331
	c0-5.632-4.567-10.199-10.199-10.199h-38.038c-5.632,0-10.199,4.567-10.199,10.199v19.331h-19.331
	c-5.632,0-10.199,4.567-10.199,10.199v38.038C197.252,322.876,201.819,327.443,207.451,327.443z M217.65,289.405h19.33
	c5.632,0,10.199-4.567,10.199-10.199v-19.331h17.64v19.331c0,5.632,4.567,10.199,10.199,10.199h19.331v17.64h-19.33
	c-5.632,0-10.199,4.567-10.199,10.199v19.33h-17.64v-19.33c0-5.632-4.567-10.199-10.199-10.199H217.65V289.405z"/>
<g>
</g>
<g>
</g>
<g>
</g>
<g>
</g>
<g>
</g>
<g>
</g>
<g>
</g>
<g>
</g>
<g>
</g>
<g>
</g>
<g>
</g>
<g>
</g>
<g>
</g>
<g>
</g>
<g>
</g>
</svg>
