<?xml version="1.0" encoding="iso-8859-1"?>
<!-- Generator: Adobe Illustrator 19.0.0, SVG Export Plug-In . SVG Version: 6.00 Build 0)  -->
<svg version="1.1" id="Layer_1" xmlns="http://www.w3.org/2000/svg" xmlns:xlink="http://www.w3.org/1999/xlink" x="0px" y="0px"
	 viewBox="0 0 512 512" style="enable-background:new 0 0 512 512;" xml:space="preserve">
<path style="fill:#E6E6E6;" d="M256,501.801L256,501.801c-74.073,0-134.121-60.048-134.121-134.121V144.32
	c0-74.073,60.048-134.121,134.121-134.121l0,0c74.073,0,134.121,60.048,134.121,134.121V367.68
	C390.121,441.753,330.073,501.801,256,501.801z"/>
<circle style="fill:#FFCC75;" cx="256" cy="144.829" r="98.932"/>
<path d="M256,0c-79.578,0-144.32,64.741-144.32,144.32V367.68C111.68,447.259,176.422,512,256,512s144.32-64.741,144.32-144.32
	V144.32C400.32,64.741,335.578,0,256,0z M315.301,287.618l64.62-64.62v129.241L315.301,287.618z M132.079,144.32
	c0-68.331,55.591-123.921,123.921-123.921S379.921,75.989,379.921,144.32v49.828L147.169,426.9
	c-9.618-17.605-15.091-37.785-15.091-59.22V144.32z M256,491.602c-39.443,0-74.641-18.525-97.352-47.33l142.229-142.229
	l78.392,78.392C372.863,442.795,320.024,491.602,256,491.602z"/>
<path d="M256,253.96c60.175,0,109.131-48.956,109.131-109.131S316.175,35.697,256,35.697S146.869,84.653,146.869,144.829
	S195.825,253.96,256,253.96z M256,56.096c48.928,0,88.733,39.805,88.733,88.733S304.928,233.562,256,233.562
	s-88.733-39.805-88.733-88.733S207.072,56.096,256,56.096z"/>
<path d="M224.892,130.55c6.186,0,11.219-5.033,11.219-11.219s-5.033-11.219-11.219-11.219s-11.219,5.033-11.219,11.219
	S218.707,130.55,224.892,130.55z"/>
<path d="M287.108,130.55c6.186,0,11.219-5.033,11.219-11.219s-5.033-11.219-11.219-11.219s-11.219,5.033-11.219,11.219
	S280.922,130.55,287.108,130.55z"/>
<path d="M260.61,458.854c-1.53,0.072-3.08,0.11-4.61,0.11c-5.633,0-10.199,4.566-10.199,10.199s4.566,10.199,10.199,10.199
	c1.854,0,3.735-0.045,5.589-0.135c5.626-0.27,9.968-5.051,9.697-10.677C271.017,462.926,266.249,458.581,260.61,458.854z"/>
<path d="M345.74,419.058c-4.512-3.372-10.903-2.449-14.276,2.063c-11.469,15.344-27.063,26.699-45.096,32.841
	c-5.332,1.816-8.183,7.611-6.367,12.943c1.445,4.243,5.409,6.914,9.654,6.914c1.09,0,2.199-0.176,3.289-0.548
	c21.946-7.474,40.916-21.285,54.858-39.939C351.176,428.82,350.252,422.43,345.74,419.058z"/>
<path d="M215.356,181.908c-1.684,5.376,1.309,11.098,6.685,12.782c11.155,3.494,22.649,5.241,34.16,5.241
	c11.319,0,22.655-1.69,33.696-5.07c5.386-1.649,8.415-7.353,6.766-12.739c-1.649-5.386-7.352-8.413-12.739-6.766
	c-18.316,5.609-37.607,5.563-55.787-0.132C222.763,173.541,217.04,176.533,215.356,181.908z"/>
<g>
</g>
<g>
</g>
<g>
</g>
<g>
</g>
<g>
</g>
<g>
</g>
<g>
</g>
<g>
</g>
<g>
</g>
<g>
</g>
<g>
</g>
<g>
</g>
<g>
</g>
<g>
</g>
<g>
</g>
</svg>
