<?xml version="1.0" encoding="iso-8859-1"?>
<!-- Generator: Adobe Illustrator 19.0.0, SVG Export Plug-In . SVG Version: 6.00 Build 0)  -->
<svg version="1.1" id="Layer_1" xmlns="http://www.w3.org/2000/svg" xmlns:xlink="http://www.w3.org/1999/xlink" x="0px" y="0px"
	 viewBox="0 0 512 512" style="enable-background:new 0 0 512 512;" xml:space="preserve">
<path style="fill:#FFCC75;" d="M500.439,336.39c-1.325-5.482-2.829-10.895-4.507-16.23c-2.576-8.193-2.957-16.979-0.862-25.307
	c2.267-9.015,2.401-18.703-0.036-28.349c-4.441-17.581-16.457-31.244-31.682-38.392c-12.814-6.016-22.209-17.453-25.951-31.106
	c-2.073-7.563-5.719-14.826-10.991-21.296c-11.467-14.073-28.156-21.379-44.995-21.405c-14.3-0.022-27.621-6.851-36.984-17.661
	c-5.012-5.787-11.257-10.673-18.587-14.219c-16.34-7.908-34.554-7.476-49.827-0.383c-12.97,6.024-27.929,5.464-40.983-0.376
	c-6.989-3.126-14.712-4.915-22.855-5.031c-18.131-0.261-34.439,7.81-45.284,20.667c-9.127,10.821-22.607,16.936-36.762,17.015
	c-7.841,0.045-15.801,1.686-23.416,5.105c-16.562,7.434-27.938,21.664-32.322,37.922c-3.723,13.808-13.766,24.907-26.631,31.153
	c-6.888,3.343-13.222,8.111-18.545,14.273c-12.808,14.826-16.797,34.272-12.442,51.949c2.081,8.445,1.864,17.265-0.741,25.563
	c-1.667,5.306-3.161,10.687-4.477,16.137c-7.291,30.191,15.615,58.986,46.674,58.986h395.531
	C484.837,395.403,507.736,366.592,500.439,336.39z"/>
<path d="M510.353,333.994c-1.367-5.658-2.946-11.342-4.692-16.894c-2.061-6.553-2.303-13.387-0.701-19.76
	c2.736-10.878,2.723-22.405-0.038-33.334c-5.035-19.934-18.608-36.382-37.238-45.128c-8.979-4.214-15.893-11.868-19.38-21.287
	c-0.022-0.101-0.038-0.202-0.061-0.304c-0.172-0.763-0.434-1.481-0.759-2.158c-0.082-0.274-0.172-0.544-0.248-0.82
	c-2.517-9.184-6.864-17.611-12.921-25.043c-13.004-15.958-32.28-25.129-52.886-25.162c-10.847-0.017-21.523-5.171-29.29-14.139
	c-6.081-7.021-13.433-12.647-21.853-16.723c-18.53-8.967-39.876-9.132-58.565-0.454c-9.838,4.569-21.692,4.41-32.521-0.436
	c-8.48-3.794-17.521-5.786-26.873-5.921c-20.577-0.301-39.958,8.557-53.227,24.289c-7.124,8.447-17.703,13.328-29.024,13.393
	c-9.523,0.054-18.787,2.072-27.535,5.999c-18.78,8.431-32.628,24.676-37.992,44.572c-2.823,10.473-10.564,19.45-21.237,24.631
	c-8.356,4.057-15.695,9.703-21.809,16.781c-14.453,16.736-19.922,39.56-14.626,61.06c1.649,6.693,1.451,13.632-0.57,20.069
	c-1.735,5.527-3.304,11.178-4.661,16.799c-4.196,17.374-0.276,35.377,10.755,49.391c11.101,14.102,27.806,22.189,45.833,22.189
	h395.531c18.027,0,34.733-8.088,45.833-22.19C510.634,369.393,514.554,351.381,510.353,333.994z M483.569,370.797
	c-7.207,9.156-18.07,14.408-29.803,14.408H218.904c-12.287,0-22.668-10.619-22.668-23.19c0-12.499,10.169-22.669,22.668-22.669
	c5.633,0,10.199-4.566,10.199-10.199c0-5.633-4.566-10.199-10.199-10.199c-23.747,0-43.066,19.319-43.066,43.068
	c0,8.518,2.437,16.468,6.627,23.19H58.234c-11.733,0-22.597-5.252-29.804-14.408c-7.139-9.069-9.674-20.727-6.955-31.984
	c1.251-5.178,2.696-10.385,4.294-15.477c3.14-9.999,3.457-20.739,0.914-31.06c-3.717-15.089,0.118-31.105,10.258-42.842
	c4.292-4.968,9.433-8.926,15.282-11.766c15.989-7.764,27.661-21.494,32.024-37.672c3.765-13.961,13.478-25.359,26.651-31.273
	c6.14-2.756,12.632-4.173,19.297-4.21c17.301-0.099,33.521-7.622,44.501-20.639c9.16-10.86,22.481-17.049,36.64-17.049
	c0.233,0,0.467,0.001,0.701,0.005c6.564,0.094,12.901,1.488,18.836,4.144c16.225,7.26,34.247,7.374,49.444,0.317
	c13.114-6.09,28.091-5.976,41.087,0.314c5.909,2.86,11.064,6.802,15.32,11.716c11.636,13.436,27.921,21.156,44.677,21.183
	c14.46,0.022,27.984,6.455,37.105,17.649c4.251,5.217,7.3,11.121,9.061,17.549c0.315,1.148,0.669,2.28,1.048,3.399
	c2.012,10.384,0.041,20.974-5.627,29.962c-5.906,9.365-15.105,15.87-25.903,18.316c-5.493,1.244-8.939,6.707-7.693,12.2
	c1.073,4.736,5.278,7.947,9.938,7.947c0.746,0,1.504-0.083,2.263-0.254c16.112-3.65,29.838-13.356,38.65-27.329
	c2.854-4.525,5.07-9.324,6.654-14.29c3.68,3.03,7.735,5.631,12.124,7.691c13.073,6.137,22.596,17.675,26.129,31.658
	c1.936,7.669,1.948,15.747,0.032,23.363c-2.523,10.033-2.168,20.703,1.024,30.855c1.608,5.116,3.063,10.353,4.322,15.566
	C493.247,350.054,490.712,361.722,483.569,370.797z"/>
<path d="M161.517,252.17c-7.897,0-14.322-6.425-14.322-14.321c0-5.633-4.566-10.199-10.199-10.199s-10.199,4.566-10.199,10.199
	c0,19.145,15.575,34.719,34.72,34.719c5.633,0,10.199-4.566,10.199-10.199C171.716,256.736,167.15,252.17,161.517,252.17z"/>
<path d="M380.112,310.652c5.633,0,10.199-4.566,10.199-10.199c0-5.633-4.566-10.199-10.199-10.199
	c-7.897,0-14.322-6.425-14.322-14.321c0-5.633-4.566-10.199-10.199-10.199c-5.633,0-10.199,4.566-10.199,10.199
	C345.391,295.077,360.967,310.652,380.112,310.652z"/>
<path d="M63.435,297.557c-5.633,0-10.199,4.566-10.199,10.199c0,5.633,4.566,10.199,10.199,10.199
	c18.253,0,33.103,14.85,33.103,33.103c0,5.633,4.566,10.199,10.199,10.199c5.633,0,10.199-4.566,10.199-10.199
	C116.937,321.557,92.937,297.557,63.435,297.557z"/>
<path d="M304.956,353.919h-6.12c-5.633,0-10.199,4.566-10.199,10.199c0,5.633,4.566,10.199,10.199,10.199h6.12
	c5.633,0,10.199-4.566,10.199-10.199C315.156,358.485,310.589,353.919,304.956,353.919z"/>
<path d="M451.827,353.919H339.635c-5.633,0-10.199,4.566-10.199,10.199c0,5.633,4.566,10.199,10.199,10.199h112.192
	c5.633,0,10.199-4.566,10.199-10.199C462.026,358.485,457.46,353.919,451.827,353.919z"/>
<g>
</g>
<g>
</g>
<g>
</g>
<g>
</g>
<g>
</g>
<g>
</g>
<g>
</g>
<g>
</g>
<g>
</g>
<g>
</g>
<g>
</g>
<g>
</g>
<g>
</g>
<g>
</g>
<g>
</g>
</svg>
