<?xml version="1.0" encoding="iso-8859-1"?>
<!-- Generator: Adobe Illustrator 19.0.0, SVG Export Plug-In . SVG Version: 6.00 Build 0)  -->
<svg version="1.1" id="Layer_1" xmlns="http://www.w3.org/2000/svg" xmlns:xlink="http://www.w3.org/1999/xlink" x="0px" y="0px"
	 viewBox="0 0 511.999 511.999" style="enable-background:new 0 0 511.999 511.999;" xml:space="preserve">
<path style="fill:#FFCC75;" d="M332.107,357.345c6.307-29.287,15.504-85.092,13.389-119.085l42.914-42.914l-71.756-71.756
	l-42.914,42.914c-33.992-2.114-89.798,7.082-119.085,13.389c-26.104,5.622-69.302,17.255-96.925,44.878
	c-63.375,63.375-63.375,166.124,0,229.498c63.375,63.375,166.124,63.375,229.498,0C314.852,426.647,326.485,383.449,332.107,357.345
	z"/>
<polygon style="fill:#E6E6E6;" points="333.447,140.382 371.619,178.553 501.8,34.456 477.544,10.201 "/>
<path d="M509.013,27.244L484.756,2.988c-3.843-3.842-10.02-3.998-14.049-0.356L333.804,126.314l-9.937-9.937
	c-3.984-3.982-10.44-3.982-14.425,0l-39.726,39.727c-36.101-1.196-90.063,7.971-117.208,13.819
	c-46.612,10.039-79.974,25.621-101.99,47.636C17.942,250.137,0,293.449,0,339.52c0,46.072,17.941,89.385,50.518,121.962
	c32.577,32.576,75.89,50.518,121.962,50.518c46.071,0,89.384-17.941,121.961-50.518c22.015-22.016,37.597-55.377,47.636-101.99
	c5.846-27.145,15.022-81.099,13.819-117.209l39.727-39.726c1.912-1.913,2.987-4.507,2.987-7.212c0-2.705-1.075-5.298-2.987-7.212
	l-9.937-9.937L509.368,41.294C513.01,37.263,512.853,31.086,509.013,27.244z M373.987,195.345l-35.702,35.702
	c-2.068,2.068-3.15,4.925-2.967,7.845c2.104,33.82-7.702,90.867-13.18,116.304c-9.188,42.657-22.967,72.705-42.121,91.86
	c-59.297,59.295-155.777,59.297-215.074,0c-28.725-28.723-44.544-66.915-44.544-107.537c0-40.621,15.819-78.812,44.544-107.537
	c19.155-19.154,49.203-32.932,91.86-42.121c23.039-4.961,71.995-13.471,106.151-13.471c3.559,0,6.961,0.093,10.152,0.291
	c2.915,0.175,5.777-0.899,7.845-2.967l35.702-35.703L373.987,195.345z M371.243,163.753l-22.997-22.997L477.188,24.267
	l10.546,10.546L371.243,163.753z"/>
<path d="M203.057,446.174c-18.046,6.85-37.188,8.471-55.35,4.694c-5.52-1.15-10.916,2.394-12.063,7.907
	c-1.147,5.515,2.393,10.915,7.907,12.063c7.766,1.616,15.669,2.419,23.601,2.419c14.512,0,29.119-2.69,43.142-8.01
	c5.267-1.999,7.916-7.888,5.918-13.154S208.327,444.176,203.057,446.174z"/>
<path d="M112.667,435.199c-3.373-2.514-6.596-5.304-9.582-8.291c-3.983-3.983-10.439-3.984-14.425-0.002
	c-3.983,3.983-3.984,10.44-0.002,14.425c3.68,3.681,7.654,7.119,11.813,10.221c1.831,1.365,3.97,2.024,6.09,2.024
	c3.111,0,6.182-1.419,8.184-4.102C118.114,444.956,117.183,438.566,112.667,435.199z"/>
<g>
</g>
<g>
</g>
<g>
</g>
<g>
</g>
<g>
</g>
<g>
</g>
<g>
</g>
<g>
</g>
<g>
</g>
<g>
</g>
<g>
</g>
<g>
</g>
<g>
</g>
<g>
</g>
<g>
</g>
</svg>
