<?xml version="1.0" encoding="iso-8859-1"?>
<!-- Generator: Adobe Illustrator 19.0.0, SVG Export Plug-In . SVG Version: 6.00 Build 0)  -->
<svg version="1.1" id="Layer_1" xmlns="http://www.w3.org/2000/svg" xmlns:xlink="http://www.w3.org/1999/xlink" x="0px" y="0px"
	 viewBox="0 0 512 512" style="enable-background:new 0 0 512 512;" xml:space="preserve">
<circle style="fill:#E6E6E6;" cx="256" cy="256" r="245.801"/>
<circle style="fill:#6DA8D6;" cx="256" cy="256" r="128.51"/>
<circle style="fill:#E6E6E6;" cx="346.773" cy="165.227" r="47.936"/>
<circle style="fill:#2F5F7D;" cx="256" cy="256" r="27.538"/>
<path d="M437.019,74.98C388.667,26.628,324.381,0,256,0C187.62,0,123.333,26.628,74.98,74.98S0,187.62,0,256
	s26.628,132.667,74.98,181.02S187.62,512,256,512c68.381,0,132.667-26.628,181.019-74.98C485.372,388.667,512,324.38,512,256
	S485.372,123.333,437.019,74.98z M256,491.602c-129.911,0-235.602-105.69-235.602-235.602S126.089,20.398,256,20.398
	S491.602,126.089,491.602,256S385.911,491.602,256,491.602z"/>
<path d="M394.709,256c0-16.558-2.884-32.696-8.561-48.05c11.525-10.63,18.76-25.845,18.76-42.722
	c0-32.056-26.079-58.135-58.135-58.135c-16.875,0-32.087,7.233-42.717,18.754c-15.349-5.678-31.483-8.555-48.056-8.555
	c-76.485,0-138.709,62.224-138.709,138.709S179.515,394.709,256,394.709C332.484,394.709,394.709,332.485,394.709,256z
	 M346.773,127.49c20.808,0,37.737,16.929,37.737,37.737s-16.929,37.737-37.737,37.737s-37.737-16.929-37.737-37.737
	S325.965,127.49,346.773,127.49z M137.689,256c0-65.236,53.075-118.311,118.311-118.311c12.66,0,25.012,1.972,36.849,5.853
	c-2.707,6.706-4.211,14.021-4.211,21.685c0,32.056,26.079,58.135,58.135,58.135c7.666,0,14.983-1.505,21.69-4.213
	c3.884,11.841,5.848,24.2,5.848,36.851c0,65.236-53.074,118.311-118.311,118.311C190.764,374.311,137.689,321.236,137.689,256z"/>
<path d="M293.737,256c0-20.808-16.929-37.737-37.737-37.737c-20.808,0-37.737,16.929-37.737,37.737
	c0,20.808,16.929,37.737,37.737,37.737C276.808,293.737,293.737,276.808,293.737,256z M238.661,256
	c0-9.561,7.778-17.339,17.339-17.339c9.561,0,17.339,7.778,17.339,17.339c0,9.561-7.778,17.339-17.339,17.339
	C246.439,273.339,238.661,265.561,238.661,256z"/>
<path d="M269.603,457.493c-4.498,0.3-9.075,0.451-13.603,0.451c-5.633,0-10.199,4.566-10.199,10.199s4.566,10.199,10.199,10.199
	c4.977,0,10.008-0.167,14.955-0.496c5.621-0.373,9.875-5.233,9.5-10.854C280.082,461.374,275.228,457.122,269.603,457.493z"/>
<path d="M404.466,392.894c-27.463,29.769-62.684,50.394-101.854,59.647c-5.482,1.295-8.876,6.789-7.582,12.271
	c1.109,4.694,5.295,7.857,9.918,7.857c0.777,0,1.566-0.09,2.354-0.276c43.144-10.191,81.926-32.899,112.158-65.668
	c3.82-4.14,3.56-10.593-0.58-14.413C414.738,388.493,408.285,388.755,404.466,392.894z"/>
<g>
</g>
<g>
</g>
<g>
</g>
<g>
</g>
<g>
</g>
<g>
</g>
<g>
</g>
<g>
</g>
<g>
</g>
<g>
</g>
<g>
</g>
<g>
</g>
<g>
</g>
<g>
</g>
<g>
</g>
</svg>
