<?xml version="1.0" encoding="iso-8859-1"?>
<!-- Generator: Adobe Illustrator 19.0.0, SVG Export Plug-In . SVG Version: 6.00 Build 0)  -->
<svg version="1.1" id="Layer_1" xmlns="http://www.w3.org/2000/svg" xmlns:xlink="http://www.w3.org/1999/xlink" x="0px" y="0px"
	 viewBox="0 0 512 512" style="enable-background:new 0 0 512 512;" xml:space="preserve">
<g>
	<circle style="fill:#50A5DC;" cx="115.312" cy="344.998" r="105.113"/>
	<circle style="fill:#50A5DC;" cx="396.392" cy="344.998" r="105.113"/>
</g>
<path d="M512,142.997c0-22.634-8.815-43.916-24.82-59.922l-28.402-28.402c-3.984-3.982-10.44-3.982-14.425,0
	c-3.983,3.983-3.983,10.441,0,14.425l28.402,28.402c12.153,12.152,18.846,28.311,18.846,45.498v137.015
	c-20.791-30.363-55.709-50.327-95.207-50.327c-46.56,0-86.762,27.74-104.952,67.558c-10.482-6.922-22.75-10.645-35.589-10.645
	s-25.107,3.723-35.589,10.645c-18.19-39.819-58.39-67.559-104.951-67.559c-39.315,0-74.091,19.781-94.917,49.909V142.997
	c0-17.187,6.694-33.344,18.846-45.498l28.402-28.402c3.983-3.983,3.983-10.441,0-14.425c-3.984-3.982-10.44-3.982-14.425,0
	L24.82,83.075C8.815,99.081,0,120.362,0,142.997v202.001c0,63.585,51.73,115.315,115.315,115.315s115.314-51.73,115.314-115.315
	c0-9.5-1.163-18.731-3.339-27.568c7.995-6.749,17.999-10.434,28.565-10.434c10.566,0,20.571,3.685,28.565,10.433
	c-2.177,8.838-3.339,18.069-3.339,27.569c0,63.585,51.73,115.315,115.315,115.315c62.748,0,113.944-50.378,115.282-112.81
	c0.203-0.803,0.322-1.638,0.322-2.504V142.997z M115.315,439.915c-52.337,0-94.917-42.58-94.917-94.917s42.58-94.916,94.917-94.916
	s94.916,42.579,94.916,94.916S167.651,439.915,115.315,439.915z M396.395,439.915c-52.336,0-94.917-42.58-94.917-94.917
	s42.58-94.916,94.917-94.916s94.916,42.579,94.916,94.916S448.732,439.915,396.395,439.915z"/>
<path d="M404.436,409.222c-2.649,0.327-5.354,0.494-8.041,0.494c-5.632,0-10.199,4.567-10.199,10.199
	c0,5.632,4.567,10.199,10.199,10.199c3.521,0,7.068-0.218,10.545-0.648c5.589-0.692,9.562-5.784,8.87-11.374
	C415.12,412.503,410.038,408.543,404.436,409.222z"/>
<path d="M454.957,372.586c-5.341,11.318-13.797,20.802-24.456,27.426c-4.783,2.974-6.251,9.263-3.278,14.046
	c1.933,3.108,5.263,4.816,8.672,4.816c1.838,0,3.698-0.496,5.375-1.538c14-8.702,25.111-21.165,32.133-36.043
	c2.404-5.094,0.224-11.173-4.869-13.577C463.434,365.309,457.36,367.492,454.957,372.586z"/>
<g>
</g>
<g>
</g>
<g>
</g>
<g>
</g>
<g>
</g>
<g>
</g>
<g>
</g>
<g>
</g>
<g>
</g>
<g>
</g>
<g>
</g>
<g>
</g>
<g>
</g>
<g>
</g>
<g>
</g>
</svg>
