<?xml version="1.0" encoding="iso-8859-1"?>
<!-- Generator: Adobe Illustrator 19.0.0, SVG Export Plug-In . SVG Version: 6.00 Build 0)  -->
<svg version="1.1" id="Layer_1" xmlns="http://www.w3.org/2000/svg" xmlns:xlink="http://www.w3.org/1999/xlink" x="0px" y="0px"
	 viewBox="0 0 512 512" style="enable-background:new 0 0 512 512;" xml:space="preserve">
<path style="fill:#F2484B;" d="M365.141,33.932c-44.595,0-84.197,21.364-109.141,54.413
	c-24.944-33.048-64.546-54.413-109.141-54.413c-75.475,0-136.66,61.185-136.66,136.659c0,43.128,37.086,89.211,68.874,120.789
	c54.003,53.646,106.81,108.482,157.623,165.158L256,478.068l19.303-21.531c50.813-56.676,103.62-111.512,157.623-165.158
	c31.789-31.578,68.875-77.66,68.875-120.789C501.801,95.117,440.616,33.932,365.141,33.932z"/>
<path d="M256,488.267c-2.898,0-5.66-1.233-7.594-3.391l-19.303-21.531c-47.18-52.624-98.607-106.507-157.217-164.729
	C39.092,266.039,0,217.384,0,170.591C0,89.613,65.881,23.733,146.859,23.733c23.431,0,45.828,5.358,66.57,15.925
	c15.986,8.144,30.511,19.32,42.571,32.687c12.061-13.367,26.584-24.543,42.572-32.687c20.742-10.566,43.139-15.925,66.57-15.925
	C446.119,23.733,512,89.613,512,170.591c0,46.793-39.091,95.448-71.886,128.024c-58.61,58.223-110.036,112.107-157.217,164.73
	l-19.303,21.531C261.66,487.034,258.898,488.267,256,488.267z M146.859,44.131c-69.731,0-126.461,56.73-126.461,126.46
	c0,39.777,35.817,83.706,65.863,113.553c58.891,58.503,110.583,112.665,158.03,165.586L256,462.79l11.709-13.06
	c47.447-52.921,99.138-107.083,158.03-165.586c30.047-29.847,65.863-73.776,65.863-113.553c0-69.731-56.73-126.46-126.461-126.46
	c-40.032,0-76.845,18.354-101.001,50.358c-1.928,2.554-4.942,4.055-8.14,4.055c-3.198,0-6.213-1.501-8.14-4.055
	C223.704,62.485,186.891,44.131,146.859,44.131z"/>
<path d="M290.677,398.789c-2.61,0-5.221-0.995-7.212-2.987c-3.983-3.983-3.983-10.441,0-14.425l58.41-58.41
	c3.983-3.983,10.441-3.983,14.425,0c3.983,3.983,3.983,10.441,0,14.425l-58.41,58.41
	C295.898,397.793,293.287,398.789,290.677,398.789z"/>
<path d="M258.04,431.416c-2.61,0-5.221-0.995-7.212-2.987c-3.983-3.983-3.983-10.441,0-14.425l7.475-7.475
	c3.983-3.983,10.441-3.983,14.425,0c3.983,3.983,3.983,10.441,0,14.425l-7.475,7.475C263.261,430.421,260.65,431.416,258.04,431.416
	z"/>
<g>
</g>
<g>
</g>
<g>
</g>
<g>
</g>
<g>
</g>
<g>
</g>
<g>
</g>
<g>
</g>
<g>
</g>
<g>
</g>
<g>
</g>
<g>
</g>
<g>
</g>
<g>
</g>
<g>
</g>
</svg>
