<?xml version="1.0" encoding="iso-8859-1"?>
<!-- Generator: Adobe Illustrator 19.0.0, SVG Export Plug-In . SVG Version: 6.00 Build 0)  -->
<svg version="1.1" id="Layer_1" xmlns="http://www.w3.org/2000/svg" xmlns:xlink="http://www.w3.org/1999/xlink" x="0px" y="0px"
	 viewBox="0 0 512 512" style="enable-background:new 0 0 512 512;" xml:space="preserve">
<path style="fill:#E6E6E6;" d="M333.978,450.177H178.024c-32.749,0-59.296-26.547-59.296-59.296V69.495
	c0-32.749,26.548-59.296,59.296-59.296h155.954c32.749,0,59.296,26.548,59.296,59.296v321.386
	C393.274,423.629,366.726,450.177,333.978,450.177z"/>
<rect x="171.439" y="65.346" style="fill:#F2484B;" width="169.123" height="120.85"/>
<rect x="171.439" y="331.678" style="fill:#FFCC75;" width="169.123" height="170.123"/>
<path d="M333.978,0H178.024c-38.319,0-69.495,31.175-69.495,69.495V390.88c0,16.777,6.06,32.977,17.065,45.617
	c9.413,10.81,21.891,18.404,35.647,21.824v43.479c0,5.632,4.566,10.199,10.199,10.199h169.12c5.633,0,10.199-4.567,10.199-10.199
	v-43.479c13.757-3.421,26.234-11.015,35.647-21.824c11.005-12.64,17.065-28.839,17.065-45.617V69.495
	C403.473,31.175,372.297,0,333.978,0z M330.362,491.602H181.639V341.875h148.722L330.362,491.602L330.362,491.602z M383.074,390.88
	c0,20.822-13.359,39.188-32.314,46.132V331.676c0-5.632-4.566-10.199-10.199-10.199H171.44c-5.633,0-10.199,4.567-10.199,10.199
	v105.336c-18.955-6.944-32.314-25.31-32.314-46.132V69.495c0-27.072,22.025-49.097,49.097-49.097h155.954
	c27.072,0,49.097,22.025,49.097,49.097V390.88z"/>
<path d="M340.561,55.143H171.44c-5.633,0-10.199,4.567-10.199,10.199V186.19c0,5.632,4.566,10.199,10.199,10.199h169.12
	c5.633,0,10.199-4.567,10.199-10.199V65.342C350.76,59.71,346.194,55.143,340.561,55.143z M330.362,175.991H181.639V75.541h148.722
	L330.362,175.991L330.362,175.991z"/>
<path d="M193.231,219.402c-6.918,0-12.546,5.629-12.546,12.546s5.628,12.546,12.546,12.546c6.917,0,12.545-5.629,12.545-12.546
	S200.148,219.402,193.231,219.402z"/>
<path d="M318.771,219.402c-6.917,0-12.545,5.629-12.545,12.546s5.628,12.546,12.545,12.546c6.918,0,12.546-5.629,12.546-12.546
	S325.689,219.402,318.771,219.402z"/>
<path d="M256.001,219.402c-6.918,0-12.546,5.629-12.546,12.546s5.628,12.546,12.546,12.546c6.918,0,12.546-5.629,12.546-12.546
	S262.919,219.402,256.001,219.402z"/>
<path d="M216.109,382.94h79.783c5.633,0,10.199-4.567,10.199-10.199c0-5.632-4.566-10.199-10.199-10.199h-79.783
	c-5.633,0-10.199,4.567-10.199,10.199C205.91,378.373,210.476,382.94,216.109,382.94z"/>
<path d="M216.109,427.524h79.783c5.633,0,10.199-4.567,10.199-10.199c0-5.632-4.566-10.199-10.199-10.199h-79.783
	c-5.633,0-10.199,4.567-10.199,10.199C205.91,422.957,210.476,427.524,216.109,427.524z"/>
<path d="M295.892,451.71H263.04c-5.633,0-10.199,4.567-10.199,10.199c0,5.632,4.566,10.199,10.199,10.199h32.852
	c5.633,0,10.199-4.567,10.199-10.199C306.091,456.278,301.525,451.71,295.892,451.71z"/>
<path d="M216.109,472.109h7.039c5.633,0,10.199-4.567,10.199-10.199c0-5.632-4.566-10.199-10.199-10.199h-7.039
	c-5.633,0-10.199,4.567-10.199,10.199C205.91,467.542,210.476,472.109,216.109,472.109z"/>
<g>
</g>
<g>
</g>
<g>
</g>
<g>
</g>
<g>
</g>
<g>
</g>
<g>
</g>
<g>
</g>
<g>
</g>
<g>
</g>
<g>
</g>
<g>
</g>
<g>
</g>
<g>
</g>
<g>
</g>
</svg>
