<?xml version="1.0" encoding="iso-8859-1"?>
<!-- Generator: Adobe Illustrator 19.0.0, SVG Export Plug-In . SVG Version: 6.00 Build 0)  -->
<svg version="1.1" id="Layer_1" xmlns="http://www.w3.org/2000/svg" xmlns:xlink="http://www.w3.org/1999/xlink" x="0px" y="0px"
	 viewBox="0 0 512 512" style="enable-background:new 0 0 512 512;" xml:space="preserve">
<polygon style="fill:#E6E6E6;" points="10.199,131.619 10.199,235.78 98.43,235.78 202.592,131.619 "/>
<polygon style="fill:#F2484B;" points="501.801,131.619 202.592,131.619 98.43,235.78 501.801,235.78 "/>
<rect x="10.199" y="235.785" style="fill:#E6E6E6;" width="491.602" height="36.768"/>
<g>
	<circle style="fill:#FFCC75;" cx="70.245" cy="427.561" r="20.22"/>
	<circle style="fill:#FFCC75;" cx="441.554" cy="427.561" r="20.22"/>
</g>
<path style="fill:#50A5DC;" d="M107.008,99.757H70.245c-12.521,0-22.671,10.15-22.671,22.671v19.607
	c0,12.521,10.15,22.671,22.671,22.671h36.763c12.521,0,22.671-10.15,22.671-22.671v-19.607
	C129.679,109.908,119.529,99.757,107.008,99.757z"/>
<path d="M0,272.543c0,5.632,4.566,10.199,10.199,10.199h49.847v116.164c-11.771,4.202-20.219,15.458-20.219,28.654
	c0,16.773,13.646,30.419,30.418,30.419s30.419-13.647,30.419-30.419c0-13.196-8.449-24.452-20.22-28.654V282.742h351.112v49.451
	H150.948c-5.633,0-10.199,4.567-10.199,10.199s4.566,10.199,10.199,10.199h280.608v46.245
	c-11.877,4.145-20.424,15.451-20.424,28.723c0,16.773,13.646,30.419,30.419,30.419s30.419-13.647,30.419-30.419
	c0-13.12-8.35-24.326-20.015-28.584V282.742h49.845c5.633,0,10.199-4.567,10.199-10.199V64.22c0-5.632-4.566-10.199-10.199-10.199
	s-10.199,4.567-10.199,10.199v57.199H139.852c-0.536-17.658-15.058-31.86-32.844-31.86H70.245c-17.786,0-32.308,14.202-32.843,31.86
	H20.398V64.22c0-5.632-4.566-10.199-10.199-10.199S0,58.588,0,64.22V272.543z M70.245,437.58c-5.525,0-10.02-4.495-10.02-10.021
	c0-5.525,4.495-10.02,10.02-10.02c5.525,0,10.021,4.495,10.021,10.02C80.266,433.086,75.771,437.58,70.245,437.58z M441.55,437.58
	c-5.525,0-10.021-4.495-10.021-10.021c0-5.525,4.495-10.02,10.021-10.02c5.526,0,10.021,4.495,10.021,10.02
	C451.571,433.086,447.076,437.58,441.55,437.58z M491.602,225.582H123.053l83.763-83.764h284.785V225.582z M20.398,141.818h16.978
	v0.217c0,18.125,14.745,32.87,32.87,32.87h36.763c18.125,0,32.87-14.745,32.87-32.87v-0.217h38.09l-83.763,83.764H20.398V141.818z
	 M57.774,122.428c0-6.876,5.594-12.472,12.472-12.472h36.763c6.877,0,12.472,5.594,12.472,12.472v19.607
	c0,6.876-5.594,12.472-12.472,12.472H70.245c-6.876,0-12.472-5.594-12.472-12.472v-19.607H57.774z M491.602,245.98v16.364H20.398
	V245.98H491.602z"/>
<path d="M115.251,332.193h-7.139c-5.633,0-10.199,4.567-10.199,10.199c0,5.632,4.566,10.199,10.199,10.199h7.139
	c5.633,0,10.199-4.567,10.199-10.199C125.45,336.76,120.884,332.193,115.251,332.193z"/>
<g>
</g>
<g>
</g>
<g>
</g>
<g>
</g>
<g>
</g>
<g>
</g>
<g>
</g>
<g>
</g>
<g>
</g>
<g>
</g>
<g>
</g>
<g>
</g>
<g>
</g>
<g>
</g>
<g>
</g>
</svg>
