<?xml version="1.0" encoding="iso-8859-1"?>
<!-- Generator: Adobe Illustrator 19.0.0, SVG Export Plug-In . SVG Version: 6.00 Build 0)  -->
<svg version="1.1" id="Layer_1" xmlns="http://www.w3.org/2000/svg" xmlns:xlink="http://www.w3.org/1999/xlink" x="0px" y="0px"
	 viewBox="0 0 512.001 512.001" style="enable-background:new 0 0 512.001 512.001;" xml:space="preserve">
<rect x="140.81" y="428.224" style="fill:#E6E6E6;" width="230.38" height="35.034"/>
<g>
	<circle style="fill:#FFCC75;" cx="141.249" cy="482.535" r="19.271"/>
	<circle style="fill:#FFCC75;" cx="370.751" cy="482.535" r="19.271"/>
	<circle style="fill:#FFCC75;" cx="256" cy="482.535" r="19.271"/>
</g>
<polygon style="fill:#E6E6E6;" points="217.61,70.094 152.561,70.094 152.561,115.707 217.61,97.297 "/>
<polygon style="fill:#FFCC75;" points="152.561,115.707 152.561,171.401 217.61,171.401 217.61,97.297 "/>
<polygon style="fill:#E6E6E6;" points="360.505,151.139 295.456,151.139 295.456,196.752 360.505,178.342 "/>
<polygon style="fill:#F2484B;" points="295.456,196.752 295.456,252.446 360.505,252.446 360.505,178.342 "/>
<path d="M381.387,455.055v-26.834c0-5.632-4.567-10.199-10.199-10.199H140.812c-5.632,0-10.199,4.567-10.199,10.199v26.834
	c-11.007,4.276-18.833,14.975-18.833,27.476c0,16.25,13.22,29.471,29.471,29.471s29.471-13.22,29.471-29.471
	c0-3.165-0.507-6.212-1.435-9.072h58.679c-0.928,2.86-1.435,5.907-1.435,9.072C226.529,498.78,239.75,512,256,512
	s29.471-13.22,29.471-29.471c0-3.165-0.507-6.212-1.435-9.072h58.679c-0.927,2.86-1.435,5.907-1.435,9.072
	c0,16.25,13.22,29.471,29.471,29.471s29.471-13.22,29.471-29.471C400.22,470.03,392.394,459.33,381.387,455.055z M151.011,438.419
	H360.99v14.64H151.011V438.419z M150.322,482.529c0,5.002-4.069,9.072-9.072,9.072c-5.003,0-9.072-4.069-9.072-9.072
	c0-5.003,4.069-9.072,9.072-9.072C146.253,473.457,150.322,477.528,150.322,482.529z M265.072,482.529
	c0,5.002-4.069,9.072-9.072,9.072c-5.003,0-9.072-4.069-9.072-9.072c0-5.003,4.069-9.072,9.072-9.072
	C261.003,473.457,265.072,477.528,265.072,482.529z M370.75,491.602c-5.002,0-9.072-4.069-9.072-9.072
	c0-5.003,4.069-9.072,9.072-9.072c5.003,0,9.072,4.069,9.072,9.072C379.822,487.532,375.752,491.602,370.75,491.602z"/>
<path d="M256,369.211c-5.632,0-10.199,4.567-10.199,10.199v14.279c0,5.632,4.567,10.199,10.199,10.199
	c5.632,0,10.199-4.567,10.199-10.199V379.41C266.199,373.778,261.632,369.211,256,369.211z"/>
<path d="M285.257,252.446c0,5.632,4.567,10.199,10.199,10.199h65.048c5.632,0,10.199-4.567,10.199-10.199V151.14
	c0-5.632-4.567-10.199-10.199-10.199H338.18v-6.439h21.259c5.632,0,10.199-4.567,10.199-10.199V90.177
	c0-5.632-4.567-10.199-10.199-10.199c-5.632,0-10.199,4.567-10.199,10.199v23.925h-83.041V10.199C266.199,4.567,261.632,0,256,0
	c-5.632,0-10.199,4.567-10.199,10.199v23.925H162.76V10.199C162.76,4.567,158.193,0,152.561,0c-5.632,0-10.199,4.567-10.199,10.199
	v34.124c0,5.632,4.567,10.199,10.199,10.199h22.326v5.373h-22.326c-5.632,0-10.199,4.567-10.199,10.199v101.306
	c0,5.632,4.567,10.199,10.199,10.199h65.049c5.632,0,10.199-4.567,10.199-10.199V70.095c0-5.632-4.567-10.199-10.199-10.199h-22.326
	v-5.373h50.517v287.15c0,5.632,4.567,10.199,10.199,10.199c5.632,0,10.199-4.567,10.199-10.199V134.501h51.582v6.439h-22.326
	c-5.632,0-10.199,4.567-10.199,10.199v101.307H285.257z M305.656,242.246v-37.781l44.65-12.637v50.418H305.656z M350.306,170.63
	l-44.65,12.637v-21.927h44.65V170.63z M162.76,161.201v-37.781l44.651-12.637v50.418L162.76,161.201L162.76,161.201z
	 M207.411,80.294v9.289L162.76,102.22V80.294H207.411z"/>
<g>
</g>
<g>
</g>
<g>
</g>
<g>
</g>
<g>
</g>
<g>
</g>
<g>
</g>
<g>
</g>
<g>
</g>
<g>
</g>
<g>
</g>
<g>
</g>
<g>
</g>
<g>
</g>
<g>
</g>
</svg>
