<?xml version="1.0" encoding="iso-8859-1"?>
<!-- Generator: Adobe Illustrator 19.0.0, SVG Export Plug-In . SVG Version: 6.00 Build 0)  -->
<svg version="1.1" id="Layer_1" xmlns="http://www.w3.org/2000/svg" xmlns:xlink="http://www.w3.org/1999/xlink" x="0px" y="0px"
	 viewBox="0 0 512 512" style="enable-background:new 0 0 512 512;" xml:space="preserve">
<g>
	<path style="fill:#FFCC75;" d="M85.507,246.322c-13.016,0-26.031-4.966-35.962-14.896c-25.372-25.373-39.345-59.089-39.345-94.939
		s13.974-69.568,39.345-94.94c19.863-19.861,52.062-19.861,71.925,0c19.861,19.862,19.861,52.063,0,71.925
		c-6.16,6.16-9.554,14.334-9.554,23.016s3.393,16.855,9.554,23.016c19.861,19.862,19.861,52.063,0,71.925
		C111.538,241.357,98.523,246.322,85.507,246.322z"/>
	<path style="fill:#FFCC75;" d="M426.493,246.322c13.016,0,26.031-4.966,35.962-14.896c25.372-25.373,39.345-59.089,39.345-94.939
		s-13.974-69.568-39.345-94.94c-19.863-19.861-52.062-19.861-71.925,0c-19.861,19.862-19.861,52.063,0,71.925
		c6.16,6.16,9.554,14.334,9.554,23.016s-3.393,16.855-9.554,23.016c-19.861,19.862-19.861,52.063,0,71.925
		C400.462,241.357,413.477,246.322,426.493,246.322z"/>
	<ellipse style="fill:#FFCC75;" cx="256" cy="438.169" rx="78.228" ry="47.151"/>
</g>
<path d="M512,136.486c0-38.573-15.034-74.852-42.334-102.152c-23.805-23.804-62.54-23.804-86.348,0
	c-23.805,23.806-23.805,62.542,0,86.347c4.235,4.235,6.566,9.847,6.566,15.804c0,5.956-2.332,11.569-6.566,15.804
	c-23.805,23.806-23.805,62.542,0.001,86.348c9.845,9.844,22.464,15.898,36.09,17.462v4.172c0,29.24-23.789,53.029-53.029,53.029
	H340.75c-39.06,0-71.293,29.787-75.177,67.838c-3.14-0.21-6.332-0.323-9.572-0.323c-3.24,0-6.432,0.113-9.572,0.323
	c-3.885-38.051-36.117-67.838-75.177-67.838h-25.631c-29.24,0-53.029-23.789-53.029-53.029V256.1
	c13.626-1.566,26.245-7.618,36.091-17.463c23.805-23.806,23.805-62.542,0-86.349c-4.235-4.234-6.566-9.846-6.566-15.804
	c0-5.956,2.332-11.569,6.566-15.804c23.805-23.806,23.805-62.542-0.001-86.348c-23.805-23.804-62.54-23.804-86.347,0
	C15.034,61.634,0,97.912,0,136.486s15.034,74.852,42.334,102.152c8.326,8.325,18.636,13.932,29.858,16.417v5.218
	c0,40.488,32.939,73.427,73.427,73.427h25.631c28.795,0,52.495,22.178,54.948,50.347c-34.496,7.77-58.629,28.776-58.629,54.121
	c0,32.16,38.844,57.352,88.43,57.352s88.43-25.192,88.43-57.352c0-25.345-24.133-46.351-58.629-54.121
	c2.454-28.17,26.153-50.347,54.948-50.347h25.631c40.488,0,73.427-32.939,73.427-73.427v-5.218
	c11.223-2.485,21.534-8.092,29.859-16.418C496.966,211.338,512,175.06,512,136.486z M20.398,136.486
	c0-33.125,12.912-64.28,36.357-87.727c7.928-7.927,18.337-11.888,28.751-11.888c10.411,0,20.825,3.963,28.75,11.888
	c15.853,15.853,15.853,41.647,0,57.501c-8.087,8.088-12.541,18.823-12.541,30.227c0,11.406,4.454,22.14,12.541,30.227
	c15.853,15.853,15.853,41.648,0.001,57.501c-7.681,7.679-17.891,11.909-28.751,11.909s-21.07-4.23-28.75-11.909
	C33.311,200.767,20.398,169.611,20.398,136.486z M324.032,438.169c0,11.981-11.265,20.56-17.979,24.607
	c-13.209,7.962-30.985,12.346-50.053,12.346c-19.067,0-36.844-4.385-50.053-12.346c-6.714-4.047-17.979-12.626-17.979-24.607
	s11.265-20.56,17.979-24.607c13.209-7.962,30.985-12.346,50.053-12.346c19.067,0,36.844,4.385,50.053,12.346
	C312.767,417.608,324.032,426.187,324.032,438.169z M426.493,236.122c-10.859,0-21.07-4.23-28.75-11.909
	c-15.853-15.853-15.853-41.648,0-57.501c8.087-8.088,12.541-18.823,12.541-30.227s-4.454-22.139-12.541-30.227
	c-15.853-15.853-15.853-41.647-0.001-57.5c7.928-7.927,18.337-11.888,28.751-11.888c10.411,0,20.825,3.963,28.75,11.888
	c23.447,23.447,36.359,54.602,36.359,87.728s-12.912,64.282-36.357,87.728C447.562,231.893,437.353,236.122,426.493,236.122z"/>
<path d="M246.147,445.776c-3.831-0.325-7.515-0.84-10.951-1.532c-5.521-1.115-10.9,2.464-12.011,7.987
	c-1.111,5.522,2.465,10.9,7.987,12.011c4.192,0.844,8.649,1.47,13.248,1.86c0.294,0.024,0.585,0.037,0.875,0.037
	c5.242,0,9.699-4.017,10.15-9.336C255.922,451.19,251.759,446.253,246.147,445.776z"/>
<path d="M279.566,464.288c0.694,0,1.399-0.071,2.105-0.219c20.953-4.399,32.971-13.838,32.971-25.901
	c0-5.633-4.567-10.199-10.199-10.199c-5.321,0-9.69,4.076-10.157,9.274c-1.33,1.509-6.586,4.717-16.806,6.862
	c-5.512,1.158-9.043,6.564-7.886,12.077C270.603,460.989,274.843,464.288,279.566,464.288z"/>
<g>
</g>
<g>
</g>
<g>
</g>
<g>
</g>
<g>
</g>
<g>
</g>
<g>
</g>
<g>
</g>
<g>
</g>
<g>
</g>
<g>
</g>
<g>
</g>
<g>
</g>
<g>
</g>
<g>
</g>
</svg>
