<?xml version="1.0" encoding="iso-8859-1"?>
<!-- Generator: Adobe Illustrator 19.0.0, SVG Export Plug-In . SVG Version: 6.00 Build 0)  -->
<svg version="1.1" id="Layer_1" xmlns="http://www.w3.org/2000/svg" xmlns:xlink="http://www.w3.org/1999/xlink" x="0px" y="0px"
	 viewBox="0 0 512 512" style="enable-background:new 0 0 512 512;" xml:space="preserve">
<path style="fill:#E6E6E6;" d="M408.478,501.801H103.522c-32.953,0-59.665-26.713-59.665-59.665v-255.49
	c0-97.448,78.998-176.446,176.446-176.446h71.394c97.448,0,176.446,78.998,176.446,176.446v255.49
	C468.143,475.088,441.431,501.801,408.478,501.801z"/>
<path style="fill:#FFCC75;" d="M150.438,152.478c0-58.3,47.262-105.562,105.562-105.562s105.562,47.262,105.562,105.562H150.438z"/>
<g>
	<path style="fill:#6DA8D6;" d="M184.861,469.163h-80.064c-14.786,0-26.773-11.987-26.773-26.773V214.438
		c0-14.786,11.987-26.773,26.773-26.773h80.064c14.786,0,26.773,11.987,26.773,26.773V442.39
		C211.633,457.176,199.646,469.163,184.861,469.163z"/>
	<path style="fill:#6DA8D6;" d="M407.203,469.163h-80.064c-14.786,0-26.773-11.987-26.773-26.773V214.438
		c0-14.786,11.987-26.773,26.773-26.773h80.064c14.786,0,26.773,11.987,26.773,26.773V442.39
		C433.976,457.176,421.989,469.163,407.203,469.163z"/>
</g>
<path d="M291.697,0h-71.394C117.387,0,33.657,83.728,33.657,186.645v255.49c0,38.523,31.341,69.865,69.865,69.865h304.956
	c38.523,0,69.865-31.341,69.865-69.865v-255.49C478.343,83.728,394.613,0,291.697,0z M457.944,442.135
	c0,27.276-22.19,49.466-49.466,49.466H103.522c-27.276,0-49.466-22.19-49.466-49.466v-255.49
	c0-91.668,74.578-166.247,166.247-166.247h71.394c91.669,0,166.247,74.579,166.247,166.247V442.135z"/>
<path d="M150.438,162.677h211.124c5.632,0,10.199-4.566,10.199-10.199c0-63.831-51.93-115.761-115.761-115.761
	s-115.761,51.93-115.761,115.761C140.239,158.111,144.806,162.677,150.438,162.677z M256,57.116
	c49.14,0,89.717,37.356,94.821,85.163h-84.622V82.614c0-5.633-4.567-10.199-10.199-10.199c-5.632,0-10.199,4.566-10.199,10.199
	v59.665h-84.622C166.283,94.471,206.86,57.116,256,57.116z"/>
<path d="M184.861,177.466h-80.064c-20.386,0-36.972,16.586-36.972,36.972V442.39c0,20.386,16.586,36.972,36.972,36.972h80.064
	c20.386,0,36.972-16.586,36.972-36.972V214.438C221.833,194.052,205.247,177.466,184.861,177.466z M201.434,442.39
	c0,9.138-7.435,16.574-16.574,16.574h-80.064c-9.138,0-16.574-7.435-16.574-16.574V214.438c0-9.138,7.435-16.574,16.574-16.574
	h80.064c9.138,0,16.574,7.435,16.574,16.574V442.39z"/>
<path d="M327.139,177.466c-20.386,0-36.972,16.586-36.972,36.972V442.39c0,20.386,16.586,36.972,36.972,36.972h80.064
	c20.386,0,36.972-16.586,36.972-36.972V214.438c0-20.386-16.586-36.972-36.972-36.972H327.139z M423.777,214.438V442.39
	c0,9.138-7.435,16.574-16.574,16.574h-80.064c-9.138,0-16.574-7.435-16.574-16.574V214.438c0-9.138,7.435-16.574,16.574-16.574
	h80.064C416.342,197.865,423.777,205.3,423.777,214.438z"/>
<path d="M335.554,430.406h-4.08c-5.632,0-10.199,4.566-10.199,10.199s4.567,10.199,10.199,10.199h4.08
	c5.632,0,10.199-4.566,10.199-10.199S341.186,430.406,335.554,430.406z"/>
<path d="M367.171,430.406c-5.632,0-10.199,4.566-10.199,10.199s4.567,10.199,10.199,10.199h37.737
	c5.632,0,10.199-4.566,10.199-10.199s-4.567-10.199-10.199-10.199H367.171z"/>
<g>
</g>
<g>
</g>
<g>
</g>
<g>
</g>
<g>
</g>
<g>
</g>
<g>
</g>
<g>
</g>
<g>
</g>
<g>
</g>
<g>
</g>
<g>
</g>
<g>
</g>
<g>
</g>
<g>
</g>
</svg>
