<?xml version="1.0" encoding="iso-8859-1"?>
<!-- Generator: Adobe Illustrator 19.0.0, SVG Export Plug-In . SVG Version: 6.00 Build 0)  -->
<svg version="1.1" id="Layer_1" xmlns="http://www.w3.org/2000/svg" xmlns:xlink="http://www.w3.org/1999/xlink" x="0px" y="0px"
	 viewBox="0 0 512 512" style="enable-background:new 0 0 512 512;" xml:space="preserve">
<g>
	<rect x="86.397" y="10.199" style="fill:#F2484B;" width="31.954" height="76.198"/>
	<rect x="162.596" y="10.199" style="fill:#F2484B;" width="31.954" height="76.198"/>
</g>
<path style="fill:#E6E6E6;" d="M65.504,74.926c0-1.129,0.919-2.048,2.049-2.048h18.844v-49.16H67.553
	c-28.238,0-51.209,22.972-51.209,51.208V194.55h49.16C65.504,194.55,65.504,74.926,65.504,74.926z"/>
<path style="fill:#F2484B;" d="M215.443,194.55v25.809c0,41.338-33.631,74.969-74.969,74.969s-74.969-33.631-74.969-74.969V194.55
	h-49.16v25.809c0,68.445,55.685,124.129,124.129,124.129s124.129-55.685,124.129-124.129V194.55H215.443z"/>
<g>
	<path style="fill:#E6E6E6;" d="M264.603,74.926c0-28.236-22.972-51.208-51.209-51.208H194.55v49.16h18.844
		c1.129,0,2.049,0.919,2.049,2.048V194.55h49.16V74.926z"/>
	<circle style="fill:#E6E6E6;" cx="451.417" cy="114.659" r="44.244"/>
</g>
<circle style="fill:#F2484B;" cx="451.417" cy="114.659" r="15.462"/>
<path d="M274.802,74.926c0-33.86-27.547-61.407-61.407-61.407h-8.646v-3.32C204.749,4.566,200.182,0,194.55,0h-31.954
	c-5.632,0-10.199,4.566-10.199,10.199v76.198c0,5.633,4.567,10.199,10.199,10.199h31.954c5.632,0,10.199-4.566,10.199-10.199v-3.32
	h0.495V194.55l-0.271,31.587H75.975l-0.271-31.587V83.078h0.495v3.32c0,5.633,4.567,10.199,10.199,10.199h31.954
	c5.632,0,10.199-4.566,10.199-10.199V10.199C128.551,4.566,123.984,0,118.352,0H86.397c-5.632,0-10.199,4.566-10.199,10.199v3.32
	h-8.646c-33.86,0-61.407,27.547-61.407,61.407v145.432c0,70.695,54.896,128.807,124.3,133.954
	c2.989,67.133,46.632,126.236,110.501,148.515c1.113,0.388,2.245,0.572,3.36,0.572c4.217,0,8.162-2.635,9.63-6.843
	c1.854-5.319-0.953-11.134-6.27-12.99c-55.693-19.427-93.82-70.809-96.783-129.281c69.224-5.33,123.92-63.362,123.92-133.928
	L274.802,74.926L274.802,74.926z M184.351,76.198h-11.556v-55.8h11.556v3.32v49.16V76.198z M204.749,62.679V33.917h8.646
	c22.613,0,41.009,18.397,41.009,41.009v109.424h-28.761V74.926c0-6.754-5.494-12.247-12.248-12.247
	C213.395,62.679,204.749,62.679,204.749,62.679z M199.698,246.535c-10.077,22.708-32.823,38.594-59.224,38.594
	c-26.402,0-49.149-15.886-59.225-38.594H199.698z M96.597,20.398h11.556v55.8H96.597v-3.32v-49.16V20.398z M26.543,74.926
	c0-22.613,18.396-41.009,41.009-41.009h8.646v28.762h-8.646c-6.754,0-12.248,5.494-12.248,12.247v109.424H26.543V74.926z
	 M26.543,220.359v-15.61h28.761v15.61c0,46.962,38.207,85.168,85.169,85.168s85.168-38.206,85.168-85.168v-15.61h28.761v15.61
	c0,62.821-51.108,113.93-113.929,113.93S26.543,283.18,26.543,220.359z"/>
<path d="M295.328,491.602c-4.984,0-10.008-0.256-14.938-0.761c-5.613-0.578-10.61,3.503-11.186,9.106
	c-0.574,5.603,3.503,10.611,9.107,11.185c5.617,0.575,11.341,0.868,17.017,0.868c5.632,0,10.199-4.566,10.199-10.199
	S300.96,491.602,295.328,491.602z"/>
<path d="M505.855,114.665c0-30.02-24.423-54.443-54.443-54.443s-54.443,24.423-54.443,54.443c0,26.534,19.084,48.682,44.244,53.471
	v178.81c0,67.461-45.79,125.362-111.352,140.806c-5.483,1.291-8.88,6.782-7.588,12.266c1.107,4.697,5.293,7.863,9.919,7.863
	c0.774,0,1.561-0.089,2.348-0.274c35.588-8.383,67.853-28.795,90.852-57.479c23.356-29.129,36.22-65.773,36.22-103.182V168.136
	C486.77,163.346,505.855,141.198,505.855,114.665z M451.412,148.709c-18.772,0-34.045-15.273-34.045-34.045
	S432.64,80.62,451.412,80.62s34.045,15.272,34.045,34.045S470.183,148.709,451.412,148.709z"/>
<path d="M451.412,89.007c-14.147,0-25.657,11.51-25.657,25.657c0,14.148,11.51,25.658,25.657,25.658
	c14.148,0,25.658-11.51,25.658-25.658C477.07,100.517,465.56,89.007,451.412,89.007z M451.412,119.924
	c-2.9,0-5.259-2.359-5.259-5.26c0-2.901,2.359-5.259,5.259-5.259c2.901,0,5.26,2.359,5.26,5.259S454.311,119.924,451.412,119.924z"
	/>
<g>
</g>
<g>
</g>
<g>
</g>
<g>
</g>
<g>
</g>
<g>
</g>
<g>
</g>
<g>
</g>
<g>
</g>
<g>
</g>
<g>
</g>
<g>
</g>
<g>
</g>
<g>
</g>
<g>
</g>
</svg>
