<?xml version="1.0" encoding="iso-8859-1"?>
<!-- Generator: Adobe Illustrator 19.0.0, SVG Export Plug-In . SVG Version: 6.00 Build 0)  -->
<svg version="1.1" id="Layer_1" xmlns="http://www.w3.org/2000/svg" xmlns:xlink="http://www.w3.org/1999/xlink" x="0px" y="0px"
	 viewBox="0 0 512 512" style="enable-background:new 0 0 512 512;" xml:space="preserve">
<polygon style="fill:#E6E6E6;" points="419.767,165.241 346.758,92.233 220.799,218.192 366.816,218.192 "/>
<polygon style="fill:#FFCC75;" points="220.799,218.192 102.864,336.129 175.872,409.137 366.816,218.192 "/>
<rect x="401.951" y="42.251" transform="matrix(-0.7071 -0.7071 0.7071 -0.7071 733.6772 420.172)" style="fill:#6DA8D6;" width="103.817" height="31.77"/>
<path d="M95.652,328.916c-3.983,3.983-3.983,10.441,0,14.425l29.292,29.292L2.987,494.589c-3.983,3.983-3.983,10.441,0,14.425
	C4.979,511.004,7.589,512,10.199,512s5.221-0.995,7.212-2.987l121.956-121.956l29.292,29.292c1.992,1.992,4.602,2.987,7.212,2.987
	c2.61,0,5.221-0.995,7.212-2.987l243.897-243.896c3.983-3.983,3.983-10.441,0-14.425l-29.292-29.292l44.945-44.945l29.493,29.493
	c1.992,1.992,4.602,2.987,7.212,2.987c2.61,0,5.221-0.995,7.212-2.987l22.464-22.464c3.983-3.983,3.983-10.441,0-14.425
	L435.604,2.987c-3.983-3.983-10.441-3.983-14.425,0l-22.464,22.464c-3.983,3.983-3.983,10.441,0,14.425l29.493,29.493
	l-44.945,44.945l-29.292-29.292c-3.983-3.983-10.441-3.983-14.425,0L95.652,328.916z M175.872,394.713l-58.584-58.584
	l107.737-107.737h117.168L175.872,394.713z M362.592,207.993H245.423L346.76,106.657l58.584,58.584L362.592,207.993z
	 M479.337,91.649l-58.985-58.985l8.04-8.04l58.985,58.985L479.337,91.649z"/>
<path d="M197.532,343.401c1.992,1.992,4.602,2.987,7.212,2.987s5.221-0.995,7.212-2.987l44.249-44.249
	c3.983-3.983,3.983-10.441,0-14.425c-3.983-3.983-10.441-3.983-14.425,0l-44.249,44.249
	C193.549,332.959,193.549,339.417,197.532,343.401z"/>
<path d="M174.84,351.669l-3.403,3.404c-3.983,3.984-3.982,10.441,0.001,14.425c1.992,1.991,4.601,2.986,7.211,2.986
	c2.61,0,5.221-0.996,7.213-2.988l3.403-3.403c3.983-3.983,3.982-10.441-0.001-14.424C185.28,347.685,178.823,347.685,174.84,351.669
	z"/>
<g>
</g>
<g>
</g>
<g>
</g>
<g>
</g>
<g>
</g>
<g>
</g>
<g>
</g>
<g>
</g>
<g>
</g>
<g>
</g>
<g>
</g>
<g>
</g>
<g>
</g>
<g>
</g>
<g>
</g>
</svg>
