<?xml version="1.0" encoding="iso-8859-1"?>
<!-- Generator: Adobe Illustrator 19.0.0, SVG Export Plug-In . SVG Version: 6.00 Build 0)  -->
<svg version="1.1" id="Layer_1" xmlns="http://www.w3.org/2000/svg" xmlns:xlink="http://www.w3.org/1999/xlink" x="0px" y="0px"
	 viewBox="0 0 512 512" style="enable-background:new 0 0 512 512;" xml:space="preserve">
<path style="fill:#E6E6E6;" d="M325.24,10.199c-7.664,0.027-15.15,2.35-21.484,6.664l-26.09,17.768
	c-6.349,4.324-13.854,6.637-21.537,6.637h-0.26c-7.682,0-15.187-2.313-21.537-6.637l-26.09-17.768
	c-6.334-4.314-13.82-6.637-21.484-6.664c-12.8-0.044-25.18,2.003-36.792,5.832c-55.142,18.179-87.395,75.465-76.321,132.46
	l24.828,127.771c2.87,14.767,2.856,29.95-0.042,44.712L69.518,468.285c0,29.831,36.128,44.701,57.128,23.514l93.558-94.393
	c19.718-19.894,51.875-19.894,71.593,0l93.558,94.393c20.999,21.187,57.128,6.316,57.128-23.514l-28.913-147.309
	c-2.897-14.762-2.912-29.945-0.042-44.712l24.828-127.771c11.075-56.995-21.179-114.281-76.321-132.46
	C350.42,12.202,338.041,10.155,325.24,10.199z"/>
<path d="M408.791,512c-11.286,0-22.218-4.483-30.682-13.021l-93.557-94.393c-7.607-7.674-17.747-11.901-28.553-11.901
	s-20.946,4.227-28.553,11.901l-93.557,94.393c-12.683,12.794-30.912,16.483-47.565,9.625c-16.658-6.856-27.005-22.306-27.005-40.319
	c0-0.659,0.064-1.318,0.192-1.964l28.912-147.308c2.656-13.537,2.669-27.265,0.038-40.803L63.634,150.437
	C51.487,87.921,87.228,25.976,146.772,6.346C159.543,2.136,172.859,0,186.355,0c0.147,0,0.292,0.001,0.439,0.001
	c9.735,0.033,19.137,2.949,27.189,8.432l26.09,17.771c4.676,3.184,10.138,4.867,15.796,4.867h0.261
	c5.658,0,11.12-1.683,15.796-4.868l26.09-17.769c8.053-5.483,17.453-8.398,27.189-8.432l0,0c0.146,0,0.293-0.001,0.439-0.001
	c13.496,0,26.811,2.135,39.584,6.346c59.543,19.63,95.285,81.575,83.137,144.091l-24.828,127.771
	c-2.631,13.538-2.618,27.266,0.038,40.804l28.914,147.309c0.127,0.647,0.192,1.304,0.192,1.964
	c0,18.013-10.347,33.464-27.005,40.319C420.134,510.885,414.419,512,408.791,512z M256,372.289c16.289,0,31.573,6.371,43.04,17.939
	l93.557,94.393c8.066,8.138,18.366,7.981,25.314,5.124c6.763-2.783,13.975-9.621,14.356-20.546l-28.706-146.257
	c-3.166-16.131-3.181-32.49-0.046-48.623l24.828-127.77c10.193-52.461-19.686-104.407-69.501-120.829
	c-10.709-3.532-21.875-5.321-33.197-5.321c-0.123,0-0.245,0-0.368,0.001l0,0c-5.649,0.019-11.105,1.711-15.778,4.894l-26.09,17.77
	c-8.075,5.499-17.507,8.405-27.277,8.405h-0.261c-9.77,0-19.202-2.908-27.277-8.405l-26.09-17.77
	c-4.673-3.183-10.129-4.875-15.778-4.894c-0.121-0.001-0.246-0.001-0.367-0.001c-11.324,0-22.49,1.79-33.197,5.32
	c-49.818,16.422-79.697,68.368-69.503,120.829l24.828,127.771c3.135,16.132,3.121,32.491-0.046,48.622L79.731,469.197
	c0.381,10.926,7.594,17.763,14.356,20.546c6.948,2.859,17.245,3.018,25.314-5.124l93.557-94.392
	C224.427,378.659,239.711,372.289,256,372.289z"/>
<path d="M338.739,409.086c-2.611,0-5.22-0.996-7.211-2.987l-3.329-3.329c-3.982-3.982-3.982-10.44,0-14.423
	c3.983-3.981,10.439-3.981,14.423,0l3.329,3.329c3.982,3.982,3.982,10.44,0,14.423C343.96,408.09,341.35,409.086,338.739,409.086z"
	/>
<path d="M403.416,473.763c-2.611,0-5.22-0.996-7.211-2.987l-43.707-43.707c-3.982-3.982-3.982-10.44,0-14.423
	c3.983-3.981,10.439-3.981,14.423,0l43.707,43.707c3.982,3.982,3.982,10.44,0,14.423
	C408.636,472.766,406.027,473.763,403.416,473.763z"/>
<g>
</g>
<g>
</g>
<g>
</g>
<g>
</g>
<g>
</g>
<g>
</g>
<g>
</g>
<g>
</g>
<g>
</g>
<g>
</g>
<g>
</g>
<g>
</g>
<g>
</g>
<g>
</g>
<g>
</g>
</svg>
