<?xml version="1.0" ?><svg height="200" id="svg2" version="1.1" width="200" xmlns="http://www.w3.org/2000/svg" xmlns:cc="http://creativecommons.org/ns#" xmlns:dc="http://purl.org/dc/elements/1.1/" xmlns:inkscape="http://www.inkscape.org/namespaces/inkscape" xmlns:rdf="http://www.w3.org/1999/02/22-rdf-syntax-ns#" xmlns:sodipodi="http://sodipodi.sourceforge.net/DTD/sodipodi-0.dtd" xmlns:svg="http://www.w3.org/2000/svg"><defs id="defs4"/><g id="layer1" style="display:inline" transform="translate(0,-852.36218)"><path d="M 100 10 C 50.294373 10 10 50.29437 10 100 C 10 149.70562 50.294373 190 100 190 C 100.75044 190 101.47964 189.916 102.21875 189.875 C 102.47878 189.861 102.73968 189.85675 103 189.84375 C 103.93792 189.7973 104.87645 189.74756 105.8125 189.6875 C 112.38024 189.26605 118.74383 188.07939 124.84375 186.3125 C 130.51682 184.66925 135.96208 182.53052 141.125 179.875 C 159.21425 170.57091 173.56721 155.26453 181.90625 136.65625 C 181.96935 136.51539 182.06257 136.39124 182.125 136.25 C 183.82639 132.40089 185.3428 128.45478 186.5 124.34375 C 187.4004 121.14502 188.17308 117.89634 188.71875 114.5625 C 189.31774 110.9029 189.67507 107.16509 189.84375 103.375 C 189.89375 102.25049 190 101.13693 190 100 C 190 96.34978 189.70363 92.78648 189.28125 89.25 C 189.19555 88.53225 189.03998 87.83748 188.9375 87.125 C 182.66932 43.54493 145.31458 10 100 10 z " id="path5955" style="fill:#ff9900;fill-opacity:1;stroke:none" transform="translate(0,852.36218)"/><g id="g3" style="fill:#ececec" transform="matrix(2.0760661,0,0,2.0760661,40.898574,889.38679)"><path clip-rule="evenodd" d="m 45.575,45.243 c -0.24,-0.002 -0.486,0.055 -0.715,0.162 -0.26,0.104 -0.523,0.223 -0.77,0.328 l -0.367,0.152 -0.477,0.189 v 0.006 c -5.168,2.096 -10.596,3.324 -15.619,3.432 -0.184,0.006 -0.369,0.006 -0.551,0.006 C 19.178,49.522 12.733,45.858 6.228,42.248 6,42.129 5.771,42.066 5.542,42.066 c -0.294,0 -0.593,0.109 -0.811,0.314 -0.219,0.205 -0.349,0.504 -0.347,0.807 -0.001,0.395 0.212,0.756 0.507,0.99 6.104,5.299 12.793,10.223 21.788,10.227 0.176,0 0.354,-0.004 0.535,-0.008 5.721,-0.129 12.195,-2.061 17.217,-5.217 l 0.029,-0.02 c 0.658,-0.393 1.316,-0.84 1.936,-1.336 0.387,-0.287 0.652,-0.732 0.648,-1.197 -0.012,-0.824 -0.713,-1.383 -1.469,-1.383 z" id="path5" style="fill:#ececec;fill-rule:evenodd"/><path clip-rule="evenodd" d="m 52.544,42.317 v -0.002 c -0.02,-0.504 -0.127,-0.885 -0.336,-1.203 l -0.021,-0.029 -0.025,-0.031 c -0.213,-0.232 -0.416,-0.32 -0.639,-0.418 -0.658,-0.254 -1.617,-0.389 -2.773,-0.393 -0.83,0 -1.748,0.078 -2.666,0.279 l -0.002,-0.061 -0.928,0.309 -0.016,0.008 -0.523,0.17 v 0.023 c -0.613,0.254 -1.172,0.572 -1.691,0.947 -0.32,0.242 -0.59,0.561 -0.605,1.051 -0.008,0.266 0.127,0.572 0.354,0.754 0.223,0.182 0.484,0.242 0.713,0.242 0.055,0 0.105,-0.002 0.15,-0.01 l 0.045,-0.004 0.035,-0.006 c 0.453,-0.096 1.113,-0.16 1.885,-0.27 0.662,-0.072 1.365,-0.127 1.975,-0.127 0.432,-0.002 0.818,0.027 1.084,0.086 0.133,0.027 0.232,0.062 0.289,0.09 0.018,0.008 0.031,0.016 0.039,0.021 0.012,0.037 0.029,0.131 0.027,0.266 0.006,0.51 -0.213,1.455 -0.508,2.377 -0.289,0.924 -0.641,1.85 -0.875,2.465 -0.055,0.143 -0.09,0.297 -0.09,0.467 -0.004,0.248 0.096,0.547 0.311,0.746 0.209,0.199 0.479,0.277 0.707,0.277 h 0.01 c 0.342,-0.004 0.631,-0.139 0.881,-0.334 2.352,-2.115 3.168,-5.488 3.201,-7.389 l -0.008,-0.301 z" id="path7" style="fill:#ececec;fill-rule:evenodd"/><path clip-rule="evenodd" d="m 31.046,19.657 c -1.383,0.104 -2.977,0.209 -4.572,0.42 -2.443,0.322 -4.889,0.744 -6.907,1.703 -3.932,1.594 -6.59,4.995 -6.59,9.989 0,6.273 4.038,9.461 9.141,9.461 1.699,0 3.084,-0.215 4.355,-0.531 2.021,-0.639 3.721,-1.807 5.742,-3.936 1.168,1.596 1.488,2.342 3.506,4.041 0.531,0.211 1.062,0.211 1.486,-0.105 1.277,-1.064 3.51,-2.979 4.678,-4.039 0.533,-0.426 0.426,-1.064 0.105,-1.592 -1.166,-1.49 -2.338,-2.766 -2.338,-5.637 v -9.565 c 0,-4.039 0.32,-7.76 -2.656,-10.52 -2.443,-2.23 -6.27,-3.082 -9.246,-3.082 h -1.277 c -5.418,0.314 -11.159,2.654 -12.434,9.352 -0.213,0.852 0.426,1.168 0.852,1.273 l 5.95,0.744 c 0.641,-0.105 0.957,-0.639 1.064,-1.166 0.531,-2.34 2.443,-3.51 4.568,-3.723 h 0.428 c 1.275,0 2.656,0.533 3.4,1.596 0.85,1.275 0.744,2.977 0.744,4.465 v 0.852 z m -1.168,12.645 c -0.744,1.484 -2.021,2.441 -3.404,2.766 -0.211,0 -0.529,0.105 -0.85,0.105 -2.336,0 -3.719,-1.809 -3.719,-4.465 0,-3.402 2.02,-4.996 4.568,-5.74 1.383,-0.318 2.977,-0.426 4.572,-0.426 v 1.277 c 10e-4,2.444 0.106,4.356 -1.167,6.483 z" id="path9" style="fill:#ececec;fill-rule:evenodd"/></g></g><g id="layer9"/><g id="layer8" style="display:inline"><path d="M 99,9.9999995 C 49.29437,9.9999995 9.000001,50.294369 9.000001,99.999998 9.000001,149.70566 49.294371,190 99,190 L 99,9.9999995 z" id="rect2995" style="opacity:0.15;fill:#ffffff;fill-opacity:1;fill-rule:nonzero;stroke:none;display:inline"/></g></svg>