<?xml version="1.0" ?><svg height="200" id="svg2" version="1.1" width="200" xmlns="http://www.w3.org/2000/svg" xmlns:cc="http://creativecommons.org/ns#" xmlns:dc="http://purl.org/dc/elements/1.1/" xmlns:inkscape="http://www.inkscape.org/namespaces/inkscape" xmlns:rdf="http://www.w3.org/1999/02/22-rdf-syntax-ns#" xmlns:sodipodi="http://sodipodi.sourceforge.net/DTD/sodipodi-0.dtd" xmlns:svg="http://www.w3.org/2000/svg"><defs id="defs4"/><g id="layer1" style="display:inline" transform="translate(0,-852.36218)"><path d="m 100,10 c -49.705627,0 -90,40.294373 -90,90 0,49.70563 40.294373,90 90,90 1.96568,0 3.87817,-0.18838 5.8125,-0.3125 6.56774,-0.42145 12.93133,-1.60811 19.03125,-3.375 5.67307,-1.64325 11.11833,-3.78198 16.28125,-6.4375 24.86147,-12.78734 42.92154,-36.76697 47.59375,-65.3125 C 189.49546,109.81711 190,104.96886 190,100 c 0,-3.650216 -0.29637,-7.213524 -0.71875,-10.75 -0.0857,-0.717749 -0.24127,-1.412524 -0.34375,-2.125 C 182.66932,43.544928 145.31458,10 100,10 z" id="path5742" style="fill:#46b061;fill-opacity:1;stroke:none" transform="translate(0,852.36218)"/><path d="m 100.04219,894.01755 c -2.54634,0 -5.09474,0.1214 -6.91261,0.375 -21.84345,3.0466 -39.28145,20.3696 -42.58488,42.3037 -1.73042,11.4895 0.7037,23.6481 6.70952,33.493 3.8835,6.3659 9.46566,12.14746 15.54364,16.09816 7.42343,4.8253 15.38775,7.4329 24.68237,8.0843 l 2.43699,0.1718 0,7.92799 c 0,4.3598 0.0724,8.0005 0.16401,8.0921 0.32856,0.3286 0.87737,0.1454 3.39775,-1.117 9.98077,-4.9988 19.05093,-11.57069 26.57259,-19.25369 11.18877,-11.42886 17.5169,-24.01956 19.64433,-39.07786 0.45613,-3.2283 0.38672,-11.1385 -0.12497,-14.3329 -3.56946,-22.2842 -20.70162,-39.3331 -42.61613,-42.3896 -1.81789,-0.2536 -4.36626,-0.375 -6.91261,-0.375 z m -23.71381,35.4848 16.3013,0 c 1.62269,0 2.92907,1.3064 2.92907,2.9291 l 0,18.957 c 0,0.2225 0.007,0.3776 -0.0312,0.5937 -0.15812,3.0607 -0.55166,4.2028 -1.46062,6.0924 -2.08632,4.3367 -6.35518,7.5155 -11.0602,8.2405 -0.85127,0.1312 -1.12829,0.067 -1.56217,-0.3671 -0.47238,-0.4724 -0.53114,-0.8153 -0.53114,-3.2649 0,-3.1189 0.0263,-3.1535 2.36668,-3.9133 1.22555,-0.3979 2.67249,-1.3028 3.33523,-2.0855 0.732,-0.8643 1.54408,-2.9344 1.54658,-3.9445 l 0,-1.0623 c -3.87492,0.034 -7.91595,-0.034 -11.83349,0 -1.62268,0 -2.92909,-1.3142 -2.92909,-2.9369 l 0,-16.3091 c 0,-1.6227 1.30638,-2.9291 2.92909,-2.9291 z m 31.04824,0 16.30128,0 c 1.62271,0 2.92906,1.3064 2.92906,2.9291 l 0,18.957 c 0,0.2225 0.007,0.3776 -0.0312,0.5937 -0.15809,3.0607 -0.55161,4.2028 -1.46062,6.0924 -2.08627,4.3367 -6.35516,7.5155 -11.0602,8.2405 -0.85127,0.1312 -1.12827,0.067 -1.56218,-0.3671 -0.47235,-0.4724 -0.53113,-0.8153 -0.53113,-3.2649 0,-3.1189 0.0264,-3.1535 2.36668,-3.9133 1.22557,-0.3979 2.67246,-1.3028 3.33525,-2.0855 0.73195,-0.8643 1.54406,-2.9344 1.54656,-3.9445 l 0,-1.0623 c -3.87487,0.034 -7.91598,-0.034 -11.83347,0 -1.62271,0 -2.92909,-1.3142 -2.92909,-2.9369 l 0,-16.3091 c 0,-1.6227 1.30636,-2.9291 2.92909,-2.9291 z" id="path12727-1" style="fill:#ececec;fill-opacity:1"/></g><g id="layer3" style="display:inline"/><g id="layer4" style="display:inline"><path d="M 98.6875 10.09375 C 59.471926 10.678953 23.778638 37.052587 13.125 76.8125 C 0.26023967 124.82445 28.76932 174.16665 76.78125 187.03125 C 78.67995 187.54005 80.56825 187.8693 82.46875 188.25 C 88.338036 189.42576 94.20854 189.91782 100 189.90625 L 100 10.09375 C 99.561451 10.093839 99.125197 10.087218 98.6875 10.09375 z " id="rect2989" style="fill:#ffffff;fill-opacity:1;fill-rule:nonzero;stroke:none;opacity:0.15"/><rect height="1.2962025" id="rect3759" style="opacity:0.1;fill:#ffffff;fill-opacity:1;fill-rule:nonzero;stroke:none" width="1.9443038" x="-113.41772" y="68.759491"/></g></svg>