<?xml version="1.0" ?><svg height="200" id="svg2" version="1.1" width="200" xmlns="http://www.w3.org/2000/svg" xmlns:cc="http://creativecommons.org/ns#" xmlns:dc="http://purl.org/dc/elements/1.1/" xmlns:inkscape="http://www.inkscape.org/namespaces/inkscape" xmlns:rdf="http://www.w3.org/1999/02/22-rdf-syntax-ns#" xmlns:sodipodi="http://sodipodi.sourceforge.net/DTD/sodipodi-0.dtd" xmlns:svg="http://www.w3.org/2000/svg"><defs id="defs4"><clipPath clipPathUnits="userSpaceOnUse" id="clipPath18"><path d="m 0,551.986 530.973,0 L 530.973,0 0,0 0,551.986 z" id="path20"/></clipPath><clipPath clipPathUnits="userSpaceOnUse" id="clipPath18-7"><path d="m 0,551.986 530.973,0 L 530.973,0 0,0 0,551.986 z" id="path20-4"/></clipPath></defs><g id="layer1" style="display:inline" transform="translate(0,-852.36218)"><path d="m 100,10 c -49.70563,0 -90,40.29437 -90,90 0,49.70572 40.29437,90 90,90 0.75044,0 1.47964,-0.084 2.21875,-0.125 0.26003,-0.014 0.52093,-0.0182 0.78125,-0.0312 0.93792,-0.046 1.87645,-0.096 2.8125,-0.15625 0.96378,-0.062 1.89076,-0.24545 2.84375,-0.34375 2.0633,-0.2128 4.13392,-0.4029 6.15625,-0.75 0.78624,-0.13493 1.53236,-0.37838 2.3125,-0.53125 2.60227,-0.50991 5.20544,-1.02204 7.71875,-1.75 5.67307,-1.6433 11.11833,-3.782 16.28125,-6.4375 18.08925,-9.3041 32.44221,-24.61048 40.78125,-43.21875 0.0631,-0.14086 0.15632,-0.26501 0.21875,-0.40625 1.70139,-3.84911 3.2178,-7.79522 4.375,-11.90625 0.46009,-1.63449 0.77841,-3.32241 1.125,-5 0.16252,-0.78665 0.37485,-1.55459 0.53125,-2.34375 0.1628,-0.82145 0.4264,-1.606 0.5625,-2.4375 0.31126,-1.90166 0.40556,-3.87224 0.59375,-5.8125 0.17397,-1.79362 0.45022,-3.55437 0.53125,-5.375 0.05,-1.12451 0.15625,-2.23807 0.15625,-3.375 0,-3.65022 -0.29637,-7.21352 -0.71875,-10.75 -0.0857,-0.71775 -0.24127,-1.41252 -0.34375,-2.125 C 182.66932,43.54488 145.31458,10 100,10 z" id="path7037" style="fill:#e96e1d;fill-opacity:1;stroke:none" transform="translate(0,852.36218)"/><path d="" id="path6013" style="fill:#000000"/><path d="" id="path6011" style="fill:#000000"/><path d="" id="path6009" style="fill:#000000"/></g><g id="layer16" style="display:inline"/><g id="layer15" style="display:inline"><path clip-rule="evenodd" d="m 149.70507,91.505182 -0.84325,-1.744657 -1.41234,-1.102872 c -1.84228,-1.443496 -11.16373,0.09346 -13.67479,-2.187053 -1.77997,-1.638731 -2.0562,-4.592186 -2.59622,-8.579973 -0.99694,-7.755416 -1.63457,-8.154195 -2.84337,-10.77118 -4.38864,-9.321453 -16.30008,-16.331236 -24.48128,-17.305336 H 81.688371 C 64.252186,49.814111 50,64.097452 50,81.53156 v 36.99711 c 0,17.40296 14.252186,31.65722 31.688371,31.65722 h 36.417639 c 17.43618,0 31.60114,-14.25426 31.69875,-31.65722 L 150,92.902985 149.70507,91.505182 z M 82.093381,75.736806 h 17.573265 c 3.350154,0 6.068914,2.722911 6.068914,6.04399 0,3.314849 -2.71876,6.068914 -6.068914,6.068914 H 82.093381 c -3.354311,0 -6.070991,-2.754065 -6.070991,-6.068914 0,-3.321079 2.71668,-6.04399 6.070991,-6.04399 z M 117.80069,124.10119 H 82.093381 c -3.354311,0 -6.070991,-2.75822 -6.070991,-6.03568 0,-3.32731 2.71668,-6.03568 6.070991,-6.03568 h 35.707309 c 3.33355,0 6.03569,2.71045 6.03569,6.03568 0,3.27746 -2.70214,6.03568 -6.03569,6.03568 z" id="path3" style="fill:#ececec;fill-rule:evenodd"/><path d="M 99,9.9999995 C 49.294369,9.9999995 9,50.294369 9,99.999998 9,149.70566 49.29437,190 99,190 L 99,9.9999995 z" id="rect2995" style="opacity:0.15;fill:#ffffff;fill-opacity:1;fill-rule:nonzero;stroke:none;display:inline"/></g></svg>