<?xml version="1.0" ?><svg height="200" id="svg2" version="1.1" width="200" xmlns="http://www.w3.org/2000/svg" xmlns:cc="http://creativecommons.org/ns#" xmlns:dc="http://purl.org/dc/elements/1.1/" xmlns:inkscape="http://www.inkscape.org/namespaces/inkscape" xmlns:rdf="http://www.w3.org/1999/02/22-rdf-syntax-ns#" xmlns:sodipodi="http://sodipodi.sourceforge.net/DTD/sodipodi-0.dtd" xmlns:svg="http://www.w3.org/2000/svg"><defs id="defs4"/><g id="layer1" style="display:inline" transform="translate(0,-852.36218)"><path d="m 100,10 c -49.705627,0 -90,40.294373 -90,90 0,49.70563 40.294373,90 90,90 1.96568,0 3.87817,-0.18838 5.8125,-0.3125 6.56774,-0.42145 12.93133,-1.60811 19.03125,-3.375 5.67307,-1.64325 11.11833,-3.78198 16.28125,-6.4375 24.86147,-12.78734 42.92154,-36.76697 47.59375,-65.3125 C 189.49546,109.81711 190,104.96886 190,100 c 0,-3.650216 -0.29637,-7.213524 -0.71875,-10.75 -0.0857,-0.717749 -0.24127,-1.412524 -0.34375,-2.125 C 182.66932,43.544928 145.31458,10 100,10 z" id="path5742" style="fill:#d4402f;fill-opacity:1;stroke:none" transform="translate(0,852.36218)"/></g><g id="layer3" style="display:inline"/><g id="layer4" style="display:inline"><g id="g3" style="fill:#ececec" transform="matrix(1,0,0,1.111108,49.999281,44.444517)"><defs id="defs5"><rect height="100" id="SVGID_1_" width="100" x="0" y="0"/></defs><path d="m 27.749,9.099 c 4.539,-3.568 13.266,-4.59 16.857,-3.894 3.594,0.692 5.471,2.702 5.494,5.15 l 0.207,31.21 c 0.017,2.451 -1.256,4.704 -2.83,5.007 -1.582,0.297 -3.91,-1.16 -5.19,-3.245 L 25.912,16.566 c -1.27,-2.088 -3.83,-3.009 1.837,-7.467 m -5.437,59.346 16.486,-5.834 c 2.297,-0.814 4.355,-3.082 4.586,-5.051 0.223,-1.969 -1.447,-4.307 -3.712,-5.203 L 22.257,45.452 c -2.267,-0.896 -4.882,1.229 -5.572,4.706 0,0 -0.414,12.109 0,14.615 0.419,2.506 3.33,4.491 5.627,3.672 m 28.756,2.916 c 0.049,-2.459 -1.263,-4.579 -2.916,-4.73 -1.653,-0.152 -4.277,1.258 -5.844,3.129 l -11.5,13.79 c -1.566,1.874 -0.788,6.275 1.494,7.108 l 12.025,4.177 c 2.289,0.833 6.32,-1.632 6.367,-4.082 L 51.068,71.361 z M 79.654,68.15 65.234,64.004 c -2.338,-0.672 -4.991,-0.607 -5.891,0.152 -0.898,0.752 -0.676,3.129 0.502,5.274 l 9.1,16.655 c 1.178,2.146 5.884,1.777 7.18,-0.304 0,0 5.484,-8.092 6.494,-11.126 1.009,-3.038 -0.628,-5.833 -2.965,-6.505 m 3.513,-23.419 c -0.649,-2.107 -5.158,-8.319 -7.601,-10.436 -2.438,-2.122 -5.229,-1.856 -6.803,0.007 l -9.293,11.07 c -1.574,1.863 -1.994,4.818 -0.945,6.555 1.05,1.737 3.849,2.722 6.224,2.188 l 16.074,-2.98 c 2.902,-0.696 3.004,-4.297 2.344,-6.404" id="path8" style="fill:#ececec"/></g><path d="M 98.6875 10.09375 C 59.471926 10.678953 23.778638 37.052587 13.125 76.8125 C 0.26023967 124.82445 28.76932 174.16665 76.78125 187.03125 C 78.67995 187.54005 80.56825 187.8693 82.46875 188.25 C 88.338036 189.42576 94.20854 189.91782 100 189.90625 L 100 10.09375 C 99.561451 10.093839 99.125197 10.087218 98.6875 10.09375 z " id="rect2989" style="fill:#ffffff;fill-opacity:1;fill-rule:nonzero;stroke:none;opacity:0.15"/><rect height="1.2962025" id="rect3759" style="opacity:0.1;fill:#ffffff;fill-opacity:1;fill-rule:nonzero;stroke:none" width="1.9443038" x="-113.41772" y="68.759491"/></g></svg>