<?xml version="1.0" ?><svg height="200" id="svg2" version="1.1" width="200" xmlns="http://www.w3.org/2000/svg" xmlns:cc="http://creativecommons.org/ns#" xmlns:dc="http://purl.org/dc/elements/1.1/" xmlns:inkscape="http://www.inkscape.org/namespaces/inkscape" xmlns:rdf="http://www.w3.org/1999/02/22-rdf-syntax-ns#" xmlns:sodipodi="http://sodipodi.sourceforge.net/DTD/sodipodi-0.dtd" xmlns:svg="http://www.w3.org/2000/svg"><defs id="defs4"/><g id="layer1" style="display:inline" transform="translate(0,-852.36218)"><path d="m 100,10 c -49.705627,0 -90,40.294373 -90,90 0,49.70563 40.294373,90 90,90 1.96568,0 3.87817,-0.18838 5.8125,-0.3125 6.56774,-0.42145 12.93133,-1.60811 19.03125,-3.375 5.67307,-1.64325 11.11833,-3.78198 16.28125,-6.4375 24.86147,-12.78734 42.92154,-36.76697 47.59375,-65.3125 C 189.49546,109.81711 190,104.96886 190,100 c 0,-3.650216 -0.29637,-7.213524 -0.71875,-10.75 -0.0857,-0.717749 -0.24127,-1.412524 -0.34375,-2.125 C 182.66932,43.544928 145.31458,10 100,10 z" id="path5742" style="fill:#da3939;fill-opacity:1;stroke:none" transform="translate(0,852.36218)"/></g><g id="layer3" style="display:inline"/><g id="layer4" style="display:inline"><path d="m 105.29156,90.416599 6.83242,3.182006 10.18397,-3.039013 V 83.491035 C 121.94781,71.464291 112.11601,61.815728 100,61.815728 c -12.07311,0 -21.87856,9.57768 -22.30856,21.544775 v 32.287637 c 0,2.92197 -2.3694,5.29218 -5.29197,5.29218 -2.92258,0 -5.29218,-2.37021 -5.29218,-5.29218 V 101.96432 H 50 c 0,0 0,13.70629 0,13.86624 0,12.34623 10.00789,22.35371 22.35391,22.35371 12.23756,0 22.15638,-9.8365 22.32899,-22.03177 l 0.0245,-31.89114 c 0,-2.922984 2.36939,-5.291768 5.29217,-5.291768 2.92217,0 5.29177,2.368579 5.29177,5.291768 v 6.155239 z m 27.60074,11.547511 v 14.32219 c 0,2.92278 -2.36939,5.29238 -5.29217,5.29238 -2.92258,0 -5.29218,-2.3696 -5.29218,-5.29238 v -14.04846 l -10.18397,3.03963 -6.83242,-3.18262 v 13.93468 c 0.10827,12.25226 10.0755,22.15413 22.35432,22.15413 12.34562,0 22.35412,-10.00728 22.35412,-22.35371 0,-0.15934 0,-13.86625 0,-13.86625 h -17.1077 z" id="icon_2_" style="fill:#ececec"/><path d="M 98.6875 10.09375 C 59.471926 10.678953 23.778638 37.052587 13.125 76.8125 C 0.26023967 124.82445 28.76932 174.16665 76.78125 187.03125 C 78.67995 187.54005 80.56825 187.8693 82.46875 188.25 C 88.338036 189.42576 94.20854 189.91782 100 189.90625 L 100 10.09375 C 99.561451 10.093839 99.125197 10.087218 98.6875 10.09375 z " id="rect2989" style="fill:#ffffff;fill-opacity:1;fill-rule:nonzero;stroke:none;opacity:0.15"/><rect height="1.2962025" id="rect3759" style="opacity:0.1;fill:#ffffff;fill-opacity:1;fill-rule:nonzero;stroke:none" width="1.9443038" x="-113.41772" y="68.759491"/></g></svg>