<?xml version="1.0" ?><svg height="200" id="svg2" version="1.1" width="200" xmlns="http://www.w3.org/2000/svg" xmlns:cc="http://creativecommons.org/ns#" xmlns:dc="http://purl.org/dc/elements/1.1/" xmlns:inkscape="http://www.inkscape.org/namespaces/inkscape" xmlns:rdf="http://www.w3.org/1999/02/22-rdf-syntax-ns#" xmlns:sodipodi="http://sodipodi.sourceforge.net/DTD/sodipodi-0.dtd" xmlns:svg="http://www.w3.org/2000/svg"><defs id="defs4"/><g id="layer1" style="display:inline" transform="translate(0,-852.36218)"><path d="M 100 10 C 50.294373 10 10 50.29437 10 100 C 10 149.70562 50.294373 190 100 190 C 100.75044 190 101.47964 189.916 102.21875 189.875 C 102.47878 189.861 102.73968 189.85675 103 189.84375 C 103.93792 189.7973 104.87645 189.74756 105.8125 189.6875 C 112.38024 189.26605 118.74383 188.07939 124.84375 186.3125 C 130.51682 184.66925 135.96208 182.53052 141.125 179.875 C 159.21425 170.57091 173.56721 155.26453 181.90625 136.65625 C 181.96935 136.51539 182.06257 136.39124 182.125 136.25 C 183.82639 132.40089 185.3428 128.45478 186.5 124.34375 C 187.4004 121.14502 188.17308 117.89634 188.71875 114.5625 C 189.31774 110.9029 189.67507 107.16509 189.84375 103.375 C 189.89375 102.25049 190 101.13693 190 100 C 190 96.34978 189.70363 92.78648 189.28125 89.25 C 189.19555 88.53225 189.03998 87.83748 188.9375 87.125 C 182.66932 43.54493 145.31458 10 100 10 z " id="path5955" style="fill:#264e80;fill-opacity:1;stroke:none" transform="translate(0,852.36218)"/><path d="M 130.67412,902.36218 H 69.32588 C 58.66952,902.36218 50,911.02985 50,921.68642 v 20.41359 40.93797 c 0,10.6565 8.66952,19.32422 19.32588,19.32422 h 61.35025 C 141.3325,1002.3622 150,993.69448 150,983.03798 V 942.09799 921.6844 c -0.002,-10.65657 -8.66952,-19.32222 -19.32588,-19.32222 z m 5.543,11.52394 2.21075,-0.008 v 2.20071 14.74945 l -16.89326,0.0545 -0.0585,-16.94815 14.741,-0.0484 z m -50.49016,28.21187 c 3.20317,-4.43166 8.39923,-7.33836 14.27304,-7.33836 5.87381,0 11.06987,2.9067 14.269,7.33836 2.08367,2.89259 3.33226,6.43066 3.33226,10.26323 0,9.70448 -7.90302,17.59956 -17.60328,17.59956 -9.70631,0 -17.60126,-7.89508 -17.60126,-17.59956 0.002,-3.83257 1.24658,-7.37064 3.33024,-10.26323 z m 54.52841,40.93789 c 0,5.287 -4.29846,9.5815 -9.58125,9.5815 H 69.32588 c -5.28481,0 -9.58326,-4.2945 -9.58326,-9.5815 v -40.93789 h 14.92657 c -1.28893,3.17095 -2.01307,6.63439 -2.01307,10.26323 0,15.07416 12.264,27.34646 27.34388,27.34646 15.07786,0 27.34186,-12.2723 27.34186,-27.34646 0,-3.62884 -0.72818,-7.09228 -2.01711,-10.26323 h 14.93062 v 40.93789 z" id="path3" style="fill:#ececec"/></g><g id="layer9"/><g id="layer8" style="display:inline"><path d="M 99,9.9999995 C 49.29437,9.9999995 9.000001,50.294369 9.000001,99.999998 9.000001,149.70566 49.294371,190 99,190 L 99,9.9999995 z" id="rect2995" style="opacity:0.15;fill:#ffffff;fill-opacity:1;fill-rule:nonzero;stroke:none;display:inline"/></g></svg>