<?xml version="1.0" ?><svg height="200" id="svg2" version="1.1" width="200" xmlns="http://www.w3.org/2000/svg" xmlns:cc="http://creativecommons.org/ns#" xmlns:dc="http://purl.org/dc/elements/1.1/" xmlns:inkscape="http://www.inkscape.org/namespaces/inkscape" xmlns:rdf="http://www.w3.org/1999/02/22-rdf-syntax-ns#" xmlns:sodipodi="http://sodipodi.sourceforge.net/DTD/sodipodi-0.dtd" xmlns:svg="http://www.w3.org/2000/svg"><defs id="defs4"/><g id="layer1" style="display:inline" transform="translate(0,-852.36218)"><path d="m 100,10 c -49.705627,0 -90,40.294373 -90,90 0,49.70563 40.294373,90 90,90 1.96568,0 3.87817,-0.18838 5.8125,-0.3125 6.56774,-0.42145 12.93133,-1.60811 19.03125,-3.375 5.67307,-1.64325 11.11833,-3.78198 16.28125,-6.4375 24.86147,-12.78734 42.92154,-36.76697 47.59375,-65.3125 C 189.49546,109.81711 190,104.96886 190,100 c 0,-3.650216 -0.29637,-7.213524 -0.71875,-10.75 -0.0857,-0.717749 -0.24127,-1.412524 -0.34375,-2.125 C 182.66932,43.544928 145.31458,10 100,10 z" id="path5742" style="fill:#557b89;fill-opacity:1;stroke:none" transform="translate(0,852.36218)"/></g><g id="layer3" style="display:inline"/><g id="layer4" style="display:inline"><path d="M 98.6875 10.09375 C 59.471926 10.678953 23.778638 37.052587 13.125 76.8125 C 0.26023967 124.82445 28.76932 174.16665 76.78125 187.03125 C 78.67995 187.54005 80.56825 187.8693 82.46875 188.25 C 88.338036 189.42576 94.20854 189.91782 100 189.90625 L 100 10.09375 C 99.561451 10.093839 99.125197 10.087218 98.6875 10.09375 z " id="rect2989" style="fill:#ffffff;fill-opacity:1;fill-rule:nonzero;stroke:none;opacity:0.15"/><rect height="1.2962025" id="rect3759" style="opacity:0.1;fill:#ffffff;fill-opacity:1;fill-rule:nonzero;stroke:none" width="1.9443038" x="-113.41772" y="68.759491"/><g id="g3" style="fill:#ececec" transform="matrix(1.3333185,0,0,1.3333185,33.333408,32.920778)"><defs id="defs5"><rect height="100" id="SVGID_1_" width="100" x="0" y="0"/></defs><path d="M 94.938,19 H 76.331 l -1.332,0.229 v 1.788 c 0,0.21 0.636,0.386 0.812,0.517 0.168,0.142 0.623,0.219 0.811,0.219 l 1.686,0.084 c 1.912,0.09 2.494,0.505 3.239,1.205 0.731,0.725 0.851,1.955 0.281,3.684 L 65.383,69.654 64.755,69.467 54.309,45.97 c 0.151,-0.353 0.242,-0.551 0.242,-0.551 l 8.553,-17.578 c 0.994,-1.854 1.957,-3.511 2.446,-4.283 0.894,-1.408 1.328,-1.674 3.763,-1.797 0.498,0 0.688,-0.244 0.688,-0.738 v -1.778 l -0.125,-0.191 c 0,0 -10.224,-0.035 -14.879,0 l 0.002,0.183 v 1.779 c 0,0.217 -0.119,0.39 0.046,0.521 0.176,0.142 0.25,0.215 0.439,0.215 l 0.697,0.089 c 1.902,0.09 2.754,0.636 3.012,0.979 0.455,0.615 0.668,1.271 -0.434,3.911 l -6.585,14.42 -5.95,-13.376 c -1.952,-4.274 -2.434,-5.597 0.507,-5.844 l 0.79,-0.183 c 0.566,0 0.478,-0.224 0.478,-0.649 v -1.87 L 47.94,19.076 c 0,0 -10.899,0 -15.873,0.003 L 32,19.262 v 1.875 c 0,0.421 0.416,0.529 1.186,0.645 2.754,0.396 2.707,0.713 5.428,6.646 0.407,0.889 1.61,3.57 1.61,3.57 l 6.203,13.391 c 0,0 0.704,1.72 1.805,4.39 l -9.016,19.763 -0.514,-0.146 c 0,0 -13.992,-32.418 -18.037,-43.266 -0.427,-1.117 -0.611,-1.953 -0.611,-2.468 0,-1.102 0.904,-1.699 2.712,-1.779 l 2.751,-0.099 C 26.08,21.784 27,21.548 27,21.057 v -1.779 l -0.829,-0.184 c 0,0 -17.139,-0.021 -20.602,0 L 5,19.279 v 1.872 c 0,0.336 0.449,0.545 1.228,0.634 2.128,0.129 3.559,0.499 4.229,1.123 0.668,0.628 1.393,2.215 2.333,4.688 5.086,13.424 15.901,37.38 21.166,51.026 1.512,3.724 3.423,4.303 5.732,-0.117 2.379,-4.848 7.179,-15.608 10.68,-23.552 3.275,7.924 7.734,18.645 9.885,23.501 1.712,3.887 3.664,4.271 5.646,0.116 5.183,-12.654 20.319,-50.736 20.319,-50.736 0.654,-1.869 1.568,-3.309 2.746,-4.355 1.169,-1.033 2.909,-1.617 5.349,-1.731 0.494,0 0.688,-0.249 0.688,-0.731 V 19.229 L 94.938,19 z" id="path8" style="fill:#ececec"/></g></g></svg>