<?xml version="1.0" ?><svg height="200" id="svg2" version="1.1" width="200" xmlns="http://www.w3.org/2000/svg" xmlns:cc="http://creativecommons.org/ns#" xmlns:dc="http://purl.org/dc/elements/1.1/" xmlns:inkscape="http://www.inkscape.org/namespaces/inkscape" xmlns:rdf="http://www.w3.org/1999/02/22-rdf-syntax-ns#" xmlns:sodipodi="http://sodipodi.sourceforge.net/DTD/sodipodi-0.dtd" xmlns:svg="http://www.w3.org/2000/svg"><defs id="defs4"/><g id="layer1" style="display:inline" transform="translate(0,-852.36218)"><path d="m 100,10 c -49.705627,0 -90,40.294373 -90,90 0,49.70563 40.294373,90 90,90 1.96568,0 3.87817,-0.18838 5.8125,-0.3125 6.56774,-0.42145 12.93133,-1.60811 19.03125,-3.375 5.67307,-1.64325 11.11833,-3.78198 16.28125,-6.4375 24.86147,-12.78734 42.92154,-36.76697 47.59375,-65.3125 C 189.49546,109.81711 190,104.96886 190,100 c 0,-3.650216 -0.29637,-7.213524 -0.71875,-10.75 -0.0857,-0.717749 -0.24127,-1.412524 -0.34375,-2.125 C 182.66932,43.544928 145.31458,10 100,10 z" id="path5742" style="fill:#60b265;fill-opacity:1;stroke:none" transform="translate(0,852.36218)"/><g id="g2989" style="fill:#ececec" transform="matrix(3.3333333,0,0,3.3333333,50,902.36218)"><path d="M 30,10 H 25 C 22,7 19,6 15,6 11,6 8,7 5,10 H 0 c 0,0 0,1.5 2,2 -0.896,1.231 -2,3.361 -2,5 0,4.125 2.875,7 7,7 2.34,0 4.631,-1.314 6,-3 l 2,3 2,-3 c 1.369,1.686 3.66,3 6,3 4.124,0 7,-2.875 7,-7 0,-1.639 -1.104,-3.768 -2,-5 2,-0.5 2,-2 2,-2 z M 7,22 c -2.761,0 -5,-2.238 -5,-5 0,-2.761 2.239,-5 5,-5 2.761,0 5,2.239 5,5 0,2.762 -2.239,5 -5,5 z m 8,-2 c 0,-5 -4,-10 -8,-10 0,0 3,-3 8,-3 5,0 8,3 8,3 -4,0 -8,5 -8,10 z m 8,2 c -2.762,0 -5,-2.238 -5,-5 0,-2.761 2.238,-5 5,-5 2.761,0 5,2.239 5,5 0,2.762 -2.239,5 -5,5 z" id="Bird" style="fill:#ececec"/><circle cx="23" cy="17" d="m 24,17 c 0,0.552285 -0.447715,1 -1,1 -0.552285,0 -1,-0.447715 -1,-1 0,-0.552285 0.447715,-1 1,-1 0.552285,0 1,0.447715 1,1 z" id="eye2_1_" r="1" style="fill:#ececec"/><path d="m 23,14 c -1.656,0 -3,1.344 -3,3 0,1.658 1.344,3 3,3 1.656,0 3,-1.342 3,-3 0,-1.656 -1.344,-3 -3,-3 z m 0,5 c -1.104,0 -2,-0.895 -2,-2 0,-1.104 0.896,-2 2,-2 1.104,0 2,0.896 2,2 0,1.105 -0.896,2 -2,2 z" id="eye2" style="fill:#ececec"/><circle cx="7" cy="17" d="m 8,17 c 0,0.552285 -0.4477153,1 -1,1 -0.5522847,0 -1,-0.447715 -1,-1 0,-0.552285 0.4477153,-1 1,-1 0.5522847,0 1,0.447715 1,1 z" id="eye1" r="1" style="fill:#ececec"/><path d="m 7,14 c -1.657,0 -3,1.343 -3,3 0,1.658 1.343,3 3,3 1.657,0 3,-1.342 3,-3 0,-1.657 -1.343,-3 -3,-3 z m 0,5 c -1.104,0 -2,-0.895 -2,-2 0,-1.104 0.896,-2 2,-2 1.104,0 2,0.896 2,2 0,1.105 -0.896,2 -2,2 z" id="eye1_1_" style="fill:#ececec"/></g></g><g id="layer3" style="display:inline"/><g id="layer4" style="display:inline"><path d="M 98.6875 10.09375 C 59.471926 10.678953 23.778638 37.052587 13.125 76.8125 C 0.26023967 124.82445 28.76932 174.16665 76.78125 187.03125 C 78.67995 187.54005 80.56825 187.8693 82.46875 188.25 C 88.338036 189.42576 94.20854 189.91782 100 189.90625 L 100 10.09375 C 99.561451 10.093839 99.125197 10.087218 98.6875 10.09375 z " id="rect2989" style="fill:#ffffff;fill-opacity:1;fill-rule:nonzero;stroke:none;opacity:0.15"/><rect height="1.2962025" id="rect3759" style="opacity:0.1;fill:#ffffff;fill-opacity:1;fill-rule:nonzero;stroke:none" width="1.9443038" x="-113.41772" y="68.759491"/></g></svg>