<?xml version="1.0" ?><svg height="200" id="svg2" version="1.1" width="200" xmlns="http://www.w3.org/2000/svg" xmlns:cc="http://creativecommons.org/ns#" xmlns:dc="http://purl.org/dc/elements/1.1/" xmlns:inkscape="http://www.inkscape.org/namespaces/inkscape" xmlns:rdf="http://www.w3.org/1999/02/22-rdf-syntax-ns#" xmlns:sodipodi="http://sodipodi.sourceforge.net/DTD/sodipodi-0.dtd" xmlns:svg="http://www.w3.org/2000/svg"><defs id="defs4"/><g id="layer1" style="display:inline" transform="translate(0,-852.36218)"><path d="m 100,10 c -49.705627,0 -90,40.294373 -90,90 0,49.70563 40.294373,90 90,90 1.96568,0 3.87817,-0.18838 5.8125,-0.3125 6.56774,-0.42145 12.93133,-1.60811 19.03125,-3.375 5.67307,-1.64325 11.11833,-3.78198 16.28125,-6.4375 24.86147,-12.78734 42.92154,-36.76697 47.59375,-65.3125 C 189.49546,109.81711 190,104.96886 190,100 c 0,-3.650216 -0.29637,-7.213524 -0.71875,-10.75 -0.0857,-0.717749 -0.24127,-1.412524 -0.34375,-2.125 C 182.66932,43.544928 145.31458,10 100,10 z" id="path5742" style="fill:#1c4b90;fill-opacity:1;stroke:none" transform="translate(0,852.36218)"/></g><g id="layer3" style="display:inline"/><g id="layer4" style="display:inline"><g id="g3" style="fill:#ececec" transform="matrix(2.0640223,0,0,2.0640223,41.492099,38.285733)"><path d="m 30.525,24.315 c 0.357,-0.229 0.699,-0.486 1.01,-0.779 0.867,-0.812 1.52,-1.855 1.793,-2.999 0.48,-1.715 -0.076,-3.203 -1.223,-4.027 -0.604,-0.434 -1.369,-0.689 -2.236,-0.689 h -5.033 l -0.162,0.689 -2.041,8.747 h 4.822 c 1.068,-0.001 2.135,-0.354 3.07,-0.942 z m -2.992,-5.096 h 2.336 c 0.121,0 0.193,0.02 0.229,0.033 0.008,0.051 0.014,0.168 -0.043,0.367 l -0.018,0.062 -0.014,0.062 c -0.262,1.086 -1.51,2.114 -2.568,2.114 h -0.539 l 0.617,-2.638 z" id="path5" style="fill:#ececec"/><path d="M 50.002,17.865 C 49.022,16.646 47.785,15.635 46.381,14.857 45.92,12.812 45.018,11.255 44.129,10.15 41.736,7.173 37.817,5.394 33.645,5.394 H 16.132 13.411 l -0.597,2.652 -7.76,34.502 -0.932,4.145 h 4.248 3.357 l -0.801,3.568 -0.934,4.145 h 4.25 10.278 2.732 l 0.586,-2.666 1.93,-8.76 h 4.609 c 8.932,0 15.916,-5.494 17.791,-13.995 1.203,-5.461 -0.514,-9.061 -2.166,-11.12 z M 12.494,43.292 H 8.371 L 16.133,8.791 h 17.512 c 3.24,0 6.814,1.467 8.564,4.574 0.602,1.07 0.988,2.336 1.068,3.805 0.057,1.021 -0.033,2.145 -0.303,3.367 -0.613,2.788 -1.891,5.114 -3.629,6.928 -2.656,2.776 -6.404,4.327 -10.58,4.389 -0.088,0.002 -0.174,0.01 -0.26,0.01 h -7.342 l -2.516,11.428 h -2.67 -3.483 z M 48.848,28.252 C 47.276,35.385 41.403,39.581 34.377,39.581 H 27.035 L 24.52,51.009 H 14.244 l 0.971,-4.316 h 3.434 2.733 l 0.588,-2.668 1.928,-8.76 h 4.609 c 8.932,0 15.914,-5.494 17.789,-13.993 0.158,-0.721 0.264,-1.407 0.328,-2.065 2.007,1.924 3.138,4.905 2.224,9.045 z" id="path7" style="fill:#ececec"/></g><path d="M 98.6875 10.09375 C 59.471926 10.678953 23.778638 37.052587 13.125 76.8125 C 0.26023967 124.82445 28.76932 174.16665 76.78125 187.03125 C 78.67995 187.54005 80.56825 187.8693 82.46875 188.25 C 88.338036 189.42576 94.20854 189.91782 100 189.90625 L 100 10.09375 C 99.561451 10.093839 99.125197 10.087218 98.6875 10.09375 z " id="rect2989" style="fill:#ffffff;fill-opacity:1;fill-rule:nonzero;stroke:none;opacity:0.15"/><rect height="1.2962025" id="rect3759" style="opacity:0.1;fill:#ffffff;fill-opacity:1;fill-rule:nonzero;stroke:none" width="1.9443038" x="-113.41772" y="68.759491"/></g></svg>