<?xml version="1.0" ?><svg height="200" id="svg2" version="1.1" width="200" xmlns="http://www.w3.org/2000/svg" xmlns:cc="http://creativecommons.org/ns#" xmlns:dc="http://purl.org/dc/elements/1.1/" xmlns:inkscape="http://www.inkscape.org/namespaces/inkscape" xmlns:rdf="http://www.w3.org/1999/02/22-rdf-syntax-ns#" xmlns:sodipodi="http://sodipodi.sourceforge.net/DTD/sodipodi-0.dtd" xmlns:svg="http://www.w3.org/2000/svg"><defs id="defs4"><clipPath clipPathUnits="userSpaceOnUse" id="clipPath18"><path d="m 0,551.986 530.973,0 L 530.973,0 0,0 0,551.986 z" id="path20"/></clipPath><clipPath clipPathUnits="userSpaceOnUse" id="clipPath18-7"><path d="m 0,551.986 530.973,0 L 530.973,0 0,0 0,551.986 z" id="path20-4"/></clipPath></defs><g id="layer1" style="display:inline" transform="translate(0,-852.36218)"><path d="m 100,10 c -49.70563,0 -90,40.29437 -90,90 0,49.70572 40.29437,90 90,90 0.75044,0 1.47964,-0.084 2.21875,-0.125 0.26003,-0.014 0.52093,-0.0182 0.78125,-0.0312 0.93792,-0.046 1.87645,-0.096 2.8125,-0.15625 0.96378,-0.062 1.89076,-0.24545 2.84375,-0.34375 2.0633,-0.2128 4.13392,-0.4029 6.15625,-0.75 0.78624,-0.13493 1.53236,-0.37838 2.3125,-0.53125 2.60227,-0.50991 5.20544,-1.02204 7.71875,-1.75 5.67307,-1.6433 11.11833,-3.782 16.28125,-6.4375 18.08925,-9.3041 32.44221,-24.61048 40.78125,-43.21875 0.0631,-0.14086 0.15632,-0.26501 0.21875,-0.40625 1.70139,-3.84911 3.2178,-7.79522 4.375,-11.90625 0.46009,-1.63449 0.77841,-3.32241 1.125,-5 0.16252,-0.78665 0.37485,-1.55459 0.53125,-2.34375 0.1628,-0.82145 0.4264,-1.606 0.5625,-2.4375 0.31126,-1.90166 0.40556,-3.87224 0.59375,-5.8125 0.17397,-1.79362 0.45022,-3.55437 0.53125,-5.375 0.05,-1.12451 0.15625,-2.23807 0.15625,-3.375 0,-3.65022 -0.29637,-7.21352 -0.71875,-10.75 -0.0857,-0.71775 -0.24127,-1.41252 -0.34375,-2.125 C 182.66932,43.54488 145.31458,10 100,10 z" id="path7037" style="fill:#ea4c89;fill-opacity:1;stroke:none" transform="translate(0,852.36218)"/><path d="" id="path6013" style="fill:#000000"/><path d="" id="path6011" style="fill:#000000"/><path d="" id="path6009" style="fill:#000000"/></g><g id="layer16" style="display:inline"/><g id="layer15" style="display:inline"><path clip-rule="evenodd" d="m 148.9866,89.931834 c -0.65537,-3.212103 -1.64044,-6.375661 -2.91476,-9.397628 -1.25208,-2.967353 -2.80554,-5.823455 -4.60982,-8.493466 -1.79012,-2.64776 -3.84319,-5.135725 -6.10461,-7.395119 -2.2594,-2.263442 -4.74938,-4.318541 -7.39512,-6.104616 -2.67001,-1.810348 -5.53016,-3.357741 -8.49347,-4.613859 -3.02196,-1.272301 -6.1835,-2.259396 -9.39763,-2.910717 -3.29099,-0.675592 -6.68109,-1.019458 -10.06715,-1.019458 -3.390099,0 -6.776159,0.343866 -10.071199,1.019458 -3.2121,0.651322 -6.37566,1.64044 -9.3956,2.910717 -2.96331,1.256118 -5.82346,2.805533 -8.49752,4.613859 -2.64776,1.786075 -5.13572,3.839151 -7.39512,6.104616 -2.26142,2.259394 -4.312469,4.749383 -6.100567,7.395119 -1.806303,2.670011 -3.357741,5.526114 -4.609814,8.493466 -1.280391,3.021967 -2.261418,6.185525 -2.918807,9.397628 C 50.341842,93.218779 50,96.608884 50,99.996965 c 0,3.394155 0.341842,6.784255 1.015413,10.073225 0.657389,3.2121 1.640438,6.37566 2.916784,9.3956 1.252074,2.96331 2.805534,5.82751 4.609814,8.49752 1.788098,2.64776 3.83915,5.13168 6.10057,7.39512 2.2594,2.25939 4.74938,4.31045 7.39512,6.10057 2.67406,1.8063 5.53421,3.35774 8.49751,4.60981 3.01792,1.28039 6.18351,2.25535 9.39561,2.91476 3.29503,0.67964 6.68109,1.01946 10.071199,1.01946 3.38606,0 6.77616,-0.33982 10.06715,-1.01946 3.21615,-0.65941 6.37566,-1.63639 9.39763,-2.91476 2.96331,-1.25207 5.82346,-2.80553 8.49347,-4.60981 2.64776,-1.79012 5.13572,-3.83916 7.39512,-6.10057 2.25939,-2.26344 4.31449,-4.74939 6.10461,-7.39512 1.8063,-2.67001 3.35774,-5.53421 4.60982,-8.49752 1.27634,-3.01792 2.25939,-6.1835 2.91476,-9.3956 0.67559,-3.29099 1.01541,-6.6811 1.01541,-10.073225 0.002,-3.388081 -0.3378,-6.778186 -1.01339,-10.065131 z m -6.2988,9.64238 c -0.61693,-0.133501 -15.06735,-3.244468 -29.74028,-1.399733 -0.29936,-0.730208 -0.60479,-1.466482 -0.92034,-2.204781 -0.88798,-2.089485 -1.84473,-4.160766 -2.83992,-6.193615 16.86557,-6.881346 23.71253,-16.782635 23.79141,-16.899954 5.98932,7.269711 9.61204,16.562157 9.70913,26.698084 z M 128.20502,67.95077 c -0.10721,0.165864 -6.18755,9.421901 -22.30471,15.463811 C 98.600261,70.001823 90.580121,59.348076 89.938911,58.502573 c 3.22829,-0.782799 6.59412,-1.20555 10.063109,-1.20555 10.81354,0 20.67842,4.029288 28.203,10.653747 z M 89.773051,58.536959 c 0,0.004 -0.008,0.0081 -0.008,0.0081 0,0 -0.0465,0.01214 -0.1254,0.02832 0.0425,-0.01214 0.091,-0.02023 0.1335,-0.03641 z m -7.99183,2.839921 c 0.56839,0.762571 8.46717,11.468909 15.85824,24.604552 -20.50446,5.447226 -38.298469,5.234839 -39.427156,5.214612 C 60.987498,77.969378 69.873371,67.002107 81.781221,61.37688 z M 57.300052,99.996965 c 0,-0.455115 0.02023,-0.900117 0.03641,-1.349164 0.752458,0.01618 21.85363,0.49557 43.838738,-6.084388 1.22376,2.394919 2.39492,4.828269 3.46495,7.259597 -0.56434,0.157773 -1.12666,0.32768 -1.68292,0.50973 -23.045018,7.44771 -34.734408,28.1848 -34.734408,28.1848 0,0 0.0162,0.0121 0.0162,0.0202 -6.798431,-7.56703 -10.93897,-17.56946 -10.93897,-28.540775 z m 42.701968,42.706015 c -10.334159,0 -19.812689,-3.67329 -27.199729,-9.786 0.5603,0.45512 0.95676,0.74639 0.95676,0.74639 0,0 8.18601,-17.85266 33.508629,-26.67583 0.0951,-0.0364 0.19014,-0.0627 0.28521,-0.091 6.00955,15.61349 8.48942,28.69048 9.12254,32.42242 -5.12562,2.18051 -10.75893,3.38404 -16.67341,3.38404 z m 23.86221,-7.28387 c -0.43489,-2.57899 -2.71047,-15.11186 -8.31142,-30.50285 13.78292,-2.20478 25.73121,1.57571 26.6111,1.86496 -1.90137,11.89773 -8.71192,22.16109 -18.29968,28.63789 z" id="path3" style="fill-rule:evenodd;fill:#ececec"/><path d="M 99,9.9999995 C 49.294369,9.9999995 9,50.294369 9,99.999998 9,149.70566 49.29437,190 99,190 L 99,9.9999995 z" id="rect2995" style="opacity:0.15;fill:#ffffff;fill-opacity:1;fill-rule:nonzero;stroke:none;display:inline"/></g></svg>