<?xml version="1.0" ?><svg height="200" id="svg2" version="1.1" width="200" xmlns="http://www.w3.org/2000/svg" xmlns:cc="http://creativecommons.org/ns#" xmlns:dc="http://purl.org/dc/elements/1.1/" xmlns:inkscape="http://www.inkscape.org/namespaces/inkscape" xmlns:rdf="http://www.w3.org/1999/02/22-rdf-syntax-ns#" xmlns:sodipodi="http://sodipodi.sourceforge.net/DTD/sodipodi-0.dtd" xmlns:svg="http://www.w3.org/2000/svg"><defs id="defs4"><clipPath clipPathUnits="userSpaceOnUse" id="clipPath18"><path d="m 0,551.986 530.973,0 L 530.973,0 0,0 0,551.986 z" id="path20"/></clipPath><clipPath clipPathUnits="userSpaceOnUse" id="clipPath18-7"><path d="m 0,551.986 530.973,0 L 530.973,0 0,0 0,551.986 z" id="path20-4"/></clipPath></defs><g id="layer1" style="display:inline" transform="translate(0,-852.36218)"><path d="M 100 10 C 50.29437 10 10 50.29437 10 100 C 10 141.14006 37.647519 175.76467 75.34375 186.5 C 83.192383 188.73517 91.434353 190 100 190 C 100.75044 190 101.47964 189.916 102.21875 189.875 C 102.47878 189.861 102.73968 189.85675 103 189.84375 C 103.93792 189.79775 104.87645 189.74775 105.8125 189.6875 C 106.77628 189.6255 107.70326 189.44205 108.65625 189.34375 C 110.71955 189.13095 112.79017 188.94085 114.8125 188.59375 C 115.59874 188.45882 116.34486 188.21537 117.125 188.0625 C 119.72727 187.55259 122.33044 187.04046 124.84375 186.3125 C 130.51682 184.6692 135.96208 182.5305 141.125 179.875 C 159.21425 170.5709 173.56721 155.26452 181.90625 136.65625 C 181.96935 136.51539 182.06257 136.39124 182.125 136.25 C 183.82639 132.40089 185.3428 128.45478 186.5 124.34375 C 186.60955 123.95457 186.68548 123.55062 186.78125 123.15625 C 187.0877 121.8943 187.36093 120.6219 187.625 119.34375 C 187.78752 118.5571 187.99985 117.78916 188.15625 117 C 188.31905 116.17855 188.58265 115.394 188.71875 114.5625 C 189.03001 112.66084 189.12431 110.69026 189.3125 108.75 C 189.48647 106.95638 189.76272 105.19563 189.84375 103.375 C 189.89375 102.25049 190 101.13693 190 100 C 190 96.34978 189.70363 92.78648 189.28125 89.25 C 189.19555 88.53225 189.03998 87.83748 188.9375 87.125 C 182.66932 43.54483 145.31458 10 100 10 z " id="path7210" style="fill:#258bdc;fill-opacity:1;stroke:none" transform="translate(0,852.36218)"/><path d="" id="path6013" style="fill:#000000"/><path d="" id="path6011" style="fill:#000000"/><path d="" id="path6009" style="fill:#000000"/></g><g id="layer17"/><g id="layer15" style="display:inline"><path d="m 40.538765,143.86763 c 7.803868,-28.16118 23.632699,-48.052202 46.731766,-58.724628 6.401053,-2.957473 20.702579,-7.209458 24.262369,-7.213455 1.92589,-0.0026 1.9337,-0.05861 1.9337,-13.965821 l 0,-13.963651 23.847,23.846991 23.84699,23.846996 -23.84699,23.846998 -23.847,23.84699 0,-13.96366 0,-13.96364 -5.80109,0.005 c -13.622254,0.0119 -32.847249,4.67664 -43.185893,10.47857 -6.905086,3.87507 -13.433978,9.11635 -19.918282,15.99006 l -5.72193,6.06555 1.699359,-6.13235 z" id="path7204" style="fill:#ececec;fill-opacity:1;stroke:none"/><path d="M 99,10.000001 C 49.294363,10.000001 9.000002,50.29437 9.000002,99.999999 9.000002,149.70566 49.294363,190 99,190 L 99,10.000001 z" id="rect2995" style="opacity:0.15;fill:#ffffff;fill-opacity:1;fill-rule:nonzero;stroke:none;display:inline"/></g></svg>