<?xml version="1.0" ?><svg height="200" id="svg2" version="1.1" width="200" xmlns="http://www.w3.org/2000/svg" xmlns:cc="http://creativecommons.org/ns#" xmlns:dc="http://purl.org/dc/elements/1.1/" xmlns:inkscape="http://www.inkscape.org/namespaces/inkscape" xmlns:rdf="http://www.w3.org/1999/02/22-rdf-syntax-ns#" xmlns:sodipodi="http://sodipodi.sourceforge.net/DTD/sodipodi-0.dtd" xmlns:svg="http://www.w3.org/2000/svg"><defs id="defs4"/><g id="layer1" style="display:inline" transform="translate(0,-852.36218)"><path d="m 100,10 c -49.705627,0 -90,40.294373 -90,90 0,49.70563 40.294373,90 90,90 1.96568,0 3.87817,-0.18838 5.8125,-0.3125 6.56774,-0.42145 12.93133,-1.60811 19.03125,-3.375 5.67307,-1.64325 11.11833,-3.78198 16.28125,-6.4375 24.86147,-12.78734 42.92154,-36.76697 47.59375,-65.3125 C 189.49546,109.81711 190,104.96886 190,100 c 0,-3.650216 -0.29637,-7.213524 -0.71875,-10.75 -0.0857,-0.717749 -0.24127,-1.412524 -0.34375,-2.125 C 182.66932,43.544928 145.31458,10 100,10 z" id="path5742" style="fill:#3465b2;fill-opacity:1;stroke:none" transform="translate(0,852.36218)"/><g id="g3" style="fill:#ececec" transform="matrix(1.1111235,0,0,1.1111235,44.443825,896.45989)"><defs id="defs5"><rect height="100" id="SVGID_1_" width="100" x="0" y="0"/></defs><path d="M 76.672,12.513 C 71.113,7.712 63.37,5.312 53.579,5.312 H 15 v 3.151 c 12.274,0 13.882,2.1 13.882,17.399 v 48.75 c 0,15.301 -1.607,17.549 -13.882,17.549 v 3.15 h 39.458 v -3.15 c -12.275,0 -13.883,-2.248 -13.883,-17.549 V 55.859 H 53.58 c 9.791,0 17.534,-2.396 23.093,-7.049 C 82.226,44.012 85,38.011 85,30.66 84.999,23.313 82.225,17.312 76.672,12.513 M 53.436,50.461 H 40.574 V 10.863 h 12.86 c 12.129,0 18.561,8.247 18.561,19.797 -0.001,11.551 -6.433,19.801 -18.559,19.801" id="path8" style="fill:#ececec"/></g></g><g id="layer3" style="display:inline"/><g id="layer4" style="display:inline"><path d="M 98.6875 10.09375 C 59.471926 10.678953 23.778638 37.052587 13.125 76.8125 C 0.26023967 124.82445 28.76932 174.16665 76.78125 187.03125 C 78.67995 187.54005 80.56825 187.8693 82.46875 188.25 C 88.338036 189.42576 94.20854 189.91782 100 189.90625 L 100 10.09375 C 99.561451 10.093839 99.125197 10.087218 98.6875 10.09375 z " id="rect2989" style="fill:#ffffff;fill-opacity:1;fill-rule:nonzero;stroke:none;opacity:0.15"/><rect height="1.2962025" id="rect3759" style="opacity:0.1;fill:#ffffff;fill-opacity:1;fill-rule:nonzero;stroke:none" width="1.9443038" x="-113.41772" y="68.759491"/></g></svg>