<?xml version="1.0" ?><svg height="200" id="svg2" version="1.1" width="200" xmlns="http://www.w3.org/2000/svg" xmlns:cc="http://creativecommons.org/ns#" xmlns:dc="http://purl.org/dc/elements/1.1/" xmlns:inkscape="http://www.inkscape.org/namespaces/inkscape" xmlns:rdf="http://www.w3.org/1999/02/22-rdf-syntax-ns#" xmlns:sodipodi="http://sodipodi.sourceforge.net/DTD/sodipodi-0.dtd" xmlns:svg="http://www.w3.org/2000/svg"><defs id="defs4"/><g id="layer1" style="display:inline" transform="translate(0,-852.36218)"><path d="M 100 10 C 50.294373 10 10 50.29437 10 100 C 10 149.70562 50.294373 190 100 190 C 100.75044 190 101.47964 189.916 102.21875 189.875 C 102.47878 189.861 102.73968 189.85675 103 189.84375 C 103.93792 189.7973 104.87645 189.74756 105.8125 189.6875 C 112.38024 189.26605 118.74383 188.07939 124.84375 186.3125 C 130.51682 184.66925 135.96208 182.53052 141.125 179.875 C 159.21425 170.57091 173.56721 155.26453 181.90625 136.65625 C 181.96935 136.51539 182.06257 136.39124 182.125 136.25 C 183.82639 132.40089 185.3428 128.45478 186.5 124.34375 C 187.4004 121.14502 188.17308 117.89634 188.71875 114.5625 C 189.31774 110.9029 189.67507 107.16509 189.84375 103.375 C 189.89375 102.25049 190 101.13693 190 100 C 190 96.34978 189.70363 92.78648 189.28125 89.25 C 189.19555 88.53225 189.03998 87.83748 188.9375 87.125 C 182.66932 43.54493 145.31458 10 100 10 z " id="path5955" style="fill:#cf3344;fill-opacity:1;stroke:none" transform="translate(0,852.36218)"/><path d="m 134.5725,946.96576 c -0.87564,-0.28713 -1.72277,-0.55186 -2.53731,-0.81047 -6.22519,-1.95696 -9.97821,-3.13805 -9.97821,-7.98257 0,-3.9302 3.03011,-6.77908 7.21078,-6.77908 3.20117,0 5.5878,1.32772 7.72802,4.32322 0.19957,0.27898 0.57629,0.37876 0.88786,0.21381 l 6.28016,-3.20524 c 0.17106,-0.0835 0.29731,-0.23826 0.35026,-0.42153 0.055,-0.18327 0.0366,-0.37876 -0.0591,-0.54575 -3.36408,-5.97878 -8.21675,-8.88468 -14.83495,-8.88468 -10.06985,0 -16.58215,6.09282 -16.58215,15.52121 0,9.64017 6.29645,13.54186 17.90986,17.36412 6.73021,2.24408 9.70534,3.43332 9.70534,8.22083 0,5.3822 -4.85267,9.2513 -11.47901,9.02527 -6.93995,-0.23418 -9.04352,-3.9139 -11.68876,-9.9396 -4.47391,-10.20629 -9.56483,-22.12108 -9.6137,-22.23716 -5.11129,-11.79058 -15.240188,-18.54725 -27.794408,-18.54725 -16.5842,0 -30.077183,13.49502 -30.077183,30.08532 0,16.58224 13.492983,30.07726 30.077183,30.07726 9.04555,0 17.525,-4.0096 23.259408,-11.00454 0.16698,-0.20364 0.20771,-0.47651 0.10386,-0.72088 l -3.793758,-8.75036 c -0.10793,-0.24232 -0.35026,-0.40523 -0.61702,-0.41745 -0.27491,-0.0122 -0.52131,0.13847 -0.64349,0.37469 -3.57994,6.84025 -10.59523,11.08811 -18.31307,11.08811 -11.38128,0 -20.638613,-9.25945 -20.638613,-20.64683 0,-11.38738 9.259372,-20.64675 20.640642,-20.64675 8.28599,0 15.877581,4.91783 18.89344,12.25487 l 9.377479,21.39003 1.08131,2.40291 c 4.23972,9.8765 10.46898,14.3015 20.22522,14.3382 11.6012,0 20.34741,-7.68733 20.34741,-17.87741 0,-10.23886 -5.65907,-14.07538 -15.42754,-17.2623 z" id="path3" style="fill:#ececec"/></g><g id="layer9"/><g id="layer8" style="display:inline"><path d="M 99,9.9999995 C 49.29437,9.9999995 9.000001,50.294369 9.000001,99.999998 9.000001,149.70566 49.294371,190 99,190 L 99,9.9999995 z" id="rect2995" style="opacity:0.15;fill:#ffffff;fill-opacity:1;fill-rule:nonzero;stroke:none;display:inline"/></g></svg>