<?xml version="1.0" ?><svg height="200" id="svg2" version="1.1" width="200" xmlns="http://www.w3.org/2000/svg" xmlns:cc="http://creativecommons.org/ns#" xmlns:dc="http://purl.org/dc/elements/1.1/" xmlns:inkscape="http://www.inkscape.org/namespaces/inkscape" xmlns:rdf="http://www.w3.org/1999/02/22-rdf-syntax-ns#" xmlns:sodipodi="http://sodipodi.sourceforge.net/DTD/sodipodi-0.dtd" xmlns:svg="http://www.w3.org/2000/svg"><defs id="defs4"/><g id="layer1" style="display:inline" transform="translate(0,-852.36218)"><path d="m 100,10 c -49.705627,0 -90,40.294373 -90,90 0,49.70563 40.294373,90 90,90 1.96568,0 3.87817,-0.18838 5.8125,-0.3125 6.56774,-0.42145 12.93133,-1.60811 19.03125,-3.375 5.67307,-1.64325 11.11833,-3.78198 16.28125,-6.4375 24.86147,-12.78734 42.92154,-36.76697 47.59375,-65.3125 C 189.49546,109.81711 190,104.96886 190,100 c 0,-3.650216 -0.29637,-7.213524 -0.71875,-10.75 -0.0857,-0.717749 -0.24127,-1.412524 -0.34375,-2.125 C 182.66932,43.544928 145.31458,10 100,10 z" id="path5742" style="fill:#b5712f;fill-opacity:1;stroke:none" transform="translate(0,852.36218)"/></g><g id="layer3" style="display:inline"/><g id="layer4" style="display:inline"><path d="M 98.6875 10.09375 C 59.471926 10.678953 23.778638 37.052587 13.125 76.8125 C 0.26023967 124.82445 28.76932 174.16665 76.78125 187.03125 C 78.67995 187.54005 80.56825 187.8693 82.46875 188.25 C 88.338036 189.42576 94.20854 189.91782 100 189.90625 L 100 10.09375 C 99.561451 10.093839 99.125197 10.087218 98.6875 10.09375 z " id="rect2989" style="fill:#ffffff;fill-opacity:1;fill-rule:nonzero;stroke:none;opacity:0.15"/><rect height="1.2962025" id="rect3759" style="opacity:0.1;fill:#ffffff;fill-opacity:1;fill-rule:nonzero;stroke:none" width="1.9443038" x="-113.41772" y="68.759491"/><g id="g3" style="fill:#ececec" transform="matrix(1.1111235,0,0,1.1111235,44.966053,44.161044)"><defs id="defs5"><rect height="100" id="SVGID_1_" width="100" x="0" y="0"/></defs><path d="M 49.289,68.463 C 59.029,68.382 65.955,63.51 70.064,53.85 h 0.215 v 14.734 c 0,1.098 -0.072,2.801 -0.215,5.115 -0.293,2.395 -1.076,4.973 -2.347,7.732 -1.272,2.597 -3.327,4.812 -6.16,6.637 -2.801,1.99 -6.707,3.024 -11.727,3.106 -4.834,0 -8.922,-1.259 -12.268,-3.774 -3.42,-2.478 -5.418,-6.497 -5.998,-12.058 h -4.252 c 0.436,7.226 2.742,12.382 6.922,15.468 4.07,2.961 9.234,4.444 15.488,4.444 6.177,0 10.996,-1.157 14.449,-3.472 3.416,-2.232 5.869,-5.014 7.361,-8.344 1.49,-3.329 2.381,-6.495 2.67,-9.498 0.221,-3.004 0.328,-5.155 0.328,-6.456 V 6.717 H 70.276 V 20.113 H 70.061 C 68.423,15.202 65.716,11.488 61.934,8.97 58.118,6.494 53.901,5.255 49.286,5.255 41.249,5.418 35.143,8.523 30.964,14.572 26.673,20.579 24.53,27.989 24.53,36.798 c 0,9.053 2.035,16.542 6.105,22.47 4.113,6.048 10.328,9.114 18.654,9.195 M 33.912,17.861 c 3.342,-5.481 8.467,-8.322 15.377,-8.525 7.088,0.204 12.338,2.964 15.758,8.282 3.416,5.319 5.125,11.712 5.125,19.182 0,7.47 -1.709,13.822 -5.125,19.06 -3.42,5.562 -8.67,8.402 -15.758,8.524 C 42.6,64.261 37.508,61.5 34.02,56.102 30.493,50.866 28.731,44.431 28.731,36.799 28.73,29.654 30.457,23.341 33.912,17.861" id="path8" style="fill:#ececec"/></g></g></svg>