<?xml version="1.0" ?><svg height="200" id="svg2" version="1.1" width="200" xmlns="http://www.w3.org/2000/svg" xmlns:cc="http://creativecommons.org/ns#" xmlns:dc="http://purl.org/dc/elements/1.1/" xmlns:inkscape="http://www.inkscape.org/namespaces/inkscape" xmlns:rdf="http://www.w3.org/1999/02/22-rdf-syntax-ns#" xmlns:sodipodi="http://sodipodi.sourceforge.net/DTD/sodipodi-0.dtd" xmlns:svg="http://www.w3.org/2000/svg"><defs id="defs4"/><g id="layer1" style="display:inline" transform="translate(0,-852.36218)"><path d="m 100,10 c -49.705627,0 -90,40.294373 -90,90 0,49.70563 40.294373,90 90,90 1.96568,0 3.87817,-0.18838 5.8125,-0.3125 6.56774,-0.42145 12.93133,-1.60811 19.03125,-3.375 5.67307,-1.64325 11.11833,-3.78198 16.28125,-6.4375 24.86147,-12.78734 42.92154,-36.76697 47.59375,-65.3125 C 189.49546,109.81711 190,104.96886 190,100 c 0,-3.650216 -0.29637,-7.213524 -0.71875,-10.75 -0.0857,-0.717749 -0.24127,-1.412524 -0.34375,-2.125 C 182.66932,43.544928 145.31458,10 100,10 z" id="path5742" style="fill:#1e56a8;fill-opacity:1;stroke:none" transform="translate(0,852.36218)"/></g><g id="layer3" style="display:inline"/><g id="layer4" style="display:inline"><g id="g3" style="fill:#ececec" transform="matrix(2.4247813,0,0,2.4247813,30.378467,31.265937)"><path d="M 11.414,14.254 V 20.81 H 3.968 V 35.819 H 16.251 V 14.254 h -4.837 z m 0,17.532 H 8.891 v -6.822 h 2.522 v 6.822 z" id="path5" style="fill:#ececec"/><path d="m 26.336,20.872 v 15.006 h 7.449 v 2.348 h -7.533 v 4.213 h 10.232 2.137 V 20.872 H 26.336 z m 7.449,10.856 H 31.26 v -6.824 h 2.525 v 6.824 z" id="path7" style="fill:#ececec"/><path d="m 41.174,20.872 v 15.006 h 7.443 v 2.348 h -7.531 v 4.213 h 10.236 2.135 V 20.872 H 41.174 z m 7.443,10.856 H 46.1 v -6.824 h 2.518 v 6.824 z" id="path9" style="fill:#ececec"/><rect height="15.097" id="rect11" style="fill:#ececec" width="5.0100002" x="18.746" y="20.781"/><rect height="4.0949998" id="rect13" style="fill:#ececec" width="5.0100002" x="18.746" y="14.52"/></g><path d="M 98.6875 10.09375 C 59.471926 10.678953 23.778638 37.052587 13.125 76.8125 C 0.26023967 124.82445 28.76932 174.16665 76.78125 187.03125 C 78.67995 187.54005 80.56825 187.8693 82.46875 188.25 C 88.338036 189.42576 94.20854 189.91782 100 189.90625 L 100 10.09375 C 99.561451 10.093839 99.125197 10.087218 98.6875 10.09375 z " id="rect2989" style="fill:#ffffff;fill-opacity:1;fill-rule:nonzero;stroke:none;opacity:0.15"/><rect height="1.2962025" id="rect3759" style="opacity:0.1;fill:#ffffff;fill-opacity:1;fill-rule:nonzero;stroke:none" width="1.9443038" x="-113.41772" y="68.759491"/></g></svg>