<?xml version="1.0" ?><svg height="200" id="svg2" version="1.1" width="200" xmlns="http://www.w3.org/2000/svg" xmlns:cc="http://creativecommons.org/ns#" xmlns:dc="http://purl.org/dc/elements/1.1/" xmlns:inkscape="http://www.inkscape.org/namespaces/inkscape" xmlns:rdf="http://www.w3.org/1999/02/22-rdf-syntax-ns#" xmlns:sodipodi="http://sodipodi.sourceforge.net/DTD/sodipodi-0.dtd" xmlns:svg="http://www.w3.org/2000/svg"><defs id="defs4"/><g id="layer1" style="display:inline" transform="translate(0,-852.36218)"><path d="M 100 10 C 50.294373 10 10 50.29437 10 100 C 10 149.70562 50.294373 190 100 190 C 100.75044 190 101.47964 189.916 102.21875 189.875 C 102.47878 189.861 102.73968 189.85675 103 189.84375 C 103.93792 189.7973 104.87645 189.74756 105.8125 189.6875 C 112.38024 189.26605 118.74383 188.07939 124.84375 186.3125 C 130.51682 184.66925 135.96208 182.53052 141.125 179.875 C 159.21425 170.57091 173.56721 155.26453 181.90625 136.65625 C 181.96935 136.51539 182.06257 136.39124 182.125 136.25 C 183.82639 132.40089 185.3428 128.45478 186.5 124.34375 C 187.4004 121.14502 188.17308 117.89634 188.71875 114.5625 C 189.31774 110.9029 189.67507 107.16509 189.84375 103.375 C 189.89375 102.25049 190 101.13693 190 100 C 190 96.34978 189.70363 92.78648 189.28125 89.25 C 189.19555 88.53225 189.03998 87.83748 188.9375 87.125 C 182.66932 43.54493 145.31458 10 100 10 z " id="path5955" style="fill:#226dc8;fill-opacity:1;stroke:none" transform="translate(0,852.36218)"/><path clip-rule="evenodd" d="m 103.39726,982.30555 c 3.32876,0 3.32876,-4.79675 3.32876,-6.65753 0,-3.32877 3.32877,-6.65753 6.65754,-6.65753 3.32877,0 9.0376,5.70883 13.31507,9.9863 3.32876,3.32876 3.32876,3.32876 6.65753,3.32876 3.32877,0 9.9863,0 9.9863,0 0,0 6.65754,-0.25298 6.65754,-6.65753 0,-2.08048 -2.28021,-5.60897 -9.98631,-13.31507 -6.65753,-6.65753 -10.07284,-3.21891 0,-16.64383 6.13492,-8.17545 10.5988,-15.58196 9.83318,-17.71903 -0.73233,-2.04053 -17.79559,-5.28941 -19.81948,-2.25357 -6.65753,9.9863 -7.87919,12.43294 -9.9863,16.64383 -3.32876,6.65754 -3.65831,9.9863 -6.65753,9.9863 -3.02585,0 -3.32877,-6.46113 -3.32877,-9.9863 0,-11.0049 1.59448,-18.78756 -3.32877,-19.9726 0,0 -6.65753,0 -9.986297,0 -5.35931,0 -9.9863,3.32877 -9.9863,3.32877 0,0 -4.131,3.22224 -3.32876,3.32876 0.99197,0.13315 6.65753,-1.37811 6.65753,3.32877 0,3.32877 0,6.65753 0,6.65753 0,0 0.03,13.31507 -3.32877,13.31507 -3.32876,0 -9.986298,-13.31507 -16.643832,-23.30137 -2.613082,-3.91796 -3.328767,-3.32876 -6.657534,-3.32876 -3.568438,0 -6.654205,0.1398 -9.9863,0.1398 -3.328767,0 -3.75485,2.12043 -3.328767,3.18896 6.657534,16.64384 11.440972,27.09617 24.090286,40.26477 11.600757,12.08009 19.350127,12.72255 25.841214,12.9955 1.66438,0.0699 0,0 3.32877,0 z" id="VK" style="fill-rule:evenodd;fill:#ececec"/></g><g id="layer9"/><g id="layer8" style="display:inline"><path d="M 99,9.9999995 C 49.29437,9.9999995 9.000001,50.294369 9.000001,99.999998 9.000001,149.70566 49.294371,190 99,190 L 99,9.9999995 z" id="rect2995" style="opacity:0.15;fill:#ffffff;fill-opacity:1;fill-rule:nonzero;stroke:none;display:inline"/></g></svg>