<?xml version="1.0" ?><svg height="200" id="svg2" version="1.1" width="200" xmlns="http://www.w3.org/2000/svg" xmlns:cc="http://creativecommons.org/ns#" xmlns:dc="http://purl.org/dc/elements/1.1/" xmlns:inkscape="http://www.inkscape.org/namespaces/inkscape" xmlns:rdf="http://www.w3.org/1999/02/22-rdf-syntax-ns#" xmlns:sodipodi="http://sodipodi.sourceforge.net/DTD/sodipodi-0.dtd" xmlns:svg="http://www.w3.org/2000/svg"><defs id="defs4"><clipPath clipPathUnits="userSpaceOnUse" id="clipPath18"><path d="m 0,551.986 530.973,0 L 530.973,0 0,0 0,551.986 z" id="path20"/></clipPath><clipPath clipPathUnits="userSpaceOnUse" id="clipPath18-7"><path d="m 0,551.986 530.973,0 L 530.973,0 0,0 0,551.986 z" id="path20-4"/></clipPath></defs><g id="layer1" style="display:inline" transform="translate(0,-852.36218)"><path d="m 100,10 c -49.70563,0 -90,40.29437 -90,90 0,49.70572 40.29437,90 90,90 0.75044,0 1.47964,-0.084 2.21875,-0.125 0.26003,-0.014 0.52093,-0.0182 0.78125,-0.0312 0.93792,-0.046 1.87645,-0.096 2.8125,-0.15625 0.96378,-0.062 1.89076,-0.24545 2.84375,-0.34375 2.0633,-0.2128 4.13392,-0.4029 6.15625,-0.75 0.78624,-0.13493 1.53236,-0.37838 2.3125,-0.53125 2.60227,-0.50991 5.20544,-1.02204 7.71875,-1.75 5.67307,-1.6433 11.11833,-3.782 16.28125,-6.4375 18.08925,-9.3041 32.44221,-24.61048 40.78125,-43.21875 0.0631,-0.14086 0.15632,-0.26501 0.21875,-0.40625 1.70139,-3.84911 3.2178,-7.79522 4.375,-11.90625 0.46009,-1.63449 0.77841,-3.32241 1.125,-5 0.16252,-0.78665 0.37485,-1.55459 0.53125,-2.34375 0.1628,-0.82145 0.4264,-1.606 0.5625,-2.4375 0.31126,-1.90166 0.40556,-3.87224 0.59375,-5.8125 0.17397,-1.79362 0.45022,-3.55437 0.53125,-5.375 0.05,-1.12451 0.15625,-2.23807 0.15625,-3.375 0,-3.65022 -0.29637,-7.21352 -0.71875,-10.75 -0.0857,-0.71775 -0.24127,-1.41252 -0.34375,-2.125 C 182.66932,43.54488 145.31458,10 100,10 z" id="path7037" style="fill:#305ca2;fill-opacity:1;stroke:none" transform="translate(0,852.36218)"/><path d="" id="path6013" style="fill:#000000"/><path d="" id="path6011" style="fill:#000000"/><path d="" id="path6009" style="fill:#000000"/></g><g id="layer16" style="display:inline"/><g id="layer15" style="display:inline"><path d="M 99,9.9999995 C 49.294369,9.9999995 9,50.294369 9,99.999998 9,149.70566 49.29437,190 99,190 L 99,9.9999995 z" id="rect2995" style="opacity:0.15;fill:#ffffff;fill-opacity:1;fill-rule:nonzero;stroke:none;display:inline"/><path d="m 49.999999,100.00102 c 0,19.78352 11.50011,36.89864 28.18268,44.99319 l -23.8511,-65.347354 c -2.77807,6.222203 -4.33158,13.100338 -4.33158,20.354164 z m 83.760131,-2.52625 c 0,-6.179557 -2.22571,-10.4624 -4.12444,-13.790793 -2.53438,-4.122412 -4.90629,-7.605141 -4.90629,-11.729584 0,-4.597609 3.4746,-8.872327 8.39714,-8.872327 0.21322,0 0.42847,0.02843 0.64171,0.04264 -8.89263,-8.149381 -20.74407,-13.130799 -33.76114,-13.130799 -17.474571,0 -32.841211,8.967771 -41.778531,22.541274 1.17579,0.03656 2.27646,0.06295 3.21466,0.06295 5.23325,0 13.32779,-0.641716 13.32779,-0.641716 2.68871,-0.150274 3.00754,3.799524 0.31273,4.124443 0,0 -2.70494,0.312736 -5.72061,0.475194 l 18.21172,54.155921 10.9437,-32.812786 -7.79401,-21.343135 c -2.69276,-0.162454 -5.24338,-0.475194 -5.24338,-0.475194 -2.69683,-0.162454 -2.37598,-4.274717 0.32086,-4.124443 0,0 8.25294,0.641716 13.16328,0.641716 5.227151,0 13.333891,-0.641716 13.333891,-0.641716 2.68464,-0.150274 3.00549,3.799524 0.30868,4.124443 0,0 -2.70089,0.312736 -5.71859,0.475194 l 18.07363,53.743681 4.98954,-16.65821 c 2.53439,-6.50041 3.80766,-11.88189 3.80766,-16.166761 z m -32.87778,6.9025 -15.005161,43.59808 c 4.47777,1.31592 9.20943,2.03074 14.127881,2.03074 5.81809,0 11.4067,-1.00725 16.60338,-2.83898 -0.13396,-0.21323 -0.2579,-0.43661 -0.35741,-0.68233 l -15.36869,-42.10751 z m 42.99496,-28.371541 c 0.22135,1.598197 0.34521,3.304023 0.34521,5.14794 0,5.070772 -0.95241,10.773105 -3.80765,17.909144 l -15.2712,44.152467 C 140.00466,134.55212 150,118.45034 150,100.00305 c 0.002,-8.699714 -2.21961,-16.869404 -6.12269,-23.997321 z" id="path3" style="fill:#ececec"/></g></svg>