<?xml version="1.0" ?><svg height="200" id="svg2" version="1.1" width="200" xmlns="http://www.w3.org/2000/svg" xmlns:cc="http://creativecommons.org/ns#" xmlns:dc="http://purl.org/dc/elements/1.1/" xmlns:inkscape="http://www.inkscape.org/namespaces/inkscape" xmlns:rdf="http://www.w3.org/1999/02/22-rdf-syntax-ns#" xmlns:sodipodi="http://sodipodi.sourceforge.net/DTD/sodipodi-0.dtd" xmlns:svg="http://www.w3.org/2000/svg"><defs id="defs4"/><g id="layer1" style="display:inline" transform="translate(0,-852.36218)"><path d="m 100,10 c -49.705627,0 -90,40.294373 -90,90 0,49.70563 40.294373,90 90,90 1.96568,0 3.87817,-0.18838 5.8125,-0.3125 6.56774,-0.42145 12.93133,-1.60811 19.03125,-3.375 5.67307,-1.64325 11.11833,-3.78198 16.28125,-6.4375 24.86147,-12.78734 42.92154,-36.76697 47.59375,-65.3125 C 189.49546,109.81711 190,104.96886 190,100 c 0,-3.650216 -0.29637,-7.213524 -0.71875,-10.75 -0.0857,-0.717749 -0.24127,-1.412524 -0.34375,-2.125 C 182.66932,43.544928 145.31458,10 100,10 z" id="path5742" style="fill:#47ae44;fill-opacity:1;stroke:none" transform="translate(0,852.36218)"/></g><g id="layer3" style="display:inline"/><g id="layer4" style="display:inline"><g id="g3" style="fill:#ececec" transform="matrix(1.2986844,0,0,1.2986844,35.065131,35.06578)"><defs id="defs5"><rect height="100" id="SVGID_1_" width="100" x="0" y="0"/></defs><path d="M 29.755,24.396 15.167,24.379 33.444,5.99 33.45,20.821 29.755,24.396 z M 81.434,17.091 C 79.878,14.411 71.746,11.323 67.522,11.323 H 56.643 c 0,0 -3.492,-6.323 -11.706,-6.323 -8.218,0 -7.666,3.663 -7.666,6.791 v 12.646 l -3.725,3.932 H 16.347 c 0,0 -4.847,3.205 -4.847,10.133 0,6.929 2.15,31.07 16.585,33.305 17.08,2.646 20.005,-5.293 20.005,-6.246 0,-4.021 0.102,-10.111 0.102,-10.111 0,0 5.001,9.556 12.555,9.556 7.553,0 11.944,4.339 11.944,8.808 v 8.268 c 0,0 -0.281,5.175 -4.721,5.175 h -9.478 c 0,0 -3.112,-2.423 -3.112,-5.772 0,-3.351 1.521,-4.262 3.297,-4.262 1.776,0 3.233,0.206 3.233,0.206 v -7.048 c 0,0 -14.304,-0.093 -14.304,10.86 C 47.607,92.188 55.087,95 61.085,95 h 9.771 c 0,0 17.645,-2.27 17.645,-37.125 C 88.5,23.016 82.988,19.773 81.434,17.091 M 63.889,48.337 c 0,0 0.858,-5.748 4.191,-5.748 3.333,0 7.911,7.676 7.911,7.676 0,0 -10.442,-1.928 -12.102,-1.928" id="path8" style="fill:#ececec"/></g><path d="M 98.6875 10.09375 C 59.471926 10.678953 23.778638 37.052587 13.125 76.8125 C 0.26023967 124.82445 28.76932 174.16665 76.78125 187.03125 C 78.67995 187.54005 80.56825 187.8693 82.46875 188.25 C 88.338036 189.42576 94.20854 189.91782 100 189.90625 L 100 10.09375 C 99.561451 10.093839 99.125197 10.087218 98.6875 10.09375 z " id="rect2989" style="fill:#ffffff;fill-opacity:1;fill-rule:nonzero;stroke:none;opacity:0.15"/><rect height="1.2962025" id="rect3759" style="opacity:0.1;fill:#ffffff;fill-opacity:1;fill-rule:nonzero;stroke:none" width="1.9443038" x="-113.41772" y="68.759491"/></g></svg>