<?xml version="1.0" ?><svg height="200" id="svg2" version="1.1" width="200" xmlns="http://www.w3.org/2000/svg" xmlns:cc="http://creativecommons.org/ns#" xmlns:dc="http://purl.org/dc/elements/1.1/" xmlns:inkscape="http://www.inkscape.org/namespaces/inkscape" xmlns:rdf="http://www.w3.org/1999/02/22-rdf-syntax-ns#" xmlns:sodipodi="http://sodipodi.sourceforge.net/DTD/sodipodi-0.dtd" xmlns:svg="http://www.w3.org/2000/svg"><defs id="defs4"/><g id="layer1" style="display:inline" transform="translate(0,-852.36218)"><path d="m 100,10 c -49.705627,0 -90,40.294373 -90,90 0,49.70563 40.294373,90 90,90 1.96568,0 3.87817,-0.18838 5.8125,-0.3125 6.56774,-0.42145 12.93133,-1.60811 19.03125,-3.375 5.67307,-1.64325 11.11833,-3.78198 16.28125,-6.4375 24.86147,-12.78734 42.92154,-36.76697 47.59375,-65.3125 C 189.49546,109.81711 190,104.96886 190,100 c 0,-3.650216 -0.29637,-7.213524 -0.71875,-10.75 -0.0857,-0.717749 -0.24127,-1.412524 -0.34375,-2.125 C 182.66932,43.544928 145.31458,10 100,10 z" id="path5742" style="fill:#209bd0;fill-opacity:1;stroke:none" transform="translate(0,852.36218)"/><path d="m 147.13157,963.13253 c 0.72067,-3.30612 1.09729,-6.72421 1.09729,-10.23799 0,-26.33904 -21.35136,-47.69243 -47.69447,-47.69243 -2.778851,0 -5.502731,0.24226 -8.159441,0.69624 -4.25887,-2.68724 -9.30559,-4.24869 -14.71265,-4.24869 -15.27859,0 -27.6623,12.38574 -27.6623,27.66637 0,5.10373 1.39044,9.88173 3.80082,13.98791 -0.63517,3.09644 -0.96497,6.30688 -0.96497,9.5906 0,26.34515 21.35136,47.69856 47.696511,47.69856 2.9865,0 5.89971,-0.2749 8.7315,-0.79805 3.8965,2.09075 8.34673,3.27965 13.07791,3.27965 15.27656,0 27.65823,-12.3837 27.65823,-27.66026 0.002,-4.41359 -1.03215,-8.57881 -2.86843,-12.28191 z m -22.13513,12.55674 c -2.20273,3.12087 -5.46406,5.59639 -9.69036,7.35124 -4.18355,1.73856 -9.1977,2.6221 -14.90198,2.6221 -6.850431,0 -12.597461,-1.20723 -17.078231,-3.58503 -3.20637,-1.72838 -5.84679,-4.06954 -7.85408,-6.97054 -2.02357,-2.91729 -3.04961,-5.81625 -3.04961,-8.61546 0,-1.74467 0.66774,-3.26133 1.98693,-4.50113 1.30698,-1.22962 2.9804,-1.85257 4.97954,-1.85257 1.63881,0 3.05369,0.48859 4.20187,1.45763 1.09729,0.93442 2.03579,2.31265 2.79514,4.0899 0.84689,1.9401 1.76503,3.57484 2.74017,4.85535 0.9385,1.24184 2.28212,2.28212 4.00033,3.09644 1.73042,0.81635 4.06343,1.23369 6.925751,1.23369 3.94536,0 7.18023,-0.84078 9.61096,-2.50199 2.3778,-1.62049 3.52599,-3.56874 3.52599,-5.95061 0,-1.8831 -0.60056,-3.35905 -1.83628,-4.52556 -1.30494,-1.21536 -3.01297,-2.15386 -5.09355,-2.80735 -2.16608,-0.67385 -5.10983,-1.40673 -8.747781,-2.17015 -4.95511,-1.05861 -9.15698,-2.31673 -12.50178,-3.73568 -3.4242,-1.45762 -6.18066,-3.47712 -8.19609,-5.99743 -2.04597,-2.56713 -3.08626,-5.77553 -3.08626,-9.55803 0,-3.60335 1.08915,-6.8545 3.23894,-9.65168 2.13147,-2.78292 5.24827,-4.949 9.25877,-6.42698 3.95554,-1.46373 8.66432,-2.2068 13.996051,-2.2068 4.25887,0 8.00065,0.49673 11.12966,1.46373 3.14529,0.97718 5.79386,2.30045 7.87647,3.92704 2.09483,1.64085 3.65831,3.38959 4.63956,5.21366 0.98532,1.83628 1.48613,3.66849 1.48613,5.43759 0,1.70599 -0.65553,3.25523 -1.9564,4.60903 -1.30901,1.35583 -2.95393,2.04393 -4.8981,2.04393 -1.76503,0 -3.14937,-0.43362 -4.10823,-1.27644 -0.89167,-0.79599 -1.81796,-2.02561 -2.84603,-3.79471 -1.1889,-2.25566 -2.6282,-4.03901 -4.27923,-5.29509 -1.60624,-1.22351 -4.28533,-1.83628 -7.968081,-1.83628 -3.41605,0 -6.19897,0.68402 -8.26326,2.0419 -1.98897,1.30087 -2.95801,2.79717 -2.95801,4.57034 0,1.08915 0.31352,1.99304 0.95886,2.77478 0.67588,0.83264 1.63474,1.55331 2.83993,2.16201 1.25201,0.63313 2.5488,1.1319 3.84153,1.48613 1.32326,0.37051 3.54634,0.91407 6.595961,1.61845 3.85985,0.8306 7.41231,1.75689 10.54538,2.76257 3.17991,1.01789 5.92008,2.26583 8.16352,3.72549 2.28212,1.48613 4.09194,3.39366 5.37652,5.67782 1.28865,2.29026 1.94011,5.11593 1.94011,8.4017 0,3.92093 -1.1258,7.50799 -3.34073,10.63699 z" id="path3" style="fill:#ececec"/></g><g id="layer3" style="display:inline"/><g id="layer4" style="display:inline"><path d="M 98.6875 10.09375 C 59.471926 10.678953 23.778638 37.052587 13.125 76.8125 C 0.26023967 124.82445 28.76932 174.16665 76.78125 187.03125 C 78.67995 187.54005 80.56825 187.8693 82.46875 188.25 C 88.338036 189.42576 94.20854 189.91782 100 189.90625 L 100 10.09375 C 99.561451 10.093839 99.125197 10.087218 98.6875 10.09375 z " id="rect2989" style="fill:#ffffff;fill-opacity:1;fill-rule:nonzero;stroke:none;opacity:0.15"/><rect height="1.2962025" id="rect3759" style="opacity:0.1;fill:#ffffff;fill-opacity:1;fill-rule:nonzero;stroke:none" width="1.9443038" x="-113.41772" y="68.759491"/></g></svg>