<?xml version="1.0" ?><svg height="200" id="svg2" version="1.1" width="200" xmlns="http://www.w3.org/2000/svg" xmlns:cc="http://creativecommons.org/ns#" xmlns:dc="http://purl.org/dc/elements/1.1/" xmlns:inkscape="http://www.inkscape.org/namespaces/inkscape" xmlns:rdf="http://www.w3.org/1999/02/22-rdf-syntax-ns#" xmlns:sodipodi="http://sodipodi.sourceforge.net/DTD/sodipodi-0.dtd" xmlns:svg="http://www.w3.org/2000/svg"><defs id="defs4"><clipPath clipPathUnits="userSpaceOnUse" id="clipPath18"><path d="m 0,551.986 530.973,0 L 530.973,0 0,0 0,551.986 z" id="path20"/></clipPath><clipPath clipPathUnits="userSpaceOnUse" id="clipPath18-7"><path d="m 0,551.986 530.973,0 L 530.973,0 0,0 0,551.986 z" id="path20-4"/></clipPath></defs><g id="layer1" style="display:inline" transform="translate(0,-852.36218)"><path d="m 100,10 c -49.70563,0 -90,40.29437 -90,90 0,49.70572 40.29437,90 90,90 0.75044,0 1.47964,-0.084 2.21875,-0.125 0.26003,-0.014 0.52093,-0.0182 0.78125,-0.0312 0.93792,-0.046 1.87645,-0.096 2.8125,-0.15625 0.96378,-0.062 1.89076,-0.24545 2.84375,-0.34375 2.0633,-0.2128 4.13392,-0.4029 6.15625,-0.75 0.78624,-0.13493 1.53236,-0.37838 2.3125,-0.53125 2.60227,-0.50991 5.20544,-1.02204 7.71875,-1.75 5.67307,-1.6433 11.11833,-3.782 16.28125,-6.4375 18.08925,-9.3041 32.44221,-24.61048 40.78125,-43.21875 0.0631,-0.14086 0.15632,-0.26501 0.21875,-0.40625 1.70139,-3.84911 3.2178,-7.79522 4.375,-11.90625 0.46009,-1.63449 0.77841,-3.32241 1.125,-5 0.16252,-0.78665 0.37485,-1.55459 0.53125,-2.34375 0.1628,-0.82145 0.4264,-1.606 0.5625,-2.4375 0.31126,-1.90166 0.40556,-3.87224 0.59375,-5.8125 0.17397,-1.79362 0.45022,-3.55437 0.53125,-5.375 0.05,-1.12451 0.15625,-2.23807 0.15625,-3.375 0,-3.65022 -0.29637,-7.21352 -0.71875,-10.75 -0.0857,-0.71775 -0.24127,-1.41252 -0.34375,-2.125 C 182.66932,43.54488 145.31458,10 100,10 z" id="path7037" style="fill:#aad450;fill-opacity:1;stroke:none" transform="translate(0,852.36218)"/><path d="" id="path6013" style="fill:#000000"/><path d="" id="path6011" style="fill:#000000"/><path d="" id="path6009" style="fill:#000000"/><path d="m 49.999999,932.47897 4.0614,5.32629 c 0,0 8.37739,-6.60128 11.16985,-3.30165 2.79246,3.30165 13.44908,43.15392 17.00735,50.50889 3.10566,6.44976 11.67298,14.97866 21.066731,8.88456 9.38769,-6.0901 40.60993,-32.74382 46.19688,-64.21661 5.58492,-31.46876 -37.57096,-24.8796 -42.1375,2.53786 11.4204,-6.85992 17.52058,2.78843 11.675,13.70772 -5.8375,10.9092 -11.16783,18.02574 -13.95828,18.02574 -2.7864,0 -4.93227,-7.29839 -8.124811,-20.06048 -3.30367,-13.19448 -3.28145,-36.95871 -17.00533,-34.26525 -12.94394,2.53988 -29.95129,22.85293 -29.95129,22.85293 z" id="path3" style="fill:#ececec"/></g><g id="layer16" style="display:inline"/><g id="layer15" style="display:inline"><path d="M 99,9.9999995 C 49.294369,9.9999995 9,50.294369 9,99.999998 9,149.70566 49.29437,190 99,190 L 99,9.9999995 z" id="rect2995" style="opacity:0.15;fill:#ffffff;fill-opacity:1;fill-rule:nonzero;stroke:none;display:inline"/></g></svg>