<?xml version="1.0" ?><svg height="200" id="svg2" version="1.1" width="200" xmlns="http://www.w3.org/2000/svg" xmlns:cc="http://creativecommons.org/ns#" xmlns:dc="http://purl.org/dc/elements/1.1/" xmlns:inkscape="http://www.inkscape.org/namespaces/inkscape" xmlns:rdf="http://www.w3.org/1999/02/22-rdf-syntax-ns#" xmlns:sodipodi="http://sodipodi.sourceforge.net/DTD/sodipodi-0.dtd" xmlns:svg="http://www.w3.org/2000/svg"><defs id="defs4"/><g id="layer1" style="display:inline" transform="translate(0,-852.36218)"><path d="M 100 10 C 50.294373 10 10 50.294373 10 100 C 10 149.70563 50.294373 190 100 190 C 101.96568 190 103.87817 189.81162 105.8125 189.6875 C 112.38024 189.26605 118.74383 188.07939 124.84375 186.3125 C 126.89485 185.71838 128.88604 184.97466 130.875 184.25 C 134.38725 182.97034 137.82873 181.57042 141.125 179.875 C 160.03547 170.14852 174.98315 153.91753 183.125 134.15625 C 185.68719 127.93751 187.60038 121.39534 188.71875 114.5625 C 189.49546 109.81711 190 104.96886 190 100 C 190 96.349784 189.70363 92.786476 189.28125 89.25 C 189.19555 88.532251 189.03998 87.837476 188.9375 87.125 C 182.66932 43.544928 145.31458 10 100 10 z " id="path3789" style="fill:#00b489;fill-opacity:1;stroke:none" transform="translate(0,852.36218)"/></g><g id="layer3" style="display:inline"/><g id="layer4" style="display:inline"><path d="m 97.87317,149.93769 c -0.1847,-0.027 -0.40844,-0.1076 -0.49722,-0.17911 -0.12894,-0.10386 -0.14212,-0.098 -0.0656,0.0289 0.0722,0.11981 0.0491,0.141 -0.0941,0.0861 -0.10442,-0.0401 -0.48131,-0.14838 -0.83752,-0.24068 -0.35621,-0.0923 -0.99023,-0.32316 -1.40892,-0.513 -0.90931,-0.4123 -2.93394,-1.66679 -3.4144,-2.11561 -0.18835,-0.17595 -0.34246,-0.2958 -0.34246,-0.26634 0,0.11807 -2.56439,-2.11325 -4.00371,-3.48369 -0.44913,-0.42765 -0.79239,-0.84064 -0.76279,-0.91777 0.0301,-0.0785 -0.007,-0.11681 -0.0848,-0.087 -0.21444,0.0823 -3.03328,-3.02878 -2.9161,-3.21839 0.0333,-0.0538 -0.006,-0.084 -0.0878,-0.0671 -0.0815,0.0169 -0.13565,-0.0322 -0.12026,-0.10916 0.0154,-0.077 -0.015,-0.12733 -0.0675,-0.11193 -0.15076,0.0442 -0.92029,-0.93138 -0.83874,-1.06333 0.043,-0.0695 0.02,-0.0857 -0.0554,-0.039 -0.0769,0.0475 -0.18126,-0.0357 -0.25915,-0.20657 -0.0717,-0.15739 -0.17563,-0.28615 -0.23094,-0.28615 -0.0553,0 -0.0646,-0.0582 -0.0207,-0.12923 0.0464,-0.075 0.031,-0.099 -0.0367,-0.0572 -0.0641,0.0396 -0.17879,-0.003 -0.25487,-0.0946 -0.0761,-0.0917 -0.0944,-0.16828 -0.0407,-0.17023 0.0537,-0.002 0.0185,-0.0649 -0.0783,-0.13992 -0.0968,-0.075 -0.44906,-0.51414 -0.78288,-0.97588 -0.33384,-0.46173 -0.66695,-0.91507 -0.74024,-1.00742 -0.9279,-1.16905 -1.74084,-2.4421 -1.65164,-2.58643 0.0522,-0.0845 0.0359,-0.10537 -0.044,-0.056 -0.16069,0.0993 -0.95625,-1.11773 -0.84661,-1.29512 0.0453,-0.0734 0.0286,-0.096 -0.0398,-0.0537 -0.0992,0.0613 -1.37164,-1.80266 -1.37164,-2.00928 0,-0.036 -0.10393,-0.21132 -0.23095,-0.38971 -0.12702,-0.17838 -0.1948,-0.38283 -0.15061,-0.45433 0.0442,-0.0715 0.0321,-0.10017 -0.0269,-0.0637 -0.16146,0.0998 -0.85551,-1.12588 -0.78665,-1.3892 0.046,-0.17573 0.0267,-0.19632 -0.0915,-0.0982 -0.11543,0.0958 -0.16692,0.0699 -0.22502,-0.11311 -0.0414,-0.13054 -0.29666,-0.61172 -0.56717,-1.06928 -0.27053,-0.45757 -0.46411,-0.83194 -0.43018,-0.83194 0.0339,0 -0.0345,-0.13852 -0.15211,-0.30782 -0.1176,-0.1693 -0.29013,-0.45894 -0.3834,-0.64363 -0.0933,-0.18469 -0.30553,-0.60054 -0.47165,-0.92411 -0.16612,-0.32356 -0.26628,-0.64616 -0.22257,-0.71689 0.0494,-0.0799 0.03,-0.098 -0.0511,-0.0479 -0.0847,0.0524 -0.15465,-0.0398 -0.19919,-0.26254 -0.0377,-0.18877 -0.10699,-0.34322 -0.15384,-0.34322 -0.14464,0 -0.46293,-0.77777 -0.37843,-0.92471 0.0439,-0.0763 0.0375,-0.1003 -0.0142,-0.0534 -0.0815,0.074 -0.59858,-0.78122 -0.66064,-1.09272 -0.0123,-0.0616 -0.15962,-0.37827 -0.32745,-0.70379 -0.16782,-0.32552 -0.27007,-0.65293 -0.22721,-0.72758 0.0429,-0.0746 0.0361,-0.0978 -0.015,-0.0514 -0.12102,0.10979 -1.31379,-2.57958 -1.21498,-2.73945 0.0414,-0.067 0.0262,-0.0915 -0.0339,-0.0544 -0.0601,0.0371 -0.20232,-0.19436 -0.31616,-0.5144 -0.11383,-0.32003 -0.35196,-0.89755 -0.52918,-1.28336 -0.17723,-0.38581 -0.28682,-0.75878 -0.24352,-0.82883 0.0433,-0.07 0.0297,-0.0971 -0.0302,-0.06 -0.13902,0.0859 -0.41409,-0.6599 -0.30717,-0.8329 0.0445,-0.0721 0.0318,-0.0999 -0.0286,-0.0626 -0.13902,0.0859 -0.41409,-0.65991 -0.30717,-0.83291 0.0477,-0.0772 0.0315,-0.0998 -0.0399,-0.0556 -0.14822,0.0916 -0.41167,-0.6525 -0.29682,-0.83835 0.0476,-0.077 0.0331,-0.10165 -0.0352,-0.0595 -0.099,0.0612 -0.33642,-0.45623 -0.53073,-1.15671 -0.0446,-0.16064 -0.45666,-1.27196 -0.71947,-1.94027 -0.0686,-0.17447 -0.0962,-0.36336 -0.0614,-0.41976 0.0349,-0.0564 0.0161,-0.10254 -0.0416,-0.10254 -0.13427,0 -0.70089,-1.79759 -0.61197,-1.94145 0.0367,-0.0594 0.009,-0.072 -0.0625,-0.0281 -0.1186,0.0733 -0.17548,-0.13206 -0.1595,-0.57577 0.003,-0.0763 -0.0483,-0.1058 -0.11332,-0.0656 -0.0728,0.045 -0.0919,0.004 -0.0496,-0.1059 0.0378,-0.0985 0.0323,-0.19488 -0.0122,-0.21425 -0.12223,-0.0532 -0.84213,-2.43906 -0.76056,-2.52062 0.039,-0.039 0.002,-0.150589 -0.0812,-0.247929 -0.0837,-0.0973 -0.20721,-0.37847 -0.27451,-0.62473 -0.0673,-0.24626 -0.3736,-1.32072 -0.68064,-2.38769 -0.30703,-1.06697 -0.52765,-2.01969 -0.49025,-2.11715 0.0485,-0.12637 0.0257,-0.15109 -0.0793,-0.0862 -0.11399,0.0704 -0.12993,0.0218 -0.0705,-0.21489 0.0543,-0.21655 0.0393,-0.28273 -0.0516,-0.22655 -0.0887,0.0548 -0.10507,0.006 -0.0529,-0.15852 0.0491,-0.15484 0.0273,-0.23789 -0.0626,-0.23789 -0.076,0 -0.10498,-0.0331 -0.0645,-0.0736 0.0405,-0.0405 0.0306,-0.12866 -0.022,-0.19589 -0.16356,-0.20897 -0.48765,-1.72527 -0.39931,-1.86821 0.0569,-0.092 0.0366,-0.10641 -0.0631,-0.0448 -0.10941,0.0676 -0.13077,0.0292 -0.0837,-0.15061 0.0347,-0.13275 0.0239,-0.24137 -0.024,-0.24137 -0.072,0 -0.16966,-0.36222 -0.28663,-1.06339 -0.0103,-0.0616 -0.0496,-0.18749 -0.0874,-0.27984 -0.16347,-0.39901 -0.5271,-2.03319 -0.47218,-2.12204 0.0331,-0.0537 0.0197,-0.11444 -0.0298,-0.13509 -0.12096,-0.0504 -0.83817,-3.31017 -0.75716,-3.44127 0.0351,-0.0567 0.0187,-0.12 -0.0364,-0.14066 -0.0833,-0.0312 -1.10844,-4.95615 -1.30094,-6.24995 -0.0321,-0.21548 -0.17752,-1.0466 -0.32323,-1.84693 -0.53828,-2.95645 -0.62915,-3.54512 -0.5636,-3.65118 0.0369,-0.0596 0.0186,-0.16922 -0.0407,-0.24348 -0.0593,-0.0743 -0.14342,-0.42977 -0.18702,-0.79003 -0.0436,-0.36026 -0.0987,-0.76323 -0.12255,-0.89548 -0.0238,-0.13226 -0.0917,-0.56788 -0.15089,-0.96805 -0.0592,-0.40017 -0.21139,-1.40759 -0.33827,-2.23871 -0.12686,-0.83111 -0.23101,-1.64964 -0.23141,-1.81894 l -0.001,-0.30783 8.33918,0 c 4.58655,0 8.37649,-0.0126 8.42208,-0.028 0.0456,-0.0154 0.11922,0.22387 0.16362,0.53169 0.16546,1.14724 0.67711,5.05313 0.71848,5.48483 0.0236,0.24626 0.0918,0.6996 0.15162,1.00742 0.31176,1.60485 0.79583,4.90673 0.74049,5.05094 -0.0402,0.10482 -0.017,0.13687 0.0633,0.0873 0.087,-0.0538 0.10892,0.0156 0.0697,0.22073 -0.0314,0.16453 -0.0194,0.32252 0.0268,0.35107 0.0462,0.0286 0.11928,0.29179 0.16239,0.58499 0.0431,0.29319 0.19849,1.1627 0.3453,1.93226 0.14682,0.76955 0.29058,1.52512 0.31947,1.67903 0.0289,0.15391 0.15262,0.73317 0.27497,1.28725 0.12234,0.55408 0.25201,1.20219 0.28815,1.44024 0.0362,0.23805 0.0865,0.46637 0.1118,0.50738 0.0254,0.041 0.25031,0.9544 0.49992,2.02976 0.24961,1.07536 0.66145,2.73594 0.91519,3.69019 0.25375,0.95425 0.47243,1.81055 0.48597,1.9029 0.0135,0.0924 0.057,0.24346 0.0966,0.33581 0.0396,0.0923 0.16989,0.54568 0.28947,1.00742 0.11958,0.46173 0.27285,0.98226 0.3406,1.15673 0.0678,0.17446 0.0973,0.35905 0.0657,0.41019 -0.0316,0.0511 -0.01,0.10988 0.0483,0.13053 0.0582,0.0206 0.12273,0.16347 0.14346,0.31738 0.0207,0.15391 0.0682,0.33021 0.10554,0.39177 0.17867,0.29477 0.65381,2.09376 0.58474,2.21399 -0.0432,0.0752 -0.0353,0.0973 0.0176,0.0492 0.0529,-0.0481 0.32966,0.60669 0.61511,1.455159 0.28543,0.84846 0.57766,1.68445 0.6494,1.85776 0.0717,0.17331 0.13043,0.34566 0.13043,0.38299 0,0.0373 0.12806,0.388 0.28459,0.77926 0.15653,0.39125 0.24948,0.76818 0.20658,0.83761 -0.0513,0.0829 -0.0272,0.0948 0.0702,0.0346 0.10645,-0.0658 0.12888,-0.0411 0.0796,0.0874 -0.0378,0.0985 -0.0315,0.19488 0.0139,0.21425 0.15165,0.0647 0.58667,1.21541 0.50776,1.3431 -0.0475,0.0768 -0.0274,0.0948 0.0514,0.046 0.078,-0.0482 0.12923,-0.006 0.12923,0.10777 0,0.1032 0.2521,0.76541 0.56023,1.47157 0.30812,0.70616 0.52671,1.34248 0.48576,1.41405 -0.041,0.0716 -0.0328,0.0923 0.0181,0.0462 0.0758,-0.0687 0.79554,1.36939 0.88234,1.76294 0.0136,0.0616 0.11215,0.27712 0.21903,0.47902 0.1069,0.20189 0.15933,0.42375 0.11653,0.49302 -0.0447,0.0724 -0.0279,0.0951 0.0397,0.0533 0.14105,-0.0872 0.28438,0.23233 0.17999,0.40123 -0.0405,0.0655 -0.0239,0.0884 0.0368,0.0509 0.13126,-0.0811 0.63061,1.00609 0.53395,1.1625 -0.0367,0.0594 -0.0176,0.0942 0.0425,0.0772 0.0601,-0.0169 0.3295,0.40591 0.59862,0.93962 0.26913,0.53371 0.45093,0.94665 0.40402,0.91765 -0.0469,-0.029 -0.0545,0.0276 -0.0168,0.12582 0.0377,0.0982 0.0971,0.14998 0.13199,0.11507 0.10259,-0.10259 0.81469,1.40075 0.73194,1.54522 -0.0415,0.0724 -0.0341,0.0942 0.0164,0.0484 0.12722,-0.11528 0.42332,0.33343 0.32499,0.49251 -0.0444,0.0719 -0.031,0.0989 0.0303,0.061 0.14509,-0.0897 0.73727,1.01216 0.63747,1.18609 -0.0425,0.074 -0.0365,0.0978 0.0133,0.0527 0.12676,-0.11469 0.87423,1.11265 0.7752,1.27289 -0.0476,0.077 -0.0325,0.10096 0.0366,0.0582 0.14327,-0.0885 0.28259,0.23148 0.17934,0.41193 -0.0408,0.0714 -0.0329,0.0923 0.0177,0.0465 0.12946,-0.11733 0.64354,0.67297 0.547,0.8409 -0.0436,0.0759 -0.0394,0.10187 0.01,0.0578 0.0984,-0.0889 0.43783,0.30021 0.61985,0.71061 0.12572,0.28345 0.77179,1.28451 1.82624,2.82966 0.3781,0.55406 0.61772,1.011 0.57036,1.08764 -0.0492,0.0796 -0.0337,0.10248 0.039,0.0576 0.12293,-0.076 0.58554,0.47778 0.58554,0.7009 0,0.0675 0.0588,0.12264 0.13059,0.12264 0.0718,0 0.0973,0.0333 0.0567,0.0739 -0.0406,0.0407 0.0265,0.14425 0.14925,0.23022 0.12273,0.086 0.22315,0.21031 0.22315,0.27631 0,0.066 0.16371,0.31234 0.36379,0.54742 0.63114,0.74151 0.90482,1.1305 0.90482,1.28607 0,0.0829 0.0295,0.13247 0.0657,0.11015 0.0361,-0.0223 0.34253,0.33793 0.68094,0.80055 0.3384,0.46262 0.69262,0.92563 0.78715,1.02891 0.0945,0.10328 0.32004,0.38748 0.50114,0.63155 0.5044,0.67979 1.52693,1.84296 1.62013,1.84296 0.0457,0 0.40474,-0.33847 0.79787,-0.75215 0.39314,-0.41369 1.04219,-1.07728 1.44236,-1.47464 0.40017,-0.39736 0.65203,-0.67886 0.55968,-0.62555 -0.14442,0.0834 -0.14656,0.0706 -0.0153,-0.0912 0.0839,-0.10349 0.19851,-0.15979 0.25463,-0.12511 0.0561,0.0347 0.0882,-0.004 0.0713,-0.0852 -0.017,-0.0821 0.0442,-0.13158 0.13714,-0.11093 0.0924,0.0205 0.13306,0.002 0.0905,-0.0401 -0.0426,-0.0426 0.23443,-0.43807 0.61564,-0.87884 1.39103,-1.60838 1.82027,-2.12085 2.20718,-2.63515 0.2171,-0.28858 0.45629,-0.59759 0.53152,-0.68667 0.0752,-0.0891 0.40665,-0.51458 0.7365,-0.94553 0.32984,-0.43095 0.66108,-0.76971 0.73607,-0.75279 0.075,0.0169 0.1051,-0.0198 0.0669,-0.0816 -0.0382,-0.0618 -0.0113,-0.22098 0.0597,-0.3537 0.10491,-0.19603 0.14987,-0.21222 0.2396,-0.0863 0.0856,0.12014 0.0961,0.11044 0.0466,-0.0431 -0.0411,-0.12744 0.10621,-0.42696 0.41289,-0.83952 0.26222,-0.35276 0.62047,-0.85546 0.79611,-1.11711 0.17565,-0.26165 0.36287,-0.47573 0.41606,-0.47573 0.0532,0 0.0859,-0.0378 0.0727,-0.084 -0.0497,-0.17373 0.59447,-1.04196 0.71696,-0.96627 0.0763,0.0472 0.0939,0.0267 0.0451,-0.0523 -0.09,-0.14563 0.79563,-1.58391 0.9753,-1.58391 0.0633,0 0.0831,-0.0319 0.0441,-0.0709 -0.039,-0.039 0.0717,-0.27824 0.24607,-0.53169 0.17432,-0.25345 0.65826,-1.04009 1.07543,-1.74808 0.41717,-0.70799 0.79695,-1.31244 0.84395,-1.34322 0.047,-0.0308 0.093,-0.10634 0.10215,-0.1679 0.009,-0.0616 0.18877,-0.41963 0.39907,-0.79569 0.21032,-0.37606 0.5553,-1.0057 0.76665,-1.39919 0.21134,-0.39349 0.43772,-0.70345 0.50306,-0.6888 0.0653,0.0147 0.0946,-0.0365 0.065,-0.11367 -0.0296,-0.0772 0.19887,-0.61567 0.50774,-1.19664 0.30886,-0.58098 0.56158,-1.09947 0.56158,-1.15221 0,-0.0527 0.0497,-0.0652 0.11042,-0.0276 0.0702,0.0434 0.0764,-0.0256 0.017,-0.18928 -0.0514,-0.14164 -0.28995,-0.35162 -0.53018,-0.46662 -0.24024,-0.115 -0.46198,-0.24674 -0.49276,-0.29274 -0.0308,-0.046 -0.17003,-0.11924 -0.30945,-0.16275 -0.14237,-0.0444 -0.22066,-0.13223 -0.17859,-0.20029 0.0432,-0.07 0.023,-0.0891 -0.048,-0.0452 -0.20226,0.12501 -2.66044,-1.52906 -2.54646,-1.71347 0.0318,-0.0514 -0.0298,-0.16215 -0.13688,-0.24608 -0.17616,-0.1381 -0.18005,-0.13398 -0.041,0.0433 0.33113,0.42221 -0.31898,0.0629 -1.05346,-0.58231 -0.24865,-0.21842 -0.79,-0.69178 -1.203,-1.05192 -0.41301,-0.36014 -0.72212,-0.70139 -0.68692,-0.75834 0.0352,-0.0569 -0.003,-0.0897 -0.0843,-0.0728 -0.0821,0.017 -0.13158,-0.0442 -0.11093,-0.13714 0.0205,-0.0924 -0.001,-0.12942 -0.0482,-0.0824 -0.10779,0.1078 -0.73016,-0.47686 -0.64841,-0.60913 0.0332,-0.0537 -0.006,-0.0837 -0.0879,-0.0668 -0.0815,0.0169 -0.13439,-0.036 -0.11748,-0.11748 0.0169,-0.0815 -0.0129,-0.12124 -0.0663,-0.0883 -0.0921,0.057 -1.11572,-1.03723 -1.09408,-1.16954 0.006,-0.0345 -0.17861,-0.22865 -0.40948,-0.43135 -0.23086,-0.2027 -0.41975,-0.43889 -0.41975,-0.52486 0,-0.086 -0.0441,-0.15631 -0.098,-0.15631 -0.15993,0 -1.26485,-1.668729 -1.18763,-1.793659 0.039,-0.0631 0.0109,-0.10094 -0.0626,-0.084 -0.14011,0.0323 -2.12891,-3.15939 -2.05108,-3.29158 0.0247,-0.0419 -0.006,-0.10794 -0.0692,-0.14671 -0.1873,-0.11576 -0.57623,-1.06139 -0.49235,-1.19711 0.0432,-0.07 0.0278,-0.0948 -0.0349,-0.0561 -0.0888,0.0549 -0.63664,-1.00252 -0.65353,-1.26147 -0.002,-0.0334 -0.0593,-0.16153 -0.12694,-0.28466 -0.25061,-0.45629 -1.10049,-2.74421 -1.20581,-3.24612 -0.0129,-0.0616 -0.13896,-0.48972 -0.28009,-0.95145 -0.55627,-1.81982 -1.13091,-4.67398 -1.40853,-6.99596 -0.37298,-3.11957 -0.2952,-8.06283 0.17175,-10.91369 0.29393,-1.79459 1.15473,-4.96744 1.42186,-5.24097 0.17583,-0.18004 0.1892,-0.28473 0.0233,-0.18219 -0.0666,0.0412 -0.0415,-0.0793 0.056,-0.26767 0.0974,-0.18841 0.17715,-0.39664 0.17715,-0.46274 0,-0.25955 1.35663,-2.91812 1.45733,-2.85588 0.0618,0.0382 0.076,-0.0151 0.0335,-0.12583 -0.054,-0.14063 -0.034,-0.16754 0.0746,-0.10045 0.0954,0.059 0.12142,0.0482 0.073,-0.0301 -0.0761,-0.12306 0.39853,-1.07029 0.67453,-1.34629 0.0823,-0.0823 0.14966,-0.1994 0.14966,-0.2602 0,-0.0608 0.0447,-0.0829 0.0993,-0.0492 0.0546,0.0338 0.0924,-0.0262 0.084,-0.13331 -0.009,-0.10767 0.0509,-0.18093 0.13289,-0.16392 0.0815,0.0169 0.11634,-0.0209 0.0773,-0.084 -0.039,-0.0631 -0.009,-0.11471 0.0663,-0.11471 0.0755,0 0.10405,-0.0331 0.0635,-0.0737 -0.11319,-0.1132 0.15666,-0.38132 0.30088,-0.29894 0.07,0.04 0.0908,0.0324 0.0462,-0.0169 -0.11787,-0.13039 0.2749,-0.74379 0.43655,-0.68176 0.0791,0.0304 0.11256,-0.0105 0.0793,-0.0972 -0.0701,-0.1827 2.31732,-2.59893 3.26263,-3.30199 0.36738,-0.27323 0.89222,-0.6651 1.16631,-0.8708 0.28603,-0.21468 0.57069,-0.34624 0.6682,-0.30882 0.0934,0.0358 0.13394,0.0292 0.09,-0.0147 -0.14656,-0.14655 2.19134,-1.4486 2.38553,-1.32858 0.0593,0.0366 0.10774,0.008 0.10774,-0.0639 0,-0.072 0.0779,-0.10061 0.17371,-0.0639 0.0956,0.0367 0.14651,0.0226 0.11327,-0.0312 -0.0654,-0.10575 0.84726,-0.47264 1.24144,-0.49909 0.13264,-0.009 0.22128,-0.0484 0.19697,-0.0877 -0.0777,-0.12579 2.5112,-0.78847 2.7653,-0.70783 0.14326,0.0455 0.21184,0.0324 0.1716,-0.0327 -0.0683,-0.11044 1.00471,-0.28517 2.89334,-0.47117 1.9806,-0.19504 6.27198,0.0642 7.72354,0.46655 0.24626,0.0683 0.5233,0.13209 0.61564,0.14186 0.44188,0.0467 2.23871,0.56924 2.23871,0.65106 0,0.0511 0.045,0.0651 0.10004,0.0311 0.13326,-0.0824 1.03331,0.27871 2.55863,1.02644 0.70694,0.34654 0.79365,0.42111 0.67162,0.57755 -0.12352,0.15833 -0.11744,0.16185 0.0513,0.0297 0.16715,-0.13091 0.31269,-0.0701 1.14734,0.47959 0.52575,0.34623 0.95591,0.68654 0.95591,0.75624 0,0.0697 0.0321,0.0947 0.0712,0.0555 0.0918,-0.0918 1.226,0.92842 1.18525,1.06605 -0.0169,0.0571 0.0135,0.0765 0.0677,0.043 0.13532,-0.0836 0.60142,0.42984 0.49579,0.54618 -0.0467,0.0515 -0.0262,0.06 0.0456,0.0189 0.077,-0.0441 0.35252,0.18964 0.67161,0.56971 0.29758,0.35445 0.59142,0.68146 0.65299,0.72669 0.0697,0.0513 0.0709,0.0829 0.003,0.084 -0.0599,10e-4 0.003,0.0801 0.13992,0.17597 0.13683,0.0958 0.24878,0.23012 0.24878,0.29843 0,0.0683 0.0767,0.20397 0.17045,0.30147 0.28378,0.29519 1.06029,1.51088 1.06057,1.66044 1.1e-4,0.077 0.0452,0.13992 0.10005,0.13992 0.13537,0 0.51357,0.90165 0.48398,1.15384 -0.0131,0.11131 0.0177,0.17676 0.0684,0.14544 0.10215,-0.0631 0.62238,0.93348 0.53361,1.02226 -0.0307,0.0307 0.0213,0.13282 0.11551,0.22701 0.0942,0.0942 0.14686,0.26457 0.11704,0.37861 -0.0298,0.11403 -0.0168,0.18424 0.0288,0.15601 0.082,-0.0507 0.8098,2.18424 0.95243,2.92485 0.0217,0.11289 0.0917,0.40654 0.1554,0.65257 0.1082,0.41773 0.43651,2.48028 0.45427,2.85391 0.004,0.0924 0.0361,0.39457 0.0705,0.67161 0.3924,3.16332 0.23903,7.51569 -0.40234,11.41741 -0.21532,1.30986 -0.91289,4.43946 -1.07284,4.81321 -0.0395,0.0924 -0.0926,0.29289 -0.11791,0.44565 -0.0253,0.15275 -0.0806,0.30387 -0.12271,0.3358 -0.0422,0.0319 -0.0817,0.12103 -0.0879,0.19799 -0.0338,0.42198 -0.0521,0.48441 -0.12872,0.43736 -0.0462,-0.0284 -0.0896,0.082 -0.0964,0.24525 -0.007,0.16325 -0.0872,0.47312 -0.17849,0.68859 -0.0913,0.21548 -0.17195,0.41696 -0.17921,0.44775 -0.0113,0.0479 -0.25562,0.71024 -0.70962,1.92385 -0.12602,0.33686 -0.18522,0.35495 -1.7879,0.54615 -0.99048,0.11817 -3.98875,0.0945 -4.52004,-0.0357 -0.12313,-0.0302 -0.47112,-0.0908 -0.77332,-0.13473 -0.30219,-0.0439 -0.67997,-0.13275 -0.83951,-0.19738 -0.15954,-0.0646 -0.40888,-0.13305 -0.55409,-0.15204 -0.14521,-0.019 -0.36794,-0.12554 -0.49496,-0.23676 -0.12702,-0.11123 -0.19449,-0.13984 -0.14993,-0.0636 0.0547,0.0935 0.0247,0.11703 -0.092,0.0722 -0.0952,-0.0365 -0.14556,-0.11093 -0.11193,-0.16534 0.0336,-0.0544 -0.0116,-0.071 -0.10048,-0.0369 -0.46687,0.17915 -2.95704,-1.47131 -4.16693,-2.76181 -0.92466,-0.98627 -1.00279,-1.14662 -0.8289,-1.70131 0.0812,-0.25886 0.15857,-0.52102 0.17206,-0.58259 0.12599,-0.5752 0.75573,-3.17214 0.80073,-3.30209 0.032,-0.0923 0.0741,-0.29383 0.0936,-0.44774 0.0195,-0.15391 0.14726,-0.95984 0.2839,-1.79096 0.35645,-2.16813 0.41032,-6.49812 0.10066,-8.09119 -0.11708,-0.60237 -0.18139,-1.1773 -0.14288,-1.27763 0.05,-0.13026 0.0284,-0.1567 -0.0755,-0.0925 -0.0981,0.0607 -0.12754,0.0393 -0.0903,-0.0656 0.0303,-0.0855 -0.014,-0.2925 -0.0985,-0.45994 -0.0845,-0.16744 -0.14363,-0.34374 -0.13136,-0.39177 0.0123,-0.048 -0.13847,-0.4346 -0.33497,-0.85905 -0.29572,-0.63869 -0.33314,-0.80269 -0.21708,-0.95145 0.12117,-0.15532 0.11608,-0.16092 -0.0375,-0.0412 -0.14923,0.11633 -0.20304,0.0907 -0.3358,-0.16017 -0.34876,-0.65895 -1.48056,-1.78076 -2.07303,-2.05474 -0.21089,-0.0975 -0.34482,-0.21651 -0.29763,-0.26443 0.0472,-0.0479 0.0102,-0.0736 -0.0821,-0.0571 -0.0923,0.0165 -0.44848,-0.0552 -0.79141,-0.15936 -0.74359,-0.22582 -2.30665,-0.26777 -3.01439,-0.0809 -1.52362,0.4023 -2.89621,1.45702 -3.79311,2.91468 -0.19167,0.31149 -0.34849,0.61893 -0.34849,0.68321 0,0.0643 -0.0581,0.0809 -0.12923,0.037 -0.0738,-0.0456 -0.0991,-0.0311 -0.0589,0.0339 0.0868,0.1404 -0.25502,1.04016 -0.39513,1.04016 -0.0559,0 -0.0741,0.0445 -0.0405,0.0988 0.0336,0.0543 -0.0317,0.36915 -0.14506,0.6996 -1.07638,3.13734 -0.91753,10.03756 0.32442,14.09226 0.12312,0.40196 0.24485,0.83984 0.27051,0.97306 0.0644,0.33415 1.07344,2.82895 1.26697,3.13237 0.0866,0.13582 0.12853,0.29381 0.0931,0.35111 -0.0354,0.0573 0.0103,0.16616 0.10158,0.24191 0.0913,0.0758 0.32604,0.42146 0.5217,0.76825 0.7418,1.31475 1.73049,2.66927 2.82416,3.86912 0.27681,0.30368 0.47709,0.59456 0.44505,0.6464 -0.032,0.0518 -0.0167,0.087 0.034,0.0782 0.26244,-0.0456 0.39017,0.0258 0.3294,0.1842 -0.0419,0.10923 -0.0209,0.14546 0.0565,0.0976 0.0677,-0.0419 0.15531,-0.0289 0.1946,0.0288 0.11655,0.17111 1.8407,1.55863 2.11739,1.70398 0.14024,0.0737 0.22578,0.18122 0.19008,0.23899 -0.0367,0.0593 0.0187,0.073 0.12716,0.0313 0.14063,-0.054 0.16754,-0.034 0.10046,0.0745 -0.0548,0.0886 -0.0479,0.12124 0.0171,0.0811 0.0598,-0.0369 0.332,0.081 0.60495,0.26206 0.27294,0.18108 0.55626,0.32945 0.62958,0.32972 0.0733,2.2e-4 0.16926,0.0586 0.21318,0.12971 0.0529,0.0855 0.0303,0.0986 -0.0667,0.0387 -0.0949,-0.0587 -0.11944,-0.0468 -0.0697,0.0338 0.0423,0.0684 0.15906,0.0928 0.25954,0.0542 0.13192,-0.0506 0.15722,-0.0289 0.0911,0.0781 -0.0599,0.0969 -0.0483,0.12147 0.0334,0.071 0.0688,-0.0425 0.39137,0.06 0.71689,0.22786 0.32552,0.16783 0.64223,0.31629 0.70379,0.32992 0.0616,0.0136 0.48405,0.18035 0.93887,0.37049 0.4548,0.19014 0.89853,0.34571 0.98604,0.34571 0.093,0 0.12547,0.0544 0.0782,0.13095 -0.0524,0.0848 -0.0225,0.10854 0.0849,0.0673 0.0912,-0.035 0.71649,0.0775 1.38957,0.2499 3.22353,0.825829 7.25499,0.927579 11.46587,0.289389 0.21547,-0.0327 0.61429,-0.11338 0.88625,-0.179389 0.27197,-0.066 0.5616,-0.0943 0.64363,-0.0628 0.082,0.0315 0.14915,0.005 0.14915,-0.0578 0,-0.0633 0.0504,-0.0839 0.11193,-0.0458 0.0723,0.0447 0.11194,2.137989 0.11194,5.913399 l 0,5.84422 -1.87492,0.35998 c -1.0312,0.19799 -2.70603,0.45927 -3.72185,0.58063 -2.10133,0.25104 -6.09421,0.50584 -6.26572,0.39984 -0.0644,-0.0398 -0.30007,0.32361 -0.54078,0.83409 -0.23462,0.49756 -0.46828,0.86567 -0.51923,0.81801 -0.051,-0.0476 -0.0688,-0.0111 -0.0395,0.0813 0.0292,0.0923 -0.0467,0.3442 -0.16869,0.55967 -0.12199,0.21548 -0.42037,0.78244 -0.66308,1.25992 -0.2427,0.47748 -0.48673,0.84005 -0.54228,0.80572 -0.0556,-0.0343 -0.0768,0.003 -0.0471,0.0833 0.0699,0.18894 -0.66764,1.49724 -0.82436,1.46231 -0.0681,-0.0152 -0.089,0.0529 -0.0486,0.15828 0.0514,0.134 0.0301,0.1597 -0.0773,0.0933 -0.0947,-0.0585 -0.12139,-0.0482 -0.0739,0.0287 0.0755,0.12223 -0.55948,1.39436 -0.73015,1.4627 -0.0512,0.0205 -0.0932,0.10868 -0.0932,0.19589 0,0.0872 -0.10075,0.25932 -0.22387,0.38245 -0.12313,0.12313 -0.19271,0.22387 -0.15462,0.22387 0.0381,0 -0.0535,0.1637 -0.20356,0.36379 -0.15004,0.20008 -0.43705,0.65393 -0.63779,1.00854 -0.20074,0.35462 -0.41261,0.61532 -0.47082,0.57934 -0.0582,-0.036 -0.0986,-0.0239 -0.0898,0.0269 0.0414,0.23847 -0.0224,0.37797 -0.13972,0.30545 -0.0792,-0.049 -0.0989,-0.0308 -0.0508,0.0471 0.10763,0.17416 -0.13758,0.60375 -0.29064,0.50916 -0.0753,-0.0466 -0.0919,-0.0251 -0.0423,0.0551 0.0454,0.0735 -0.0423,0.27841 -0.19884,0.46443 -0.15407,0.18311 -0.31242,0.43466 -0.35189,0.55902 -0.0395,0.12435 -0.11851,0.19721 -0.17564,0.1619 -0.0571,-0.0353 -0.10387,0.004 -0.10387,0.0879 0,0.20225 -1.29956,2.10316 -1.60602,2.34916 -0.1325,0.10637 -0.19054,0.19529 -0.12898,0.1976 0.0697,0.003 0.0675,0.0352 -0.006,0.0864 -0.0648,0.0452 -0.22625,0.2608 -0.35872,0.47903 -0.13249,0.21823 -0.33132,0.50231 -0.44183,0.63129 -0.11053,0.12897 -0.50319,0.64985 -0.87257,1.1575 -0.36939,0.50765 -0.78377,1.04321 -0.92085,1.19013 -0.13709,0.14693 -0.30465,0.37067 -0.37237,0.49721 -0.0677,0.12655 -0.1901,0.20439 -0.27194,0.17298 -0.0819,-0.0314 -0.24169,0.0528 -0.3552,0.18721 l -0.20641,0.2443 0.25185,-0.21323 c 0.21644,-0.18325 0.25186,-0.18808 0.25186,-0.0343 0,0.0984 -0.11195,0.25731 -0.24878,0.35315 -0.13683,0.0958 -0.20597,0.17425 -0.15364,0.17425 0.0523,0 -0.12537,0.23924 -0.39486,0.53165 -0.26949,0.29241 -0.5315,0.51783 -0.58225,0.50094 -0.0507,-0.0169 -0.0644,0.0144 -0.0303,0.0695 0.0341,0.0551 -0.0251,0.20219 -0.1316,0.32676 -0.10645,0.12457 -0.4706,0.56581 -0.80921,0.98054 -0.3386,0.41472 -0.80453,0.95305 -1.0354,1.19628 -0.23086,0.24322 -0.41976,0.49466 -0.41976,0.55874 0,0.0698 -0.0683,0.0598 -0.17046,-0.025 -0.14105,-0.11706 -0.15926,-0.11227 -0.10553,0.0277 0.0408,0.10643 -0.11395,0.34534 -0.4172,0.64386 -0.26516,0.26104 -0.40657,0.43887 -0.31422,0.39517 0.0923,-0.0437 -0.0922,0.17263 -0.41015,0.48073 -0.31793,0.3081 -0.63661,0.6696 -0.70818,0.80334 -0.0782,0.1461 -0.19604,0.21786 -0.29526,0.17979 -0.0997,-0.0383 -0.1358,-0.0159 -0.0911,0.0564 0.0941,0.15224 -0.50631,0.78873 -0.65647,0.69592 -0.0617,-0.0381 -0.0807,-0.0185 -0.0423,0.0437 0.0898,0.14523 -0.41313,0.62296 -0.5372,0.51032 -0.0515,-0.0467 -0.0627,-0.0306 -0.0249,0.0359 0.088,0.1548 -1.0773,1.31306 -1.20458,1.19727 -0.0525,-0.0478 -0.0628,-0.0296 -0.0228,0.0404 0.0882,0.15433 -0.18795,0.40836 -0.31689,0.29155 -0.0504,-0.0456 -0.0599,-0.0273 -0.0211,0.0407 0.0881,0.15455 -0.40878,0.63701 -0.53655,0.52101 -0.0515,-0.0467 -0.0624,-0.0302 -0.0243,0.0367 0.0381,0.067 -0.13752,0.31881 -0.39027,0.55968 -0.25276,0.24087 -0.41919,0.3672 -0.36985,0.28073 0.0601,-0.10537 0.0471,-0.13088 -0.0395,-0.0773 -0.0711,0.0439 -0.12923,0.14297 -0.12923,0.22011 0,0.0771 -0.16371,0.25983 -0.36379,0.40598 -0.20008,0.14615 -0.55715,0.48325 -0.79348,0.7491 -0.23632,0.26585 -0.47559,0.455 -0.53169,0.42032 -0.0561,-0.0347 -0.102,-0.007 -0.102,0.0621 0,0.0688 -0.0516,0.0932 -0.11472,0.0542 -0.0631,-0.039 -0.10086,-0.004 -0.0839,0.0774 0.017,0.082 -0.0563,0.14138 -0.16392,0.13289 -0.10707,-0.008 -0.16682,0.0297 -0.13278,0.0848 0.0814,0.13162 -0.0456,0.24927 -1.23349,1.14314 -0.5507,0.4144 -1.06962,0.72723 -1.15314,0.69517 -0.0835,-0.032 -0.12223,-0.0103 -0.086,0.0484 0.11781,0.19061 -1.65971,1.18077 -1.87776,1.04601 -0.0627,-0.0387 -0.0822,-0.019 -0.0433,0.044 0.0852,0.13781 -1.65239,0.75173 -1.8802,0.66431 -0.086,-0.033 -0.17217,-0.0203 -0.19154,0.0283 -0.0194,0.0485 -0.22523,0.11827 -0.45748,0.15498 -0.30869,0.0488 -0.40212,0.0309 -0.34737,-0.0666 0.0519,-0.0924 0.0286,-0.0904 -0.0758,0.007 -0.14693,0.13637 -0.6014,0.15668 -1.28129,0.0573 z M 80.14531,134.09567 c -0.11055,-0.10972 -0.12341,-0.0969 -0.0627,0.0627 0.042,0.11039 0.10463,0.17251 0.13909,0.13805 0.0345,-0.0345 7e-5,-0.12479 -0.0764,-0.20072 z m 26.73865,-8.30933 c 0.0766,-0.0923 0.11416,-0.1679 0.0834,-0.1679 -0.0308,0 -0.11867,0.0756 -0.19531,0.1679 -0.0766,0.0924 -0.11417,0.16791 -0.0834,0.16791 0.0308,0 0.11868,-0.0756 0.19532,-0.16791 z m 2.50589,-3.54644 c -0.0323,-0.0523 -0.10567,-0.0661 -0.16298,-0.0307 -0.14646,0.0905 -0.12997,0.12581 0.0588,0.12581 0.0896,0 0.13653,-0.0428 0.10421,-0.0951 z m 0.83056,-1.26974 c -0.0345,-0.0345 -0.0971,0.0277 -0.1391,0.13806 -0.0607,0.15953 -0.0479,0.17238 0.0627,0.0627 0.0765,-0.0759 0.11089,-0.16625 0.0764,-0.20072 z m 16.92384,-0.16494 c -0.0659,-0.12313 -0.145,-0.22387 -0.17578,-0.22387 -0.0308,0 -0.002,0.10074 0.0639,0.22387 0.0659,0.12313 0.145,0.22387 0.17578,0.22387 0.0308,0 0.002,-0.10074 -0.0639,-0.22387 z" id="path2998" style="fill:#ececec;display:inline;fill-opacity:1;stroke:none"/><path d="M 99,10.000003 C 49.29437,10.000003 9,50.294371 9,100 c 0,49.70566 40.29437,90 90,90 L 99,10.000002 z" id="rect2995" style="opacity:0.15;fill:#ffffff;fill-opacity:1;fill-rule:nonzero;stroke:none;display:inline"/></g></svg>