<?xml version="1.0" ?><svg height="200" id="svg2" version="1.1" width="200" xmlns="http://www.w3.org/2000/svg" xmlns:cc="http://creativecommons.org/ns#" xmlns:dc="http://purl.org/dc/elements/1.1/" xmlns:inkscape="http://www.inkscape.org/namespaces/inkscape" xmlns:rdf="http://www.w3.org/1999/02/22-rdf-syntax-ns#" xmlns:sodipodi="http://sodipodi.sourceforge.net/DTD/sodipodi-0.dtd" xmlns:svg="http://www.w3.org/2000/svg"><defs id="defs4"/><g id="layer1" style="display:inline" transform="translate(0,-852.36218)"><path d="M 100 10 C 50.294373 10 10 50.29437 10 100 C 10 149.70562 50.294373 190 100 190 C 100.75044 190 101.47964 189.916 102.21875 189.875 C 102.47878 189.861 102.73968 189.85675 103 189.84375 C 103.93792 189.7973 104.87645 189.74756 105.8125 189.6875 C 112.38024 189.26605 118.74383 188.07939 124.84375 186.3125 C 130.51682 184.66925 135.96208 182.53052 141.125 179.875 C 159.21425 170.57091 173.56721 155.26453 181.90625 136.65625 C 181.96935 136.51539 182.06257 136.39124 182.125 136.25 C 183.82639 132.40089 185.3428 128.45478 186.5 124.34375 C 187.4004 121.14502 188.17308 117.89634 188.71875 114.5625 C 189.31774 110.9029 189.67507 107.16509 189.84375 103.375 C 189.89375 102.25049 190 101.13693 190 100 C 190 96.34978 189.70363 92.78648 189.28125 89.25 C 189.19555 88.53225 189.03998 87.83748 188.9375 87.125 C 182.66932 43.54493 145.31458 10 100 10 z " id="path5955" style="fill:#543ebb;fill-opacity:1;stroke:none" transform="translate(0,852.36218)"/><g id="g3" style="fill:#ececec" transform="matrix(2.015357,0,0,2.015357,42.875714,887.12306)"><path d="m 43.503,24.87 c 0.275,-0.055 0.684,-0.146 1.146,-0.246 h 3.578 l 0.557,-0.823 c 0.012,-0.006 0.033,-0.008 0.045,-0.008 l 1.385,-2 c -0.02,0 -0.053,-0.004 -0.068,-0.004 l 0.145,-0.217 H 30.897 l 0.746,3.051 h 5.293 l -8.906,8.039 c -1.818,-2.51 -6.078,-7.74 -9.049,-12.069 h 6.667 v -2.322 l 0.076,-0.512 c -0.02,-0.004 -0.057,-0.01 -0.076,-0.01 V 17.54 H 3.535 v 3.053 h 6.558 c 2.545,1.99 12.28,14.145 12.684,15.358 0.162,1.135 0.311,7.836 -0.166,8.342 -0.957,1.012 -5.322,0.744 -6.375,0.818 l -0.364,2.076 c 1.923,0.057 8.181,-0.156 10.126,-0.156 3.834,0 10.549,-0.018 11.496,0.055 l 0.117,-2.178 c -0.969,-0.164 -6.254,-0.02 -6.984,-0.186 -0.162,-1.055 -0.34,-8.109 -0.178,-8.838 0.73,-2.106 11.837,-10.686 13.054,-11.014 z" id="path5" style="fill:#ececec"/><path d="m 46.722,41.544 2.971,0.236 3.461,-13.369 c -0.578,-0.02 -5.83,-0.516 -6.512,-0.648 l 0.08,13.781 z" id="path7" style="fill:#ececec"/><polygon id="polygon9" points="49.354,47.202 49.831,44.007 48.118,43.923 46.208,43.687 46.226,46.95 47.729,47.081 " style="fill:#ececec"/></g></g><g id="layer9"/><g id="layer8" style="display:inline"><path d="M 99,9.9999995 C 49.29437,9.9999995 9.000001,50.294369 9.000001,99.999998 9.000001,149.70566 49.294371,190 99,190 L 99,9.9999995 z" id="rect2995" style="opacity:0.15;fill:#ffffff;fill-opacity:1;fill-rule:nonzero;stroke:none;display:inline"/></g></svg>