<?xml version="1.0" ?><svg height="200" id="svg2" version="1.1" width="200" xmlns="http://www.w3.org/2000/svg" xmlns:cc="http://creativecommons.org/ns#" xmlns:dc="http://purl.org/dc/elements/1.1/" xmlns:inkscape="http://www.inkscape.org/namespaces/inkscape" xmlns:rdf="http://www.w3.org/1999/02/22-rdf-syntax-ns#" xmlns:sodipodi="http://sodipodi.sourceforge.net/DTD/sodipodi-0.dtd" xmlns:svg="http://www.w3.org/2000/svg"><defs id="defs4"/><g id="layer1" style="display:inline" transform="translate(0,-852.36218)"><path d="M 100 10 C 50.294373 10 10 50.29437 10 100 C 10 149.70562 50.294373 190 100 190 C 100.75044 190 101.47964 189.916 102.21875 189.875 C 102.47878 189.861 102.73968 189.85675 103 189.84375 C 103.93792 189.7973 104.87645 189.74756 105.8125 189.6875 C 112.38024 189.26605 118.74383 188.07939 124.84375 186.3125 C 130.51682 184.66925 135.96208 182.53052 141.125 179.875 C 159.21425 170.57091 173.56721 155.26453 181.90625 136.65625 C 181.96935 136.51539 182.06257 136.39124 182.125 136.25 C 183.82639 132.40089 185.3428 128.45478 186.5 124.34375 C 187.4004 121.14502 188.17308 117.89634 188.71875 114.5625 C 189.31774 110.9029 189.67507 107.16509 189.84375 103.375 C 189.89375 102.25049 190 101.13693 190 100 C 190 96.34978 189.70363 92.78648 189.28125 89.25 C 189.19555 88.53225 189.03998 87.83748 188.9375 87.125 C 182.66932 43.54493 145.31458 10 100 10 z " id="path5955" style="fill:#096eeb;fill-opacity:1;stroke:none" transform="translate(0,852.36218)"/><g id="g3" style="fill:#ececec" transform="matrix(2.0125881,0,0,2.0125881,42.949905,888.68417)"><path d="m 23.556,29.975 c 0,0 4.701,-0.35 4.701,-5.863 0,-5.514 -3.846,-8.206 -8.719,-8.206 h -8.97 -0.263 -6.802 v 30.815 h 6.802 0.263 8.97 c 0,0 9.788,0.309 9.788,-9.096 -0.001,0 0.427,-7.65 -5.77,-7.65 z M 10.568,21.383 h 7.815 1.154 c 0,0 2.18,0 2.18,3.205 0,3.207 -1.283,3.672 -2.736,3.672 h -8.414 v -6.877 z m 8.516,19.861 c -0.237,0.006 -0.438,0 -0.573,0 H 10.568 V 33.01 h 8.97 c 0,0 3.249,-0.043 3.249,4.23 -10e-4,3.606 -2.427,3.977 -3.703,4.004 z" id="path5" style="fill:#ececec"/><path d="m 42.382,23.746 c -11.85,0 -11.84,11.84 -11.84,11.84 0,0 -0.812,11.779 11.84,11.779 0,0 10.545,0.602 10.545,-8.195 h -5.424 c 0,0 0.18,3.314 -4.941,3.314 0,0 -5.422,0.361 -5.422,-5.363 h 15.967 c -10e-4,0 1.747,-13.375 -10.725,-13.375 z m -5.303,9.264 c 0,0 0.662,-4.75 5.422,-4.75 4.762,0 4.699,4.75 4.699,4.75 H 37.079 z" id="path7" style="fill:#ececec"/><rect height="3.7950001" id="rect9" style="fill:#ececec" width="12.711" x="35.752998" y="17.721001"/></g></g><g id="layer9"/><g id="layer8" style="display:inline"><path d="M 99,9.9999995 C 49.29437,9.9999995 9.000001,50.294369 9.000001,99.999998 9.000001,149.70566 49.294371,190 99,190 L 99,9.9999995 z" id="rect2995" style="opacity:0.15;fill:#ffffff;fill-opacity:1;fill-rule:nonzero;stroke:none;display:inline"/></g></svg>