<?xml version="1.0" ?><svg height="200" id="svg2" version="1.1" width="200" xmlns="http://www.w3.org/2000/svg" xmlns:cc="http://creativecommons.org/ns#" xmlns:dc="http://purl.org/dc/elements/1.1/" xmlns:inkscape="http://www.inkscape.org/namespaces/inkscape" xmlns:rdf="http://www.w3.org/1999/02/22-rdf-syntax-ns#" xmlns:sodipodi="http://sodipodi.sourceforge.net/DTD/sodipodi-0.dtd" xmlns:svg="http://www.w3.org/2000/svg"><defs id="defs4"/><g id="layer1" style="display:inline" transform="translate(0,-852.36218)"><path d="M 100 10 C 50.294373 10 10 50.29437 10 100 C 10 149.70562 50.294373 190 100 190 C 100.75044 190 101.47964 189.916 102.21875 189.875 C 102.47878 189.861 102.73968 189.85675 103 189.84375 C 103.93792 189.7973 104.87645 189.74756 105.8125 189.6875 C 112.38024 189.26605 118.74383 188.07939 124.84375 186.3125 C 130.51682 184.66925 135.96208 182.53052 141.125 179.875 C 159.21425 170.57091 173.56721 155.26453 181.90625 136.65625 C 181.96935 136.51539 182.06257 136.39124 182.125 136.25 C 183.82639 132.40089 185.3428 128.45478 186.5 124.34375 C 187.4004 121.14502 188.17308 117.89634 188.71875 114.5625 C 189.31774 110.9029 189.67507 107.16509 189.84375 103.375 C 189.89375 102.25049 190 101.13693 190 100 C 190 96.34978 189.70363 92.78648 189.28125 89.25 C 189.19555 88.53225 189.03998 87.83748 188.9375 87.125 C 182.66932 43.54493 145.31458 10 100 10 z " id="path5955" style="fill:#285dba;fill-opacity:1;stroke:none" transform="translate(0,852.36218)"/><path d="m 100,902.36421 c -27.61421,0 -49.999997,22.38985 -49.999997,50 0,27.61421 22.385787,49.99599 49.999997,49.99599 27.61422,0 50,-22.38178 50,-49.99599 0,-27.61015 -22.38781,-50 -50,-50 z m -19.173601,65.49036 c -8.692386,0 -15.738071,-7.0396 -15.738071,-15.73198 0,-8.69645 7.045685,-15.73604 15.738071,-15.73604 8.692386,0 15.736041,7.03959 15.736041,15.73604 -0.002,8.69238 -7.043655,15.73198 -15.736041,15.73198 z m 39.486301,0 c -8.69239,0 -15.73605,-7.0396 -15.73605,-15.73198 0,-8.69645 7.04366,-15.73604 15.73605,-15.73604 8.68832,0 15.73604,7.03959 15.73604,15.73604 0,8.69238 -7.04772,15.73198 -15.73604,15.73198 z" id="path3" style="fill:#ececec"/></g><g id="layer9"/><g id="layer8" style="display:inline"><path d="M 99,9.9999995 C 49.29437,9.9999995 9.000001,50.294369 9.000001,99.999998 9.000001,149.70566 49.294371,190 99,190 L 99,9.9999995 z" id="rect2995" style="opacity:0.15;fill:#ffffff;fill-opacity:1;fill-rule:nonzero;stroke:none;display:inline"/></g></svg>